<mxfile host="app.diagrams.net" modified="2020-12-15T11:24:18.369Z" agent="5.0 (Windows NT 10.0; Win64; x64) AppleWebKit/537.36 (KHTML, like Gecko) Chrome/87.0.4280.88 Safari/537.36" etag="WvwFh0U6oMFxKilJhexi" version="14.0.1" type="github">
  <diagram id="lIMGnlIAKM6AfxCsCgNg" name="Page-1">
    <mxGraphModel dx="1422" dy="839" grid="0" gridSize="10" guides="1" tooltips="1" connect="1" arrows="1" fold="1" page="1" pageScale="1" pageWidth="1654" pageHeight="4336" math="0" shadow="0">
      <root>
        <mxCell id="0" />
        <mxCell id="1" parent="0" />
        <mxCell id="bgvGzZZ6QWPnJdermKFC-9" value="" style="shape=image;verticalLabelPosition=bottom;labelBackgroundColor=#ffffff;verticalAlign=top;aspect=fixed;imageAspect=0;image=data:image/png,iVBORw0KGgoAAAANSUhEUgAAAVEAAAO0CAYAAAAcYAVaAAAgAElEQVR4Aeydd3gU1/X33z9+QZVigwu2iR2bahw3bMCV2HFNHCexkzhxoQiEetsVzYAppnchEAJRVVDvvWu1khCo9957l2im+vs+586OWLrqamXdeZ7Zafeee+fM3M+e2878P/CFa4BrgGuAa6DPGvh/fY7JI3INcA1wDXANgEOUvwRcA1wDXAP90ACHaD+Ux6NyDXANcA1wiPJ3gGuAa4BroB8a4BDth/J4VK4BrgGuAQ5R/g4MmgZ+/fXXe8q+3/l7BuYnuQbUXAMcomr+gIZz9giWly5dQklJCeLj45GZmYnz588P2C1duHABVVVVuHnz5oDJ5IK4BnqrAQ7R3mqMh++VBs6ePYsNGzYgLCwMLi4u2L9/P+rq6nolQzlwXl5eN4gJziTz2rVrykFu2yeQc8v3NpXwgwHWAIfoACuUi7tdA1FRUdi6dSs7SRajo6MjW8VQdK6jo0M8ZNurV68yC1Y8SRbnjRs30NnZiZUrV0Iul4POXblyBdXV1bh+/ToL+ssvv7DtxYsXu+MrA5SsYLKMaRHDsgP+wzXQDw1wiPZDeTzqwzUQHR2N3bt3dwcMCgqCnZ0dO6aquJubG5ydneHq6orGxkZ2PikpCYcPH2b7BNlt27ahqKgIiYmJWLBgAX766SfExsay63v27EFxcTHbJ1kEWA8PD9ja2iIlJaVbRkREBI4cOcLS8/Pzg6+vL7vGf7gG+qsBDtH+apDHf6AGZDIZVq1ahaysLCQnJzO4FRQUsHZMAmBwcDC6urpw8uRJHDhwgMkiQG7fvp3tkwVqbW2NnJwckIW6evVqUBMBVeEJsCQ7Pz+fhV27di327duHpqYmBtMdO3YwC/bcuXPYtGkTs1rJcl2zZg1sbGwemG9+kWugpxrgEO2ppni4PmkgISEBJiYmOH36NJYtWwYvLy8mp7KykrWPEhhpaW1tZeCk6jbFEa1XguiKFSuQm5vLwq1btw4EYVoIogRO8ZgAm56ezq5RFX/Lli2s44ksU5IpLiEhId3yxXN8yzXQVw1wiPZVczxejzQQExODXbt2sbBUfSewETCpyk6WqLgQLDdv3sw6najaLsa5E6JUlReBeidE6RpV+2mhttD169czC/bgwYPdoKVrZOmK8sX0+ZZroK8a4BDtq+Z4vB5pQBmiFIHaQ6k6TrDbu3dvd885VenJ+iRLlK5TtZwWsijJghXBSdamWH0nwCpbogRR0SolwBJEKR1qKhAtVJIZHh7OIcq0y38GQgMcogOhRS7jvhqgjiWxfZMCUYeOj48Pa9Mkq/TMmTMMlNTZI4KzpqYG1J5JYKVhTIaGht1wpPMUhxYCJbVvilClfWWIElTLyspA7bI0tOry5ctseBSNFlC2gu+beX6Ba6AHGuAQ7YGSeJC+a4CqzsrAIiuTqte0kHVob2/P2kmp55yASQtZn9RjT1Yr9aoTXEVQEhCpk4jGi9JC1qYIThqPWlhYyM4TYDdu3MgsURoK5eDgwNplacgV5Yd67/nCNTAQGuAQHQgtchn31AC1S5I12dDQwKxGOiag0VAmqorTQtcrKirYeToWx3VS73tpaSlozGdbWxur5tM16ogi2La0tLD4tbW13WM+aZ+sTXGhQf13HtP4UGpioM4mvnANDIQGOEQHQotcxj01IAJRvHjnsXheeduTMMrhe7JPA/PFMagEZBp3mpqa2pOoPAzXwEM1wCH6UBXxAMNdA2SR0kypU6dOsQH3np6ezKId7vfF868eGuAQVY/nwHMxiBqg9lGaWko99TQQny9cAwOpAQ7RgdTmAMmiKi1fB1IHdz+Y36J+775LfkYVGuAQVYWWe50G+eHk68DpgFzljYT13v5be/368Qi90gCHaK/UNViBf1Ugk7Y3cBPX8StfuQ56+A7cYO/MVdwEuQQURj0M1pvK5d6tAQ7Ru3UyBGcEp8LRZQ34/qgcP5xKxoJTZ/g6UDo4mYwFv+F10fEk/HAiGUYnYlDX2DwE7+/ITpJDVB2e/68CRG3PlmDUIj9oGEdBwziCrwOlA5NoaJhE/XZXo3BoGEVjnKE78kor1eGNHlF54BBVh8etgKh9Wgm0TP2hJZFDRxKvWGXQlfCV6+D+74CONBZaVvGYaOWPwvJadXijR1QeOETV4XGLEE0tgbapDysQOhIZdCRxbB0tiQVf+6ODaIyW/DZXXUk0dKwjoW0Vh6csCaL16vBGj6g8cIiqw+NWfBXTPrUMmsZBCogKACWQakv52j8dxEJb+hteJXHQtEzCRIsgFHBLVOUlmkNU5Sq/V4JCm6gA0RAOUf6n0cs/Thk0Lc9goiWH6L1K12Cf4xAdbA33SL4yRIM5RDlEOUR7VG7UIxCHqFo8Bw7R/lXXR3pzB7dEh7IYc4gOpfa70+YQ5RDtzx8Bh2h3URqCHQ7RIVD63UlyiHKIcojeXS6GxxkOUbV4ThyiHKIcompRFPuQCQ7RPiht4KNwiHKIcogOfLlSjUQOUdXo+SGpcIhyiHKIPqSQqO1lDlG1eDTKEOXjRDlQewtU3rE0lMWYQ3Qotd+dtgjRcmgac4hyiHKIdheNYbDDIaoWD4lDlIOzt+BUDs8t0aEsxhyiQ6n97rQ5RDlElaHY230O0e6iNAQ7HKJDoPS7k1Q1RGXQltIaB+3bHJwozrFpl2IY5XMPKtzK4ZXjKO8/KP6deaGwvYh7z6miYp4EZy4CqG+d6xm4FeElD8tLb+U+RBf3vJ/7xeEQvbtMqe4Mh6jqdP2AlFQMUas4aFvFMIiS31JdSSxzpaZlEQFd62h2Xss8EloWUdCyjIHOMiq8MdCyiIE2hb2zgLNzdD0C2paR0LKMVsA5XgFCMQ6BhvbpvAgEkh8D8ok5moHqFrQoPUpfCC9ATIelFdvtJlCQJ8TRkVJYJW9NEhm0LCKhbR6D0Vbkn1UGbUk8tCzpfhX5kMSzc7d7y4qFruLPRUcaDy3zGGiakG4ojkJv1pR/Oha2msZhTIfa0gSWN/H+bpcr3vNAbzlEH1C4Bv0Sh+igq7gnCagSonKMtYrAH1Z6Ytxygp0coyVReHJ5IJ5ZGYjR0nA8LvXDH1c44bXVzpi0MgjaVpF4cnkAJq4MVwBCAJoAChl0rWLwhNQHM1c549U1Lpi0MlCAr7UCiAw0BE4RquK+wt2fNA461nHQJcAROK3iMc4qEpOXe2PCCoK6GO+Wj1WCIZ1nkGLwJRgSnATI0bUxlqF4YflpTFwWAl1LyksCxpiHYbLUDRNXhkC7G9qUDwGwIhQZrCkN0zDM2xuO/7qmCUBm6SpB0DoRj0nDYOGThhe2p0DLkvJIkKeVZCqF7f7jGOhzHKI9KWWDFYZDdLA02yu5KoSoRI4npcFwzCnDaweyoGkug6aRP/7nGI2fkiuhqe+Orw4EQ9bSgdCGNvjWXcKbu+T4l0MwViZVQMssQgEfEQTx0DL2xz/tghDb0oGQujb411zEnAOZAnRYlVwObetEaEvlCiASAIV9HebFX7g+1ioas7bG4dHVKRhvGQznolr8J6AOmuYKq5HJEsEsbgmeynIpX2RtxuEPy/0RWVmPtXHkpzUCmmYxeGmlN2Iq6rE8thRapqHMkhQs7QQmh6CsI6az7Aw0DX1h6RUOx5IGaJqEQktK9yE2D8ihJUnCJKk/spqa8I5DATRMKX0ZkyHIEfU0mFsO0V4VtwEOPCwgSt8I/20vqoOoljQBk6R+OFvbiLcdCqFhlgBNQ29YuYfjWGETNBachMWJIHiVNWLeJjf45pZgR2IOzE554GB+LbRMAxUgFKEgh6aBO8wdA+BV2oAPNnkgKLcIezMboWkaAS3TcIxe6oIxS92haSxAS9c8GNomQUwOeZzXNfJhVeanDU/CK7MEr21PwBj9U7B2jcCbe85C0yiYwWy0gSt0DU5DyzQYOhLB4qT9MUtdMdrQHZqGPkJVXSpnaf95Vwy6rl5BUtN5PLH2LDSX+sLcIZi9SvszaDiZwu2gsTfGGTpDy8AHWhZkFSey6r6WsQ80vzsAE0d/HM2rg65JELSMfVlTiK51HEZbBEPTJASTJD44W1WPtw4XQMNMDm3zEIw1cMJoQ1fhT2fQLFDxGXCIDiUfhgVEb968idzcXISHh8Pf3x/Jycm4ePFij/TWUwBTuHuFvd/5HiXe40CqhegzUj8kVNVh7uE8VugJohauYXDIaWAQNTsVhJ2p1fjdv+1gcSoIx1OzYHHcDbbZ1dAyDVBYkQpL0DoRmku9Ye7oj52pVfjdNwchcQqAU1EjNBZ7Yu7mCGyXZ2PvuUL853QONA398Ke9wfjX6XPQMovEBKsAmLgnYvLmeJieTkTbpYs4XlCNfxyLgqlbBJ79KQJzNgVCGpCNdZGZ2JdcgC+PZ0LHKhZaJkF4b1so9iTmY2tMHpYF5+LZjcmsOYDg9td90Sitb0JVZyfesCuA5lIPuMWnobTrArYnl0LTMBATLIJg5pUKu7O52BhXjOd/TmRW6+RVIVgbloVdsWnwyi7CgfRaPGroAWOPJDy/NRWahiGYtzcY//TIwNPmHkiuaMBcgqh+IOZuD8b2hGzsTCrCh3YZQlvyoIKUQ7THRW0QAg4LiF6/fh1r1qyBt7c30tPTYW9vD1dXV9y4cfc3tvsDPYL1nSClc7Tea4mIiEBLSwu7dGe8e4W//znVQZSqvpOkvkisrMNbh3OhaSaDpoEXzFzD4ZBbD42Fp0AQtUktxzQrF/jlVWJ1WC6MT/hif04Vs0TJmhXaKeOhbZ3E4lue9MeBlHJMt3JCQG451sZVYfoyD8RVtuNoXj12xuUgue0iPrGNhuEpf+zNrYWGUTietPRGTGkV5h7OxvenUtHUeQH7s5vwj6OJiKtrxet7ZVhi7w36/NrO5AqczizF2a4beG7LOUxd4YPY6lbYZ1fDKaUUNTeBV2yyhHsyDsS/7SKQU9+CrLp6mIeWYrLEAwkl9Th+JgNbz5RBU88ZP3rKkdj5C9ZHZSKgpApHCtox3tQH6zwTkNR1BVtjclDSdQEHs+rxmJEroqsaMcehBKMWesHUPQr2JS2YaOKKhMomvHEgC3+QeMG/oAr7ErNxPCkdUTVdeHbTOWhZiJ1QovU4kFsO0fuXrcG/Mmwgunz5cmaNkkouXLiAjRs3orq6mmmIYFpYWIjGxsbbNEbwq6ysRHNzM65cudINvI6ODtTV1bGwBL/a2lpcvny5G6BNTU3Iz8/HtWvXuuVRGhUVFSxNgjqlbWBgAF9fX9TU1HTH7Y7Qqx3VQZRV5yV+SKqswxz7PGiYEwR9YXo6lMFOY+FJGNr7oOLiZWQ3dyLjIjB1bQgMTwXAJrcGWmZhrIOGdexQJwtZogbeMDnsjcqLl5HX0oWMTuCF1SHQOxaMxOZLeGpZKLS/PwL76GTsScyCsYMbdqVVQtM4HBMt/RCdV4o3DudjvL4T4gsr8Nqus5hg4Iakqia8uTsaBg5e8C5pwBgjT0w1c0R6XTPetEnE98fCIWu5hCesAjHF5DhSyqvw5oFc1s5L7bTfH4lAREkN9oYn4vi5Aiw8GIiAwlqs8YrAtjMVGG/ojISKOhgGlGDU9yfx3urTSG27gPf2RCK8oBJ63hX43Td22OwXAbv8Jjxh5IToomq8ebgUo/S8YeYcArvcejxl4gx5VTNm703A/w4GIaW2Hl9vtYf+zoMo6WzH3CMF0DTjEO1VkRhGgYcNRFetWoWioiKm2ra2NgZRsgIJfsePH4eDgwOOHDmCzMxMFub8+fM4duwYTp48yZoA9uzZg8OHD7Nr1Cywbds2tk+gXb9+fbfsc+fOwcbGBidOnICnpyeD7y+//AIXFxc4OTmxtby8HBRuyZIl2LlzJ86cOcNk9f1HdRAlS/QZqT+Squox71AORhnGQ1PfE6s8gmGf38wsUZOjvgitaoHEUYaEugv4s60cRid8YZNdLXSuSBKhZaVUnTfwgulxIY7UMR6y2vP48EACzJ38cTK3DpqmsdDQ98cyp0AcOpMCs2OnsTu1HJpGYXjCxAuR2UV483ARxpv6MUi9bFuIx0wDkFjVyCC65Jgv9mdVQcM4Gk9YBkNWXIO3beJg4BQIx7xaaJrG4HFTH0TnFmHuQYJoHGs2MHSOht3ZPPx5kxuy6tsQWliK5aGZmG/rAd/yS/jjj6GIL6nD7ANZ0DCOw3NmHogpqMKnB6IRnFeOOYeKMWqBJ4xO+uJAbj2eNDrJ8jfLrhijFnqyttKDeQ142tRJgOiuGCyy90LB5Ss4VdwC1/IO+FZ1YfqedNapJQ57Gvgtt0T7Xvb6H3PYQPTHH3/EoUOHGBDt7OwQHR3N7p6q1ARRWqqqqhhIyWqMjIxkMCTIUvspWa67du1i4cLCwrB582a2TxClpoKSkhIGTApTVlbGrlGTAUGZ1p9//plZm1evXmXhyEpduXJlt3U8nKrzEyx8EVlUiUMZzXjU2B0vmh9HYkUlNqa0Q2OhEywcfbE1tQoa84/DI6UAP8fkwuyYO45lVeDRJScx3jgQY83DhTGg1onQWuoBS0c/bE2txqjvj8HtXC5+lpfgvwcDkdZ1HS+tD8cTiw7DN70AG2JzsNTBC8FVLZho7oY/rXZGYUMTXjtQiEdNfXGmtBpv703Ck0auOEOW6K4YLD3mA7s8AngEJloGI6G0BnNs5PjfoVCkdlzFtFWBeGeVC3IbW/C6bbYw4sDAG2YuIbDNqsYTBieRXlSGVgDvHkzCv/Z4ILn1V7y+IRoRRdVYL6uG9sKj+GqHO851XsMbW6MRXVCFZeHVeOT7/TgaHQ+H/GZMMHBCankdFrrlYdz8/XCg84VNeMrEEcmU170J+OZgKDIa2vDR6mN42dwWM6VOGEvjS9lwqoGswivL4hBlBXaIfoYVRMnSPH36NFavXs2q4KQzAquXlxdycnKQkpLCrEqq1pPlmJGR0a3WqKgo7N27lx0TRLdu3cr2CaI//fQTq/YTPOl8dnY2W8mSdXNzY2mRtUoWLFm4tBBEqYkhLy+vW07fQapCS9Raznq3FxwKQ9bla3Asa0ZgVTPiW67g1d2p0NBzh/HpYOyiTqZFLpB6xuBEXhlMnfyQfuU663w6VtqGb/1L2GB8GntJ1Xkjl1BszWmExqLTkHjEwLGqHZOXeeN0Rg0Cm7rgVlKPqKZL+OO2GLyz2Q9ZF6/Bq6YVgRXNKLz6K/64Px+6hv4ILayEb8sl/OdUKiKqmjBrVzwWnQzG/sI6aJpE4knLEMRUN2KufQamrgxEdF0nvOo6EVTajNpfruHlvWmCJWrgCxO3SOzLa4T2Ihc4xKYi6cINjLcOw9cHQpF8GZiyMQbfHQxDUtdlnCysRWxzO9Yl1GKcSQA2BGQg5dJ1OOfVouDyDezLaoDOElccjstHyi/XcZTOX7oG2+x6PGHsDFldM2bbZWGiqRu8s8oRVNcKh+wqbElpwNMbU3ibKCslv82fYQNRqs4XFBSwpxAUFNRtfa5btw779+9nVW8CrLu7O1pbW7Fv3z7WTio+NrJcRYiGhIRgy5Yt7BJZrSSD2jWpWm5ubg4PDw/WcUXVdxoJQAtBmpoAyCJtaGhgVumyZcu6LVExnb5tVQhRqQzULkqg+JttBCy9ZDD0PINXtidByywK2uYReH2TP94/IIOOSTBe2hCEfx9LwDvbfaF/Ohrm7nEw9Zbj3YMyaFtFsZ56HcswvLIpGHMOJjBAv7gxEF85ncF46yhMWRmApa6xMPJOwqw9lEYkxpmH4O+24bDwisfXxxPwxZFETFx3DlqmUfh4ZwCMvOSYu1uGLw/F4OnVUZi50R/v29HYz3g8YhWBrw5FYtLGJDaU6KPNrlh8zAsWDt5IqW7Ea7bUsRQDbfMwzPo5CPMOxkPH2B+vbw7C+wfl0DIOwsy1IfifUzKeWEvX/PDlgShYecvxP5c0PL4ylrX7TloZhvmn4mDinoCvjp3FO/vl0DIJwQs/hkDfJQ76bon4+kgi3t+bgAlm/vjnkWg8s4F69oMxY7UvjDxksPCKxb+d0zBh9RnFbCZl63Eg97kl2rdyNzCxhhVEaZgTLdQmefDgQVAHD1mi1GN/50JtpMptlTQ0SoSoXC7Hjh07WBSxWk5NAdQ5RfB90EJNB6dOnWJBCKIi2B8U5+HXVAlRGiguzO7RMglgPeuahv5sXCVVOWmAuI5ZOLTNglk1VMcyEppGoeyclpEXtA29oaHvx6rWOtbx0LGOha51DLQtIqFlHg4dth/GBuDTNE4diyhoGvhAY6kfGzNKcahdVss4AFqGPmzsqKZRELQtotnMJy2TQNbRpW0WDjpPU0hp6qamCXVoyaAriYGmcSCz7CYsi4C5Wzz0HYJhE5IIWdMVPLcpjY05pRlDuqbB0DYNxFiaOWURBi3TEIy2joeuVTQ0DEMUY0pjoWkkpEnjUWnGlC5N57SKhqZRALQM/KFlQuNBadpngjAV1sgHmkZ+TC+aJtEYbREnuDCk6aRk6ZMuDP2gZeDNxrgKU2WpDXkgwaksi0P04WVs8EIMC4gS6KRSKbKyspgmOjs7GQTJ4iRLkdo3qbecOpqoB50WAiWdJwuTeuipTZU6jGghS5Kq58XFxUhLS4OFhQVrB6X2TuooCg0NZdV2qt5T9Z1692mf0j169CizekmOra0tyCqmdtf+LaqFqFCYqbdYMZeczfemY0UPMoMpzR+PVswhvzXDiM00YjOEaJiTYoqjNc1/l0GHTfNUTLskwIozf9iQqCTQPHSaI09TPIW4NNMogZ0nOOpIoqHN5rjTOXJIQjJp8LuiE4viMhDFQ0uSgEcsQ/FTdD7cS+vhVNSMfzkXQVvR4UVTLnWs4qArjVbkQ+wdl0GbQC6Vs+uCvDgGPx3KixifpUmzk4T8dc+s6h7epcgTm9pJbZ5yRT6FPOqyKal0f4MJTxGkHKL9K3/9iz1sIEptlWQp0kJtj9TrLrZHUicSwY2sz8TERBaGrFQCHI0pjYuLY73tVO0X41P7JlmzBFtqBhDhS8B1dHRkHVTUHkojAWg4FPXWU5usj48PaIgULWQZE6jvZQmzAD3+US1Eu51ikDMPNrebYEiFXQSpsD9aEsMsP3JQIsxRJyuSACR2lAgWLc1XZ5Yfk6eYM87gEcMsUwITQYhAw+BJ1iqTofDcRHlgMFJYwlYEToKtGE6RrkRwIsIcpkjkGCOJweMW7njazAmPmfsK1jBBmObak08Agig5GlH8KYj3Kv6JCICle6b7FObPM/iyexTnvVN8CkN5E+B/y6IUIC/8IdB1Ic+Ud+H+BNm3wovQG+gth2iPi9ogBBwWECVokrVH7ZfiQpAky1FcLl26hK6uLvGwe0tjSil+bGwsaJiT8iJeI1nKsqmzieBJY0vFhdIX4Smeoy1ZqjQEqn+LaiHKgMWceghWE7MMWRWfAEnAE7dC1V/Hijw9CdYbgUhHSo5LhHAEFvLCxOIp4CfOiyd4sLnoDH7C3HQKd2+okHxaBcAIFihBiABLULzlIIRBlEFNgC5Zr1pWBGhFftkfA+WZ4E7x5QymBPruvCn+NATgxTGrtDttdk35T4XiETDpPgWZrNmD6YDyJfwJMacjDP7iPVI8xT0o7ktMY2C3HKL9K3/9iz0sINq/WxRik+UptoMOhLyBlaFiiDKQEbBuVY+7IaWw9gg81AFFDjcEpxsEKVpF2BE4FHAhV3msiizCg7ZiODmzQnUkiQpLlEDUF0tMgFF39VtJhi5ZnAyWCsu226JWAEwig2BVU7rCbKvuPwrWtPCg/MiYZyZNC8FapjZTcqNH6Ylr3+7nQWn29hqH6MCWx95JGzEQpWo7VffVc1EtRAXrUAEl6qihThCTYEXbIVlwUdAy8GVejkabhbAOFsH/JrUzktenIGiZhYCccDD/oUZe0DF0h5aBF7TMSI4CrtYx0DLxhq6+O7SWekPLLFxRJe4lJMhFnsIfqC6zEm+PT35EqRo+2ioa5DSERg2QpThaGgtd8yA2VXU0WalWAtiF+79dxn1BaBWNJ1aEY9KaGIyxjMIf1kTgkeU0MkG0snsoRwn6902rz2E4RIeyXI8YiFLnVP+r3YP1qFQLUaGKSQ6W4zHeMhBGzvH4yC5R8LokkbNplMaucnx8OB6zN/tiiWcGHltFvc4xeNQ0EN8fj8dHx1LYcJ7pqwJh5nMW68LOYW1kOj48SvPEI9mMpkekoVjiGIufw5KxOiQd7+yjnnNFe6rYfMCaCUQQEeTEfYU1K5FB1zIGY0WrV7G9ZelSeJIpxwSrECxwlOHZzUkCdM1DMXd7IL44kQgdy2hFuyy1qwodXFQ1F9ITrWbl9Mm6TmR/IItPhWN7ag0eN3aFe1YF3jiYw6ZxsnZkln+KJ1rhoizxWLyfwdxyiA5WyeyJ3BED0Z4oY+jCqBairJ2QYGURjjfXh6Pl+jW4FrZAl4YjGYXg821+oNblvWkl+M+BYBTeAGbsTGEOQ6Yu80Va63ksDK3AU2anEZBbhYim89idUg67/Fr8za0QWuZRDGJPSwKQVt8K95IWBBY3IKrhCp7ZeFYYDG8WzQbPa5pGCe2d0jhomVPvvNB7T97nyS2dpnEQ3tsegv95FLChSNrkAk9CYzkj2bhW8htKQNUixyqSAJypb8bbDnnQNJdDy8gbS90jcLiwHjRkioZLkU9QGq6kbUljXGOgZR4h5FchT+xEorZfqsJrLHKDqVMQDuc3YqLhKciKavGWfT6bykp5pPzTyrzl0xhc8xghXxbCFwJu/SlwiA5d+RrclDlEB1e/PZSuWogKBVvGquSf74lAXVsHis//gsk7s6Cx2B3bvaNB87L2pFZguuQ08tsv4FuvcozS88E/9gUi59JNvLo5ElsDUxDddB4vrgmEroErxpl4QtecxnPGs/bUZ638cK6iHrN3y/HC0hNIq2rAbHJ6YhCKmau88eetXpi1IRg6lrEYYxGBmet8MX5lNGhs6u9X+uOFn0Iw0dQJu4LiEMSkdukAACAASURBVFhWjVnrPTHGOhrjLQLw9kZPzNnij8eXxzIHzGSJPifxY9My5x7MxiijOGgudYOhky8ccmugaxqE51cH4t2fXfHOZm88tiISOubhmPmjL15a44/3tnjj5Q0hbKyqtiQaj0iD8PJ6X8xeewrrfaJwMLcBTxo5IaKoBnPscpi7vAmW/nhrkzdmbw7ChBU0JjaSyXvlJz9MWRfMLGjK1+CDlFuiPSxogxKMQ3RQ1NpboUMB0XjWVvj3g+HIrxV8bv7TvRSPGrkgNKMAEeXV2Jlai7H6rgjOKcPu9BZo6Llhi388Tpedx++tvCEvrsF832JmoYo96EIVV5gV9XuJHxIrGvDSngzMsHJDSnUrZu0+i9fX+8KvqgWhLe2Ib7uIb90L8bipH9wLqjCLALjYDwtcorExuQhztwUjtfUCyq9dx5HyLkxdH4mVflkIb72I2PYL2C5vwiPLaDaTDM9K/ZBWXo9/20djkvkpPG+8Hz+5+cI+uw6aBp6wCMxDQPN5yNouYEdqO55ZFgb39CqE1l5CcF07kruu4JPj+Wwa6xc2wYhuvYighg4UXbwC28xaPG7sjPCSGsw+lA1tA3esDaR8XEBs20WsT2rGU8uD4JlRgaTOS7BOKIKWWahiSNhgWqEkm0O0tyVuIMNziPZTmzQ8ihyUkPu8vi+qhih1/NBnPfzw7ZEopNa1IyK/FNvOlGDeZj/EVjZiV2wi9qXXYNQCF1ifDEN40zU8Jw1AaFYJrGKbMMHQE4nljXjjYDY0Tam9kTp3aBXaPKln/2krf6RUNGJLaD58s6rgUnSeeZA6nVaEQ1n1mLrcCStdY5HQeZ05b44rrsVbR0swSs8P5u6hOFxQi0f0jzJXdB6FtXhhuRv+fiAaCZUN+HLTESzZehDZja142SYbmmZxeNrSD9mVDUjqOA/vmlYEVLeg8PxFHMyoBM22mvOzHz5YdxxLttghvaUTH+1PQEpZA3bG1+C1FY7wSknD9oxm6Bi4wyujBEcyG/HqKicEZhbgSG4jHjdyQWRxDV7bdxbztgcjuaoe//j5MJZutUNaayfm7Y9Dbk0zHHPr8dxaf2hLIoUhVt3tvIMFUw7Rvpe9/sfkEO2nDtvb2/Hf//4X8+fPv22aae/Eqhqi1KEiB033XHIiFqczy2B0KgyR5fXYGZoEu5RiWLgE4FRRC7QNA/Hh1mCkNl3CfPt4JNR1Ys7hEkww9sPZ8lp8eDQPGibCuFE2hlQxcJ4gSr5Cs6sakdXYheLzF7E8rhaPG7ogoaQWfzqSh1H64Xje7DRkZXX4u10CwgvIV2cxRun5w/R0COzz6qEx/yjMT3pjX2Yt8xBlcCIY2R2d2JuYiaNnM5F94RJm2eWwbxtNsvRBenk9VgTn4S8HEvAP23AckafhcHYVtAw9MWt9INZFZONwfDryW7vwF1sZwgoq8cb+LPzuWycYHvPE3qw6PGbsjriyBnxwOAujvjsBi1O+sM9pxJNGzggvrsPru+Iw394PuV1dsEnKxPEzmci6eBWfHYqHvKQOnx7LhYZhmPDxPfZV0cGCpyiXQ7R35W1gQ3OIDoA+IyMiGEj/8pe/MJ+loqennoseCojGs28rWbhG4mBaBaZLnZFb1YDSCxex0CMT39l4I6H9BiZtysB4C1/EZZciqrgWnmVteHRFEsYa+yMirxR7UxvYPHFNA5qHHyDMj1e0if5e4o9zFY340CYR39oFIbLhGl5fG4a44hp8eTIX//e9D/5o5YKk2lZ8ZpuAuKIavHsgC//375OwdgnG0TzyCuUISxd/2GTU4Hf/OwaDk8FIa+4EjR5Y6pqI+U5JmLhOzjqynrXyQVpFHd7al4pRS4JBDqaNjwvV+UeXOsI7vRTH0ithcCQS52ra8Jf9MoTmV+EN+yLmZNnohB9sMmvxhKEz4kpr8NmJfIz67yGscAmAfV4Tg2gEg6gMPxz2RUpzBwxd5TBykeM7x2S8tCYQsvL67o4nagsVxqOKsBusLYdoz8vawIdUK4jSzCKaeXTuXArk8kQkJiaxaZw0lVNd16SkJJw7m4Jjx47j008/wzvvvAdLCwkyM7Nw4wZ9bqQnD021EGWzj5hHeh9YukfAvrAZY/ROIDw1F/RtgGk/x+O7A9SBBLywLZu1Jx4JFqbTrpPXQNMkClpGwVh0KAxlv1zDz1EF+NI2Cl8dl+GVHXLoUA+1VSKek/ojvb4Zr9vlY8pyP6Q3X8C7u2TYF5kG38o2/G23P+xjUhHafBXT1oQivrAaxzMa8eXeIJypqoVjQTNzx2fsGIqYhja8vSsKn+2LQkZ9B8ycI/DZDi98uDsEj66Usd55Si+jnr66WQhN8wTmJMTUNQx2+Y2YYOSClKo6bAySw+qwH8ou/YK/HJAhqqQWsw/nY9QCN5g5+sM+twFjl7rAL6sUnuWd+IdNAJKqagWIGjghobwBs2xT8fomX6TUt8HQMRyfb3fH+7tCMXWZH87WNeOdo8qe7FUx1IlDtCelbLDCqBVE6SbJ0cenn36O116bhdmz52L27DmYPXu2Wq5z5lDe5mDOnLfw3nvz8PFHn+Ljjz/F3Llv4x9//yfS0u72LnXvB6k6iLJpmlTlZmMgg/GfY+GQyEtZT/aSU+HYdrYaOmZh+GRfNJyL2/CHrenMA9PXewPZN4/es88ShgRZxuJxCz8YOJ9FYGUL/Kqa4NnYim/8y6BpSuNEE/CUNBgOacV4ySYTY0z8cCC5EB+fzMCzEjccyahESEMLPCrbMe9gBjQN/DD/SCwi65rhVtEMl4JWSCIL2ESAt7aEI7iqCbvzO/HUqkjoO8UjuKkV3jXN2Jnbzvx10qefn5QEwiG1CK/sz4CmhYwNj/rKIQJSWQl0jbyw0j8dfg2tcC5sxImCZryxMwa7EvIx0yYTGkt88PWhQCyPLYKmkS8+3R0F79IGeFe3wamwDUYhhRhv7IUDSYV4eX8mNJd6YelpOQIaW+FV04Jt+R2YsTEKB84W4FVyx0cznAa9LVRMg0P03uVKNWfVDqLkKcnPz5/58yS/nuq8ku9Syp+/fwBOnjiF//33OwbQL774O06cOIWOjs4ePkXVQVSY6kkdS8J88sclvnhseTB0pREYb+mF8RLqEInBeEkInpH6sllJ5NDjcakfJi33hI40ks2dp7Gm1CNOn1B+zsoVU6UueF7qjgnW9FlkanOVYawkAk9LvTFmWSzGSCMwSeqJCSvCoWURgYnm7piy3AVPSulzybHs653jzP3xgpUT/mDtjCes/PDYsgCW1hirMAbeScuF47Hm3pgsdcR0qROesfbFaJrTLpFhnCQck6QeGGtNY0Dj2VTPx6UBeGJ5MEZbRuMxSz88b+2KSRIP0Plx0hg8Ze2H0eQpipyZSHzwpLU/i6djHoJnLV3xwjI3PCH1xWPSIIyzisDT1n4YS9NcJfEYY+GDyZJTmCZ1xtPL/PGoNBzP0P2yOfaqsEA5RHtYwAY1mNpBdFDvdpCENzY2YeuWbcwKNTU1R3qa8J2nnienSohSwaMedNEzUowwzpJm3NBAduWOECuCkzBnnLZalgqvTNbUG0/emoSZOjTgnVl+5jQdkgCtcFJCg9nJx6bCsYiWRTSTQQ5ESJZwLIYX8kSzougak2MV3e0Gjwbe08rybkX7FJ8GudOgdoI25UeQSwPmmcVNliCFtaR57jQMShHPkiw3wasU+1aUIjylSfJ02ewjGuwvpEG+Rdm9Mx0o9MH8osqEPJgrrrN8USebcE/cEu15CRjOIdUUotSQqLyqr4rJc9T8+Qvx3nvvw97+CNra2vuQWVVDVLCkBLiJHogIqlT4hZV5NyKfoMx7kuhBSeGqTmFp6pLvTTaXXZjqyKDK3M6RKzuav05DnhQemJjXJQF0grMTstQU8lkHjDA0itLTkYhOQsS8kRMTcWolxaNZTaIbOgIrXSNQKtzwMScqopUm3qt4rIAn+QklGSw9ikfWKMkW8kUyBfd4FE84L4QV0hJ8otK1W8Bk6ausCi/ej5A/TcszmGgZhIJy+rg0X1SpATWFqCpV0Pe0xI4w8jUaExPbd0EYAogqFfZbsBAKpuCdSfDpSdV+AoyuNEoY88jc4inmnJMjYrJUSRZzwhzDwMn8dFoLDp0FWQoIKdzIkRXcHY9BSHAzJ4BMATRyOMKcjohwU4aG4KiZOWsmuDJ/pbHM3R05kh4oC1Dw/HQLqgKsBYgOVBoDI4e3ifaj8PU7KodoP1RIEB2YRb0gKkxVJHgIVlZ31b3bTd4t60uAIYFFyX8n870pzFoSrDsBgLoMjGT9CRYjjSW9lZYAK+ZHVBIH9mkRhackZdCwajp5Y7rNMiX5QjvsrfO3Q1dZxoP3aV4+zTSKgY4lzauPVFiiJE/4M3hw/L6m2594HKIDUw77JoVDtG96G+BYQwtREQrUFkhQ1DSm7xHRHHiFVUiOOIwjmOMOctjBvolkSdYjtT3Gsu8f0UfudK3JAUckNAxCoGEQzAaca1KnEat6y9iAeBqYL3qe15YmsdlO1G7Kqsfscx5k9SqaD8gZiWjpKixngig1I1AbpyZzYkLu9Sg+5UUGDRp+xdph+wIlOcZJwvDG1iA8tiIGz630x4zNYewTI4KOhKYOUV/qs+UQHeAC2StxHKK9UtdgBVYPiJJVON4qDMt9U/HX4ymCNyKJHBOtfGHtl46/HUvEO1u9YeFfgCdWnWHtoWMtgqDvfAZ/dc6HpmEwZq31xs/BebCNK8GuhDJ8fiKHeTbSNg3Bn3aG4GvHVMEDkyQBEyThMHJLxeStyWzY1KOW0RhNbZWSONabP25ZDAPzLQuQLEHqtJKB5M3bHYp/nU6DjoXwEbvHJGEwdU/D5K3kjk/ZclS2IMV9YasMabKMn5QGwq+yAbN2J+C7Y+HYkV0DLfNQwX8owZqsc9aOSm2tymn0BdoDFYdDdLBKZk/kcoj2REuDHkYdICpjnxqevTka529ehV95O8ZI5dAwDMXfdnjgGoB9aUX4l403Kq4Dr+zJZK7spq30Rm5rB/QCyzBZ6o6AsgaE11/GQVkp7FKr8Q/HPOZ7U3OpB5afDsDh3Gr2BUzqCJlk5YtzVdV450gBRi32x/LAIjy/NYfNnZ+3NxQ/+JZCw5jc6iWwYVDkKo+sT9ZTb+gBa88QHC1pZJawptUZPGvlj/TqWrzvkM/m0muZhgs+Us1pyJPg7Yk+p0xz/dlYVotY5veUIE3Wq4apDE+YeEJeXot39spgeNIfdrk1QvVeKmegJzd65PqOrGH6hDPJI/d3DKzs43YDBcbeyOEQHfQi+oAEOEQfoBzVXVIHiMYzX5tf2JBrvDYUdl7E5O2Z0FjsBRu/GHTevImdKRV4zvwUshvbsTCwFhp6nvhmfwCyLgJ/3BKHXdEZ8KvrwsSVUUyWtmkYdKhNkc2O8oC1UwD2pFUwV3gaFil40tQH8sIyvGufj3dW+6K4uRFLfPLw8ho/7A+PR1hlC+ZujsHk9XF4bUMs5m2Lwmf74zBtkwya+qchcQ2EbU4dRhlEQsP8HCaaeSO5qAxv2+dirEUE3tkSgk/2RuHN7bEYaxWMZ1aG4NUNdD4cH+6NwbOrIxmQ6augU1cG4/1dMvxtiw+Syqoxd2ccDI754WAOzdAKhZZpMF5bH4rP98fi9c1xGGMWgWdXRmD2pmjM3R6D8T/Sl0HJ7Z1gLau2qs8hqrqyendKHKJ362QIzqgDROXQNAnBV3aRKKhvQklbK772LMNjJl6IzS5HaFEFtqfUYPQSJ/imF8AmuwVaix2xNyQBjkVdeFrix6ZQfuNRAA3DcAEo7AufMmgvS2Tfnpc4+uFEThWmrgzA5HXxePsnHySUVuP9g+ewOyQLV25cQ3zTJRw+V4ucuhbUX7uOUxmV+NEzCinNvyCuuh3nGtogb7+O93ZEw/yEP04X1GHaqiAG2rfXeeJceRVm2Wbh+bUx8C/rQFJdG9I7r+Hzw4n47oAX0jqvIKyqDZldl+FSfB6P/SjHBLMAuCeXIrPzIlLr2lB5+Qpe3xIFg+N+DNKaS73x/rZARFZ3IrmxE7LWq/hgXzwW2fkiv+MKopo6MXlXKpulpNyRpjqQcogOQaHtTpJDtFsVQ7kz1BClDhM5tIwD8K1DJFLqWuCbVYCdySX4dIsf5NUt2B4px+60KmgscoKVcwhiW29g8jJfhOWVwCyqARMM3RBfWoNX96VBw0T8iFus0CljncB8dJo5eKH26jXI69oRW3seyXXtqLlyBa/aZGCahTvSK2vxz5P5eNrEAxu8InC8oBHPmJyC9UlfnG2/jDd2JuKlFV6ILq3C9vg8GB/0QN3VG0isbUNcXRdS61pQd/kiXrfNZBbwrK0x+KP0BI7Gp2BPYhYM7Z0hb72M17bI8Zcdochov4CXdyfgi12BSG+/gnd3J+DvuyNQfP4S5uyIYZbovux6jNE/BeeUfKyIKMB08+M4lZgKm6RcWB5xRslV4MODKQpnzjRKgVuiQ1mShiJtDtGh0PpdaQ41RGl4kByaRv5Y7ByFk5klWGwfBHllE2wik3EguRgmJ/zhXNAIXZNAvLctACkNXdB3PIMzTRfwpl0Bxht5IKGsGn8+VggNY+pdpzGkBBSSTRD1gpWjH3yL6/DRjmjM252Cr/dGIb2mHm8cyse4pZ6Ql1Zj1qES/G6BD0xcgrAjuwGjvneG+clg7E+tgIZRNGsvXeERjqPp2bA84QXv8mZ8vDMKH+xNwr/3BSOjuhaz7XIw1jQA5h5pOJ5ajYSaBtjKkmHi4Iw9KeUYpR+CCSZuiCqoxOxdcdA/4o9jOXUs3xOMPCErrsC7u2UMonuyG/GogTNSiisRXd0Kp7RqZDS1wy4pA+bHXXGyqEVod1V8BE8c+K86K5TaTrkleleRUuEJDlEVKvv+SQ01RMkSJa9HvjBzD4dteiWmWLggp6oJpZcu4z/O2fhhny+SW2/g2U0ZeMTYE9EZRUiuboVrSRvGLZNjnKk3/HJLcTi7DdrG4RhlEAEN40jhu0nLklh13tLZH3vSyjFqSRA0zM7gcRNvJBSUY/bhAkww9sDZ0hq8YVuA3833hsQ1DHuyavG7b47CwjEQJ/LroGEUgVHz3bErLAGHUvNhcdIbu7KqoaHvDw2TeDxm4g55UTne3JuIv9oEQdZyCQvsInFUlgJbeTIMHZywO6MSmkZheMrSF9EFlXhzZwwWHvKBb2UH63B6xuQ08/b0tgKie3MaMN7IFWdLamAny8c3hxLx3xOZmLXeB5ZOPrDNrYOWaQj7HIoAUG6J3v89/21e4RBVi+c6xBBlFqNgLUo9Q+FQ2Azdxc4ISc0FTSJ8bl00Ftj6o/gSMGV7Huts2h8QzTS3Kr4OmgRLU3/8xy4cxdeuw/5cAwxOpcDYKwtzbVOF77YbeGPZ6QAcyquGpnEotKRnMcnKG2nllZjrUIhxRh7IqqjF7uQGvLAuBiYnw5DSfpE5Vl7m5Ifya79iRXAhJC5ypHdewA/OZ0BtrEeKCGJB0LRKxiQLb6RUVWP23ngssA9EStN5LD4cjYiKehw7cw7mxxxxIKeajV99ysIHZ8sqMNvmDN7f5oeiX25iTUgR9oVno/XmDbyxPRImJ3xhX9QIHf3T2BWeDt/SRiw4moDvHLMxc10wlrn441hxPYOoMMi/Nz3qAxmWW6JDWYw5RIdS+91pDzFE2UB2+lxIAL52CINZVDG0lnrhh8Nh2CArhY6JHz7dFY6j2S14bnM6NA388dluHwSWNmLugQyFF6YYPGrhh0VHoxFc3ITQsmYEVLXiG89SNt5U0zgQ/7YLhmlYLrTMwqAlTWSu6/bH5WCmTQa0TAKwwScFYdVt+NQxD7M3BMC/uBl7Ewux1jUEZxs74JlbhajqVqyJKoeukQ++tg+GRVQBtMzDoCVJwBOWgbCR5WP6zjN4aXUwXDMaEFjWjuPZrTB2k+OrfR4wC8ljw5setwqCTUwuZu5JxWgzX6z1T0d4VRs8M2twLKUSUzdE4cv9gbCMKmKQnLzMEyfPlSG6qhW+VR34p2MmvrINhBVLP1xF31K6H3g5RLuL0hDscIgOgdLvTnJoIaojpfnmNDsoBuMkoRgjDWcdJWPMwzHGIhQ6VtEYaxmHcVbkVISq/jKMsYrAo5Z0LYLFHU3OSMjrkWkQxluF4glpGB6XhmOsNJbNLqJxlWMtIzBaSuGpnTQeo6XReNQqWPC4JInHOIswTJCEMRd1oy0jmSs9ao9c7ugPu5wqjDPzwQRpGHTNw6FtEYuxkiiMZrIILjTtNBaPWIYJ8qzi8KhlOB6XROIRq0iMkUQzV3ZjmdcnGUZL4vCoRThzo0f3P8Y8DBPIHaBVKCZYhmKMJA7jpJEYax3O8q9tGYlxFkF4QhqKx6wjMNY6FuNIrpSmhZJO7gc4VZznEL27TKnuDIeo6nT9gJSGFqICBBTu46zo2+80eFzOrDv23STrOGhJEhUD04XPITMXc6wzhSAhOP+gGT9spcHxVmJ8gpsMNG9em74Rr/AURcAjRyXMzZxiGicbZ8m8Pgmel7SkZ6Ch7808zu/OoUHvEYLXKDb3Pp59EoS+N6/cFsm+Qy+hefuUX0Ve6V6kicxapHNieCGs4OCEXOIJsuTMDZ+ulQJ+zBXgrV73bpnWJI8+SzIUbaB3gplD9AGFa9AvcYgOuop7ksBQQ/RWoRQsTTomOCgDQtwX5rXTHPZ7hxGgKbiNI0DRqvDIxLwtkQcnBVjJOxS1x4rTKLtlivmJh7ZFJJ5fE4rp26i3X7CYBegr5ac7n0oWIWvnVcjpnp5JcL7zvoQ8CPkUZQr5vmVd3jovnBNl3HlezLeqtxyiPSllgxWGQ3SwNNsrueoD0dvBOVAwUIbOvfYfkI41WZxy0Oc/2JApZTgOaRX6AXlWeb44RHtV3AY4MIfoACu0b+LUCaLqBAcxL2IVXNyK5/lWtIy5U+a+lbyBiMUhOhBa7LeM3xpE72VtPugch+GtpoO+6IJbov0ugv0QwCHaD+UNXNTfEkQJlqLFKGxZmyhz6Cy0h9553D+A9AU6v7U4HKIDVxZ7L4lDtPc6G4QYvyWI/tYANRzuh0N0EAplj0VyiPZYVYMZkEOUW6P9gTWH6GCWzofJ5hB9mIZUcp1DlEOUQ1QlRW0QEuEQHQSl9l4khyiHKIdo78uNesTgEFWL5yBA9FBqueBFvftTwXcO+u5PQeNxf8ug1rRKwkTLQP7d+SEozxyiQ6D0u5JUfHpZgGjYEDuz4LAdbrCl2VbkgGWiRQAKyqrver34icHVAIfo4Oq3Z9IVELVnliiH6HCD2FDnl0O0Z8VssEJxiA6WZnsjl0N0iL0gDW/rm0O0N4Vt4MNyiA68TnsvkUOUQ7Qf8+05RHtf5AYyBofoQGqzr7J+VeqdNxEcDDNP6cwtXLzQRsr3uR7u+w6Q28EzeNIiCAXlvE20r8Wwr/E4RPuquYGMp4Co7dlSaOgHQ9NcDk0LGV+5Dnr4DsSzb1Y9ahyAvPKqgXwzuaweaIBDtAdKGvwgv7IkvHKr8OamUMzeHou3dsTwleugR+/A2ztiMGt7PD7aFoLy2rrBf115CrdpgEP0NnUM1QFV52/iyo3raL9+Fe3Xr6CDr1wHPXwHxHeGtjdvXBuql3jEpsshqhaPnizRmwCr1hNQb/CV66AX7wC9P4pVqNSoxVs9UjLBIapOT/rXX/HrPdeb+PVXvnId3PsdgPjOqNO7PILywiE6gh42v1WuAa6BgdcAh+jA65RL5BrgGhhBGuAQHUEPm98q1wDXwMBrgEN04HXKJXINcA2MIA1wiI6gh81vlWuAa2DgNcAhOvA65RK5BrgGRpAGOERH0MPmt8o1wDUw8BrgEB14nXKJXANcAyNIAxyiI+hhD9dbTUxMxIcffoiPPvoEn3zymdL6KT744AN8/fXXaG5uHq63x/M9zDXAITrMH+BIyD6H6Eh4ysP3HjlEh++zGzE55xAdMY96WN4oh+iwfGwjK9McoiPreQ+3u+UQHW5PbATml0N0BD70YXTLHKLD6GGN1KxyiI7UJz887ptDdHg8pxGdSw7REf341f7mOUTV/hHxDHKI8ndAnTXAIarOT4fnjWmAQ5S/COqsAQ5RdX46PG9MAxyi/EVQZw1wiKrz0+F5YxrgEOUvgjprgENUnZ8OzxvTAIcofxHUWQMcour8dHjemAY4RPmLoM4a4BBV56fD88Y0wCHKXwR11gCHqDo/HZ43pgEOUf4iqLMGOETV+enwvDENcIjyF0GdNcAhqs5Ph+eNaYBDlL8I6qwBDlF1fjo8b0wDHKL8RVBnDXCIqvPT4XljGuAQ5S+COmuAQ1Sdnw7PG9MAhyh/EdRZAxyi6vx0eN6YBjhE+YugzhrgEFXnp8PzxjTAIcpfBHXWAIeoOj8dnjemgaSkpId+7bOlpYVri2tgSDTAITokaueJPkgD169fx5UrV3Dz5k0WLCEh4aEQbWpqYmFv3LjB4v76668PSoJf4xoYMA1wiA6YKrmggdJAY2MjtmzZCj29JTAzs8DChXr4+ONPlb43f+vb83T+88//CkNDYxgZmWDRIj24ubmBQMwXrgFVaIBDVBVa5mn0WAOiBZmbkwd9fUO8/tobeP/9P90ToJ988hk+/fRzfPzxZ5gz5228/fZ72LNnLzo6OnqcHg/INdBfDXCI9leDPP6gaaC1pR2bN23FBx/8GR9++NF9Qfreu/Pw+edfwM/PHyKEBy1TXDDXwB0a4BC9QyH8UL008MsvV3DksAM++vPH+NOfPrgNpB999Anee28evv3fd0hMSFKvjPPcjBgNcIiOmEc9fG+UrMvAwCB8+eWXeP/9efjss8/w8ccf4+2334axsRGKigqH783xnA97DXCIDvtHOHJu4MyZM/j222/x1ltvYd68eVi7di3EXvmRowV+p+qmAQ5RdXsiPD8P1EBhYSFMTU2xb98+XLx48YFhuAMomwAAIABJREFU+UWuAVVogENUFVrmaQyoBs6fP4+rV68OqEwujGugrxrgEO2r5ni8IdcA74kf8kfAMwCAQ5S/BlwDXANcA/3QAIdoP5THo3INcA1wDXCI8neAa4BrgGugHxrgEO2H8nhUrgGuAa4BDlH+DnANcA1wDfRDAxyi/VAej8o1wDXANcAhyt8BrgGuAa6BfmiAQ7QfyuNRuQa4BrgGOET5OzDgGqDZROKUTNq/dOnSgKdBAgdqsP2FCxdw7dq1QckjF/rb1wCH6G/wGdfV1eHcuXOgbxPV19er/A7lcjkOHjzI0qVPexw4cKBPeWhoaEBubu4D4xKgq6uruz8lohyYQE7XHgRb+pzIli1bkJ+fz6aS3k+WstyH7T8oTw+Ly68PPw1wiA6/Z3bfHNN3iXx8fHD06FGEhobC3d2dwfR+ER4EF4pDAOuLl/iIiAhs3ryZJRsZGYlNmzbdLwsPPB8eHo6NGzc+MExlZSX7HIhoSebk5HTnuays7KGfCiGIWltbs3ulP5zTp0/3ySq9M11XV9c+yXngzfKLaqkBDlG1fCx9y5S/vz8DqDL4lL81RMBob2/vtswIogReOk9LW1tbd8IkQyqVIjY2trtqfvnyZRaXLC0xDn1MTlkmCYiKisL27duZLNrfunVrt1zaaW1tBckSFwIg5ZPWX375RTzN5JCVSAuFET9cR+mJC+WfrEfKT1dXFyQSCaKjo1meqSmhpqbmNph1dnbe1rxA8VatWoWsrCwmQwxP5ymf9L2n5uZmBmZRl3fKoGNKl+6VrN97pUvylPMt3hPdFz2HO6+J98e36q8BDlH1f0Y9yiFBb/fu3aAq8L2WqqoqODs7w8nJiVlnBAZazp49yyxWmUyGI0eOsOvkJYmq4T/88APWrFmDuLg4Bhj6ABxZmfv37we1IxK8XFxcmPVG18S07wdRgmBYWBhsbGxw7NgxVFRUsDwQwOgPgM6FhIR0Z18ZwJmZmfDy8mJ5oXyeOnWq2+IkeeXl5exe5s+fz/yMUp5p2bVrF6uq0z6do/s/ceIECgoK2HURotnZ2eyYZJWUlDCgk75sbW1Zc4SlpSXI2qQmEjp//PjxbhnUfCGmS3qkZc+ePd3XSfdkmVI8qh0QmGlJTU1l5ylfVHuge+IwZaoZVj8cosPqcd0/s0VFRQyCYhVd3FIMsozIMiRQkdVEhdne3p4Jo0Kvr6+PlJQUZnkRiAkKZOEtX76cQYOsJVqpir53714GJbIYKWxgYCCzAKkabGdnx2SSJXgvS5TSIKiRhUfwdnBwYOHpPFWpqQlC2cmyMkQJXgYGBiwefWN+586dzEomAQR6giLd54oVK7rzTNCm44yMDJYOhSFrm4BM9y9agWSJihAlR8/iPlm2ZDET5NavX88s0tLSUiYjPT2d3S/picJQOomJiQy+BOaVK1cyOZQH0lNQUBDoz4kgLrYR0x/V0qVLu3VPOqM/Kb4MLw1wiA6v53Xf3JLXd7Ka7rWQlUbwowJPC1k7VGDJmoyJiWEQEuNRG+ahQ4fY4Y8//tjdsUNgINARIGkh64o6j8QqLskk60uEjjJEt23bxuIQvKmdk6xmqjb//PPPDOrUCfbTTz+xMPQj/gEoQ5RARuHFhfItQpgAR86aaaE8ixCkPBNgCZrKC1mC69atA7Wn0qIM0Q0bNjCLUwxPfxY7duxAWlqaeIptyepWlrF69WrWJEAXxXTz8vJYxx7phQBPC+mJ9EG6J4iSDHERrXTxmG+HhwY4RIfHc3poLsnKIviJAKKtuE9WHFVTxYXAR0AiEBKcxHZHuk4QFTuFCC4igAgMYtshhSNLUoQtHdN1Aid1zpAley+IUicRdTJRVZgsQQI7Wcb0B0CW5Z3LnRAlGIkLWdBiHAIfWeK0kAVIViItZAUqw406ygICAli1maxvqrbT8iCI+vn53XafD5KhnC7Bm/JEVXblfFOeSPfUFEKWKwFaXOh+lf8oxPN8q94a4BBV7+fT49yRdUcWjmhdKUcky4yAJUKVqpV0TNYQWZbKvedUnRQtx2XLlnVbZXdClKwsZcuXOlSorZQ6nQjMIkRJviiPwhM4yCqjcFSdpoWAqAwTMe/KEKUOLhGadJ2OqWmAFoKoaIlSnqmNlRYRogQ+akKgT4pQdZysZYKcGOd+EKU/GZItDhOrra1laRJ8SQZV/UUZyumKlihdKy4uZnGUdU/3SvpS/rOh/CqPamA3wH+GhQY4RIfFY3pwJsUC6uHhweAljnWkgk6gJGgSDMjiIyuU2udEAN45jIiORcuUQEgFnRYCA7WRipYpQYAsVrEdkDqERJkETrFHnkAoyiNIkAVKzQoEOLJCaSGIiqBlJxQ/ylYxVd+VQat8TFVisaOI0iKI0yKCn8aAEtDoz4Lun9pdqaNItF6pPVMEL8ki6FL+CNrUISQu1HZL1rQog3rkRYjemS41K1BHFP1RkHVJeqL8kO7pD4wW+iMQdUPHpHtuiYraHj5bDtHh86wemlOy8Kj6Sb3X1NHj6enZ3ZZH1UqqftM5ui5WZQl4otVICdCxCCtqs6NCTVYnLQQGETZ0rCzz8OHDzOqi8wROUaayBUlAd3R0xMmTJ9lK0KCFQK1sZbKTCjkiXOPj45klKV6jOGITBYFNhCiFU84zWZwEM9IN3TelTdAmK5bGkdKi3I5Kskg3ZIVSpw9Bn9pyaaUOKupFJxnifYkgpnQprqgr5Q4qak8lOaLuyRqmhf4IRD3RMf1pKEOVBeI/aq8BDlG1f0S9zyBZeGQhUfVTedwl9TZTJ5N4jixYOkedJLQvHlP1lfbJ4iKgUG84HVNnEFXDlReycmmokiiTrokyyZqjfVEeXSM5ZClTNZesWTomGeLwKGXZynEpDHUIkUxaCch0TPFphhZZ3bSIeabqOy2UZ0qHFgpDzR2UV+rgEfOsfF8kiyxlkk95JD0SGGml/FAcZRkkk/JA6RIcxXRJ92KeKG3KP+le+ZyoJ5Y5hd7EpgPxHN+qvwY4RNX/GQ1aDqnwiwvt33ksXuvrdqDk3SlH+biveRvIeL3NT2/DD2ReuayB1wCH6MDrlEvkGuAaGEEa4BAdQQ+b3yrXANfAwGuAQ3Tgdcolcg1wDYwgDXCIqtHDFlsoactXroO+vANq9DqPmKxwiKrLo/4VuIkbuI5ruIrrbL2GG+Ar18HD3wF6X+i9uXFb56C6vNq/9XxwiKrBE76pyENXkQzVhyzRYG+JusMSvnId9PgdaLA3Q8XJVehsrVODN3pkZYFDVA2etwjRtjgH1H7ze7R/+3u0fPccWr7lK9fBw9+B5m+fQ+d/nka53kw0Vgou/tTgtR4xWeAQVYNHLbaFdshPoGHhZJzXm4KOxVP5ynXwkHdAeE/aF0/HhQXPodpwNlqrBKcqavBaj5gscIiqwaO+HaJTOUQ5PB8CT/EPdhoIoK1LZqJr4fOoMH4DrVWCNys1eK1HTBY4RNXgUd8NUSokM/jKdfCQd2A6u96uNxMXFz6PaqM30MYhqvISzSGqcpXfneDtEJ2C83ocovxPpCd/ogJEOwiiCzhE7y5ZqjnDIaoaPT8wFQ7RngCDh7n7j4VD9IEFS0UXOURVpOgHJcMhygF5NyB7ohMO0QeVK1Vd4xBVlaYfkA6HaE+AwcPcDVoO0QcUK5Vd4hBVmarvnxCHKAfk3YDsiU44RO9fqlR3hUNUdbq+b0ocoj0BBg9zN2g5RO9bqFR4gUNUhcq+X1IcohyQdwOyJzrhEL1fmVLleQ5RVWr7PmlxiPYEGDzM3aDlEL1PkVLpaQ5Rlar73olxiHJA3g3InuiEQ/TeJUq1ZzlEVavve6bGIdoTYPAwd4OWQ/SeBUrFJzlEVazweyXHIcoBeTcge6ITDtF7lSdVn+MQVbXG75Eeh2hPgMHD3A1aDtF7FCeVn+IQVbnK705Q3SBKnoE69KajU286umhLx4unM49B7NriGWxfLNR3nqNj8RyFue1Y7xYMWRjFcXd4vVtpU/qU7p3psHN3yKH4nXozWJ4pnhhXlEtbcb9DTPMO+WI6Yp6Vj9k+C6907yRHzMedW5U4T+EQvbs0qf4Mh6jqdX5XiuoE0c7FM3B+0XR0LZyKjgVT0LFwKtoWTkGb3hS0LXkR7QQHvRloW3ILJiKg2vQFULUtmQ5aRcCwY/1p6Fg8TTin9yLbMqgpQNSuL8Rpmj8VHYumoHXRNLT+MBmdzBkLuXybhrYlJEMAZKdCBsGN5FP8jkXT0Taf8jsd7QumoV2P4kxHu54gW8wTwZbdA8vvVHTqTeteBWgr8i+CUBG+ozvf9EcgQlsBUj2FPkSYinEHdcsheldhGoITHKJDoPQ7k1QXiBLUyIK7sGAq6vVeQuHyj5C99h/IXfNX1Fi8yWDUtWgGs04ZGLtBKRTmbiiSnMVT0L5oCtoXTGYAbNcXQNWlRyCcgXYGm6noZGB9EZ2LpqDW8DXUnVyJFslclGz6Co22i9GyaCooDrMsFUBlcO4Gm2C5ti6ZhjLTt5G78gtkrv0nstd+gRrLuWhfNB2diwh0d1iiCuh1Lhbkt89/geWh28plVqcAYfpzaNN/EW1LZgp/IounsfsjmcIfhQB3Ar34x3GXFTsoMOUQvbMsDcUxh+hQaP2ONNUFokKVdRoqF7+CquNrcSkvGOczfHEh2wudR5eiff5kXFo4jTmN7tSboqg+UxWa9glGwrZzIVmSU1EtfQctP37A4HR+keDi7wKBkKrdi8jinYquRVPQuWgaLi54AaWm76C9+AwaN/4Nmad+RIf8GGoXTUPXQgozBRRXsEwp/nRcWDQN52nVm4raRVORd8AcF4tj0JXth/M5Hug8ps8gfnHBVJYWWZzt5PB5CcWZztK+OP8FtC1+CfU//RUXjF9heaH80b2QXII8/TnQn0YX+5MR7pPy3cVAPAPtS+i+KY9TWb5UA1DBGhaeGXeFd0eRUukhh6hK1X3vxNQFomTx1etNR9F+M1yuyUSTz1YUb/4vynZ8h6bl76J90WRULJ6BQv3XUKn3Ei7Mp89TzEDZ4hdRtuQlFOm/jIpF09Cx4HmULPojMhxWoDnMBnkLZzK5lXrTUbZ4JjoIoAuno3LRq8hf8hrKFs7ApR+eRYXJu2jLk6Nx41+RceJHtMsOo27BFHTOfx7FS2agcOmrqFk4g1mXDUteROWil1C++BXW9FC5aDoyT/+Mzgx/FG/6BjWbv0bD8vdQqf8iCvVeQ4ney2igJgoG+imoWvwS8vVfRenCGcg0moems/6o//kr1M2fgrbFU1G+5CUU6L+BisUz0blgKrNAy+k+9WagcskfUb30VVTpvYQ2veloXToN5YvpHmd2t8WqBqTcEr13iVLtWQ5R1er7nqmpC0QvLJyMSsNZaMqOwoXQfaiePxn18yejacFUtM5/AaWGr6PKaRXqox3QGrQH7dJ3ULf4RVQ6/oR6j02oCz+IVt/NaLZ8A8WrPkZzXhwu1Wej2mcLyvbpodF9PeoDNqND+iYqlr6Kaud1qI09gpag3ei0nI2ypbPRnitD48a/IOPEKnTEHkLt/CmoNngF1c6r0Bh1BB2ua1Fv+iYKN/wNDV5bUR+wE5clc1D1/RRkuWxCc9QRZH4/HRXfvYD6xTNQd2AxasMOoinCHq37l6B14XRUGbyOqhOrUBtlj/qAbaj2P4BLHU1oO+eOht3/QtHSN1DjtB51MSfRErgbLdbvoGbxTJSfWo0G3+2otFuC3A1fo8VtHS6YvIqaJS+jwnU9Wnb/F22LJgttv6xz7lYn2uBAlUP0ngVKxSc5RFWs8Hslpy4QpSp1OVWpy1Nweec/0fndJEW1eQpq9V5EuddeXCmNR23AbjRlBeFK3DFUmL2P8+XZuFYcg9pAG1xqyEK71zoULfsYLenhuFJxBjWOP6LAax9wqRYXZPaosZyDMtdtuFoei/rAnWjODMVV+XGUWfwJnVnRaNz4BYPo+egDKF7wIqrcdqIrJwz5fjZoKz2DWqcVSHZYCVyuQYf8KM5bvo6qHyYjw2kjzhfHo9hzK+qcV6BR8ibqT5ijPvwAymWeuFaagPoVf0aZ0wZcKolDY9AetHquR6PXdlxqqcIl2RFUbPsape67cKUkHrV++9CcHowrMgeUm72LrtI0XK9NRc3+b5G7/mtcqU1H19qPUGj9CS7X5eDq/2fvPNyiurp//2fce3/vL5EZOhpNNNFojCVWpIhdAaWr2HvsvRtr7BVBeldsgEoHBaT33oY6Q8f65nuftc8cQIyJhTKD+zzPYYZz9tll7bM/s3ZZa5+YB4Xlt0qI0jguDXX0JEg5RP+uPfX2NQ7R3pb436SnUhBdORqKgni82jcZTZbfsO46jRuWLBuBhpIUNLtsR9Y8CZ7vmY8Xxc9QftQCiqxY1J+xRryFPhJ9z6El8jqSrQYj4eY+NIReQIK5AZ67HsXrwmhULh+BYrsfUJ/3FC0u65GzQANJeyzQVpSA8oPmqE982A7R5pDTyLb/CY15z5Ed6gT/o8uQGnsHJeE3EO50AK9yH6Nk1Ug0WEpA3flE5z14I0tC81MPtEVdQv3vvyBj+UjEHbLGw6sHUV+egYo/FqE+LQINHtuRa6mL0kU6SF8+GtWZUajfMw3ZtoNRXxiPJrfNyJovwfPdC/Ci6BnKD1ugPjcezbe2Q2YhQfaykajOikKlxxYk/rkar/PC0bJmBBt6YCsCaJLJjkP0b173fneJQ1QFqlSVIFq0fATkhc/R5LQO1fO/gcJWG60WEhSv+AX1xWloOzgLLXP+g6xV41GXFYGK09aQJz3Am+3jUTRPA4nXd6A57CJyrA2Q6rILbQ9OI8dCh41XNkZcRb25BBXLR0GRH4/WAyZonvc/yFgxBrVpMaj4wxb1iQ86IBp8ClmLh6OxKB2tmQ/QEueCF0k+yHfdiVinfWgIOYfqhdpos9JEkY0+kt32oy7SBRmOP6Ns8fcodxiMco+DeJ3sDXmkG9oqMlF63BaK9Fg0H5oJxbxv0Wr+LYqWjUBtRiTebh/PAK8oSkTLkelonPv/kLlmHORZkZCdskNd0mO07TFCm/k3KLHVR47/CVSnhyI3xg8t946ixpKWZNFSMNIQ6aTZeqW2yGfnVaCl9UwWOER7Rq6fFKuqQLTZWphwyb9/DS8L41CwewYyHIehYMlQZK0ah/rcZ2i+/QeSrL5H8qm1eFMajbIDcyBPicDr3YYoIK3SeReaw68wiKa7HUB9pCviHH5EktchNEVeRa2FJkoWD4M8JxbNd44iyXoQkk6txpuSeJTunYP6JOrOmyDRaTuaQ88iy34YGnKfojDYCY+2zEbsFhM8XTEGCbcOouHxJcis9NHKIKqH524H0PDkCqoWaeOF+QAULh8OhSwT2T7HEHpoJerL0yD7wxLy1EdouH0cqQ7DULJ4CApW/IK6/OeoOTgXmXY/oj4vDs1BR/HchvK2Cm9KYlB2cC7qUqLwcs80NJt/i6pFWsg+shCNdRV42ViOlpPmkFtosrWsnZd61SuXdPEx0U9qEmoVmENUBapLVSBKs/PVNrrI2GyCxvRQvM4PRUOkE5pibkB23h5Z59fjRX446mLd0Zgbjhb/vShYPgr1qaF4tXsKiudrIOP6ZrQ8Po98Kz1kn12JN+VPUXP7GPL8j6Hp0RnULNKFzFofOVe34WVRBOSxt5RxHUT+8p/RmPoAVXumIf3qOrSEnGLx5F75HS8KI1nYhvDzKPpjAZKub0FT6BnIrAzQYqWFUmt9ZLjsQNPjP1Fpo4PWRRooWjEMitRgNKQEoi4hEKhNRfXuqcg45Yi2wmjUJ3iiJeQEyjZNgjzhAV5m+kN2bD6yLvwulDPODU254Wj134/CFSNRnx6CF3unosFCAlrGVbBiNKry0/GmIgWKlT+hfqE26pRGA2y9qLiWtUe0UL7ESQWaLssCh6gK1ISqQJSN4dnpodpWH/kbJ6Lo2gbkue9BscsW1O2ciGK7gcg55YACz32ouLICCsfvUObwHfJP26J+1RDUWOsgb4chZIdnospWD6WrRqLoyjoUX1yBvP2zUH5wOmpojSbNkNt/j7yTi1lcskurIae4Fg9E/mlrVK4ahoJtE1Bx2Ay1drootfsO2acXI9djN4pvbkTZjsnI3D4ZFYemo9bOAM3W+qixHYjcnYYoPTwDtfY0qaOFKoeBKNo/H0Uu21F6ZS3Kzi6GYuVQlFoZIOf0EuR6HkDplZWoWj4MeQcsUOC6FbU7pqDMZjByjy9Bvuc+lF9dDoXjYFTYD2J5U6z5AY1WWmi20kT20pGoSAtH84OjqFqkiXobHZBRAdM6RYDyiSUVaGE9mwUO0Z6V70fFrkoQFcwZ9VBnbYCSRfoostZDuZU26qw0mflnsa0uimwNUEFLeWy0UOegizJrXdTQonQHPVTZ66CK1mPa6aPORh/liwxQaquLKjsdpiHWkuWSjT4arPVRbmOAIhsDyKx0UG+txdZnlpK5J4HcRg+V1srJGVpTaqvHxj2LrPVRYacHWidKYRQOojWSLmT2BpDZCGOSzCzVWh9VymcprcpFuqi3FqyMSmm9p813LG1a/1pJ4az1UGstmIGW2eigyEYPZVROMiO1N0ApGRHY6bKF+LQmtMBlL17XZKJxnyEUC6Xv+wgQQco10Y9qB+oaiENUBWpOtSAqLMkhM0uyBmqx1kazjRYzvVTYkLkmmYYKVkJsvE9p+UPQJPNIwQ5dW3D2YauPJltdNJLVEZmA2tGidTLDFMw4aRKmkVkh6bJF68IkjABgskgixye0mJ0W51M4ZkFkq8vAzayebA2Y+Wi7HT+Dlmi/T4vyybJJgF69aO3ErJb0WL6abaiMZG0klLWZWVDpsIkhyluTMn9kM08mnWSR1GRjgFprLeTtNMXLkgS0+B+EnMpDwGc+BUS7e3H5EV/ipAJNrEezwCHao+L9uMhVDaLvekNSemFitueCzXv7+kel7ThBqNGGYEdQM2gfF2ROQ5jNPC31Ia2STjKbFGavFXYEMMGskk3GMGciAozY+koGbCFN5nxE6Z2JQdO+w4kJpSk4RhGuEcwI9pQO2fpTXPS8MGsupNdh9y5opqwMzHS1c37onvCDQM9SPBSfwkYXpRvHoOqUHaqXD0WdNTk7Idt6AqjgEEVIS+mchGuiH9cQ1DQUh6gKVJyqQbR9UoS5sSOIKkGqtMIRACdoWOJMNF0jz0oUto662AwcApAYfBhwRYB1epbZppP2SYAlRx8EUQG4BDY62XW2bEh4jgBF6QrQUjoBsR0IwctSB0iZG7/2McmOpUb0rAhtthRJmQb7zpYmKe+zZ0WodgCRlZ/St6JxUG0oyDGJvQHTxAVZKT069Rg8RfmK2i63ne/LZswh2pfSV6atchD9jMYvQKkDVAJEBfAQdKgrXm9HHp2U0BPTYKASuvkCSEVoCc5FmJcnCquEoQjOzp8sfhsDwTqoHZqdwC+m1U2f7WVgsBfLLH6KgOuNTw5RFWi+4BBVgVroDxBth2YnUBFsBE1SHyV2wiQNdbPbNV3RLFI5lsi61KTZkVMPBwOU2highhyadIqT4Nn5f/ouaLr6zOMSeXsSgN4bEOvrNDhEVaD5coiqQiX0V4gS4BptdFDpMBAFF9ag0mkTGpYORr214P1JuK+HZmuaeCIIGqBqyUA22SNbOhBF19YzU0xak9lh+UMTTuTPU5zEou/CRBWtDqhcPFBwmMy65cJYrOCPtAPGwuSXEEdXIKvX/xyiqtB+uSaqArXQfyGqhwYrLRSvGIWmwiSguQyNm8ej3lLCtEk2+26ljdpF2syLfdHiHyBz242WtT+hxH4g6hJ80HbRHnXmGu3gJW/1NDtOs/a11tqosdJi3uxbFumgdMkwVLnvQxO57bOUCLP7tDxrkRY7RRDLrYT/5cqlWOoFzs7aL4eoCjRfromqQiX0L4hSw6aJGdIC9VBlrYX8Y4ugKM1AU00xGq+sRK0lLZnSRq2tLnI3TUDqwQXI3DMTzw5aQV6ShvJr65GxcSKSzq1F2cZxyNk2FdWrh6OW/JGuHon8HUYoXzkSWTuMkXpkAUq2TUG1nS4S9ppDIctFucsWlK/8EVU2OsjePAmph81RsMOELUWqdhiEnM3GyNtqjJKNY0Ee8YUJpc5wUpfvHKKq0H65JqoCtdC/IEoAEma3aQ1msa0+cv2OofSJC9LvXEbz40tsMX6NlQ6yds5BY6I/WjKD0JLgjKaYW3jdIsernPsoc96I6khnVB+YibpoF7R6b0WBhSYyL65DQ/gVlO0xQVusE1oy7uFVVjBkpywhC/gDb18342VBKKov2CB912w0JfmhKeMu2nJCUX95OQoW/4S6+Ad4WRgFhfcWVNmQ05COrr56aaUcoirQfLkmqgqV0N8gKkzs6KDZRor8JT9ClhSKDLd9CD27Hq/ywtC65kcU2wyELO4OGp96IX3XDBTsmIq0PQsgL0hC7TkHpG2YiMa8p6jcPxPZXsfx+rkn8h2GoiTcF61BR5DnOATJx2xwZ58j0p6GoDn8Ep5tm4n6snTILy1HxoqRkMXfRUvEdaRsMESO2zG8LYpC0c7paCzLZOkWrBstLKxXjp+qF0CFHyuWZ1u+xKkv2zHXRPtS+sq0+yNEycJIYaWJnK1GaJbloybJF7Lnd/BXSwVe7J2GwsU/ML+lTSctUD1/ABrNJchb+jNqMyLwcutYFJJfz9wENOydhvR98/Gy8BkKj5Abuyi0nLREof1gFFzZgOL7l1CdFY2WsMtIdhwNRU4sXu+egHzr7yDPS0Dr8blQzPoP0tZOgCI7BrITVqjPikLzCQvUzScHykptrtMKAPWBKddEVaD5ck1UFSqhv0FUWLepizIrPWRe2YBXZcmo8diD4lu7oChJwQu/XWwLjsb8BDSdtUXZ/AGoMx+AguU/ozY7Fm1bxyPPbgjk+Ul4s28q8m2HoDI1Fo3JoXibGYKqtb8g45iTSgaNAAAgAElEQVQdWgtjkXtrF4oivdD65CKylv+Chvx4NO+eimyb7yAvSEDLWRuUzfq/SNpmhOaCBFQct4EiNRxt+43RSJ77O60rVR94imO2HKKq0H65JqoCtdDfIEowom2XyW9oxbPbaI5wQomlHtIt9ZDifRxv0gOR5zgC5SEuaE25h5zTy1B2whyF68eiPi8B9V67kbNjOhQFifjvQSOULpAi8851AC/w6sFJFFhqIfP6VjTmxyD6zCqUpD7Gi+jLyHYcgaaSVCj8DyFr4xiUhLmgNSkQKcftkf/4Jt5m3UfhdmPmn7TtkBkUCzU6WVeJYFKnTw5RFWi+XBNVhUrobxClMdEma01ULBuK6ggXNF5ZhgZLKaqtdZkj4+ant6DY8AtyVo9HXcQtNKTeRUvUJcg2jUGl30m2RXP5peWQhV5B264JqLLQQNoRCzRmPETTwZmoNNdA3h4zNDxzQ2OiO1rjPVHnugGFdt+hMugsmjICUHtqHjI2jIU83AmN6Q/QmuALxSEzFC0Ziuon19GyexIz26x14N15VWgD6pwHromqQO31N4iSRRLNeNcsHojcNWMhWzIE9UrnHKWO3yN37a/MbZ7CShs5y39ByobJyF/zK+SLB6Fgxc/IWj8eJcuHo2DlaNQuHsQ8KJUuHYKcVaMhZ3vC66By8SBkrPsVqRvHomDFCJQ7DkWNgx7yVg5H2sZxkC37HrV2Wshd/jMyNkxBETlVXqSJaoeByFv9C+SLvxP2mOdjoirQAtQ7CxyiKlB//Q2i5C9Uzrws6aGePBzZKD0o0fgjTThZ6wgu9ex00ED+O2lveWtt5jKPwteTf1HaH56FUzoxIS9R1lpQMBt8slbSgZxMPG200WglxMNWBdA1a/J1ShZJdF0b9VZaaLCmtalkv0/x6Ag+TUWzU7WcVOKz8yrQdFkWOERVoCa6G6LCEqN3bdTb7dV7ARgEUGbj3sl1nQBV0lCVzkTYhA7lkYBI14Tvwv+0blM4hbIIz9DifXKvJ1wTPhtt9dHM3N2JfkDJf6iwXbHgtITMRAmedAqmnk0EZGavr4T9OzKh7r3YxRc/u4yTsrwrIaYsB+WJ+QV4J64uz3X7PWX++BKnPm3FHKJ9Kn4h8e6HqAAggtM70GKw6qTBfKhRi+HEzw+F+8B1udI1HAGPwMX8iir9cYrwaoejMowITeHz0+DD7O6ZE2dam0qe6Qm6Hf5GBSiKcBQ//97Lk5AvpV2+XYeNf+eZexY/A60Aa/rBIA//AkQ/AN4PyKpzvJ/+nUNUBZovn1hShUroboiKWh05SqYuLHmVJzNLgonoVenTG+zHg60d3nb6qLHXQ61NhxZIEGVa2zvangg25acI74/8FExMyfO9FC02moLbPXqWWU51aLUCoEXwKDXiLnDrDNE6KxouUIbvHI5pzWK8gkd/2luJLLRIzh0/EB8vs8+rD7EsfLF9X7Zjron2pfSVaXc7RJXd1norbVRZSFBpKUWVxQDULNQUxiPbAdZTjZzgTfsuGSB34ziUbp2MOqVjZ6GL3eG0WNDq3s2HCOGP/SRNt85WG9ULpaihVQCWUtS1j50KPxz049FxChq6GH9XgNEPT9WS75C/ewbky4eybUHeDUPw0kWDPY2tCuO75EGqZpEmahdpveeq791n3y3rl93jEFWB5ss1UVWohO6FKAFMG9W2uijYOxPyO2egCL4CRfA5VJ9diiqHQQIU3vPmTo1bGCt8HzbUbf3QKTzT0WUWutLUra5YpIucy+vQ+OAUqshpMnW5yU5dqWEK6bwfb8d9gl1n+CnT6jRMQfs3VdjoIGf3TMjvXUB9yFUo3HehavVPoNl/el7QyCke2quJTmHcVHSR1645KrXXZmspSpcPhzzpLl4cMELDQuk746QNbFsTHebJXrZ0MNN8ZYuHoMJ1D+oPzwR5iSIQf1hmovs+KvvfaLqdtd5//M4hqgrtl2uiKlAL3Q3RZhtNtnNlqtt+vKpMQ+3DK6h/5o//yp6j4fpG1FgSXHSgIBdx5hI0Wmqy/2kmW75ICvlCCeTmAyAnl3XWOmikfZHI/ZzFACgsNNhsOhsmWKiJRgsJW7Rebylls/CkkZF21mKugWJzKVKu70BDhBMqbQzYAnyFlQSKRXRqMqAxTc5SwlzXKSwkqLfSbN+OpMFGi12vo7gttaBYRDtq6qKRtFqKw1oLzTa6KLTWR6LzPryWZaDysTteVCSj3m0zqhdqoonc7FG8FhI0ElRJgyT3eZRv2j/eijak02FlrrP8FgpLTbQslKBo5WjI8xLx6pApGhd8CzmtDGAavB6oDA3WEpQvHQK5zwG8WPcjyhbqQxHhhtbz1mxNbLMV5VkDcpKXtVK+VpposNSAguRrqYH6RVK2WuHztVEOURVovlwTVYVK6F6I0my1Dopt9JHkfgANTy6gyFIDebbfIc/vDF4XJaBx3WiULtRG4RYTVByxgnyrESrt9FG6+meUbJ+Con1zUHrEAhVbJ7ElRQQQWotZsm82ZAfmoGblT6h20Ef51mmo2GGMisPzULnLDLX2gyG300LZkiGo3DkDuYcskH77PBoibqDKRg8VNroo3mGIimPzUbXdEDV236F4zWiUbTVCyZ45kB01h2zdL4KvUDtdFC7/CWX756LskCUq9s1H5bZpaHTQRZ29Psp2TIFiw0i0WGmj0GYgnrkfQEvoWaQuMECK12k0RN1EySJNlCwbieIDC1B5aB5qV49ADW35vHwESvfPg+yIBerWjoLMxgDFWyej/NgCVO6byVz0FS0fCXlOAtr2z0CZ4w+o+H0s29K5xmEQyrZPQa2jAXIPWKCxphjNzutRtH4sMo46oGHZUDRaaqN02c8oPTAHZUctUblhLHMJWL7mZ1RsmYrSfbNQfngBKteMQg0B9rOHVzhEVaH9ck1UBWqhpyCa7L4fjeEXUUPLeywHIHWLEZqLk9G4xxjZ22ejNTUUrYVP8aYgEiVH5iP+whq8KnmK1uxotBYl423ZU7QcmY48+4Eou3sBrwtj8ao4Aa/vn0LRypGoSX6EV0UxaMmNwZvqbLScdUCphSayTq/Gq7IUtBY+w+uGIjRGXEGRlQ5yD85Ha0Yw2vJi8SYvHOWHzJF4aTPelD1Ha04EXlWm4+VTT8iXDUbB4iEovXcJL4uT8CI7HM1Z4XhZGI/W339G3rKfIM+NRtMFO6bxFtroI95tPxofnUWy1RAU3L+CptAzyLYbgqqgi3hd9AyvypLwOuQCSpYNR+mdS2grSsCrvMeovbwcGfsWoCU7HG3FCXhZnoTGG6uQ7zgCDRmxqNk7ExlX1kPx+E9UW2mg1HE4qp/fh2KfMapuX8Sbt6/xtiQKBW47Ufr0Lt7smIxiu+9Q/tAJL0ueo5XSSQlCwe+/IenCerwuSURbZjheVWTiZZwP5Mu/Z5rx52mjHKIq0Hy5JqoKldCTEG0Iv4xKW328XChBzjLBS1LlcXNUR/lA7v8Hnm2agdwIX5Q+PIvom7vwqjActTuNkLvJCHXZUah9cBopxxejOT0Yufvm4/kfK9CSH4eyw/OhyEtEi+8eZK7/DfkxvmgLPYNc26GoTQjBywcnkL1+EsribqMl6hoyHH5ATWwgagKO4OmGacgP90R5yDlEu+zHm+I4yHabIeePJWgtS4Z8x0RkHLHCm7JUNB5fjOrVI5CzYxazi68+b4+kozZ4U5mGxh1T0GouYVp3gsseNOaGo+jhFbwpfY6KPyyQddQBzemPkLNvPuJPrEFzQSLTsJuLElEdcArFq0YhZ9141KY8xsvQC8hdMxrZN3bgbVEMSvcvQH1qGNNMk512oCH6Gps4Knb8GdVZcXix1xBZ6yZAUZKOtjNWyFk5FnWZsWjYY4yMYzZ4U56E+sMWyN40FbUZT1B25ziiru3G64I4VO4yQe4fy9Aiy8bLvaZooOGMz9JGOURVof1yTVQFaqGnIUo26y2WGshYPxmNudEoP74Q9XlJaMuLQn2cDxqLnqMo5BKinXZDEfInFPP+g4oFUqS4HkFR2C3EOR/Em7pcNDz1hTwpBG8qU1Bx1Bzy5Edo2zkJJXP+Fwk3dqLl8VlkkTu6rDi8OmCIsln/g8TrO9ASdgkZS0agvjADLXlxqI/1QXN5IkoiLiPWZR8aw66jxvxb5C/+EdVpkajaZ4S0m9vRFOMJhaU2Xs//D0qsB6Ii3AuVka5IDjiLF3G3UGf/HdoWaaHIVhfxTrvxtjIVjamheFOYjIItk5F0bTte1hWiIc4XdSkheF2dhep9MyDzPo5XhXF4GfIncg5YQF6YhtYj89A46/8gc/loyHOfovJPRzQkP0LVXjMk3diGxvBLqFuogbIlP6AmPQJvdk1Cke1gKHKf4e3OcSiy+g7y9CjU7DFByrWtaIx2Ze79yhYMQJLbARRHXkfUjd1oCL4I+fz/Rf7in1CTE4dXB2ehgcZnOURVoCV+XhY4RD9Pbt36VE9AtNCWxkT3oz70PMrnfotiCx1k3jyIv3KfoGS7KRR5z1Eb5orKc2uhOLMC2duN8cx5P5qiXVFnLkXhfC3k3r2EsnAnxN/ch5dlSSi/vgNVFzdAftIKResnQp4eibe7J6F0vgQpTrvQHHIa2Y4jUZ8Ti5d/miNn9rdI9jiC1ogryFjyM+oL0lD92A1lf65G3bllyN0xHQmue9AUcRm1i6QoXjocNWkRqNw3DWnXf0dbShAq7Qeice7/oGyBJjLObUSTLAeNFWlodVqGWktNtFrroMhGH4mu+9AQ5oy4lZNQ8/whKl234vm1bWgrTUf51e2QXVqNyj/tIV82FDlWg5BxfAXqch6jJOIWanKS0HZ2MWSm/w/pv5uipSgOshO2aEwOZ5poitN2ND11RoX5AGQ5jkJtzlO83TUJpYt/gqLwOV7vHI8Cq+9QlxGL2t0mSL24Aa1JAWxfqML5UuTcvYySsMuIvr4bTcHn2cRS8bIRqM19hpcHZ3KIdmtr6v3IOER7X+bvpdjtELWlyRZ9PPc8iJb8WJRf2Ypqv7N4UfIcjVfXId96CCoeXkPL8zuQXd4K+bk1KNgyBfHX9+EvRR4avI+i3PUQXlUko+bKMqTunInm3EjU+hyD7OJqKE5bomD9eMjzE/BmnyEK50vw3GUvmiMvI8/ue9TEBeB1VihKnPehpSwZzbHOyLEZDNm9q2iK90fZxY2oPb8K+ZunItHzIBrjrrOZ9ALHkagpSETjAVNkbDNGW3kSGoKvoJZWFByYjqwNk1Bflou/GgvRsH0c5Is02Ox8kfVAxLsfRGvYZWRZ6iLn7nnURDghcecctGZHQu53HBUX16LmjANK14xE1bllKLi2HcXx9yB7fAmFgZfwKjMYxdd3ozw6AG8TbqHw9yloKEhC3YEZyD69FP+ty0Kd1yFU3LmCN82VeLPzNxTb/QB5eR5ehp5H7u65qM5NQPOeacjabIQXJc/Qcv80ym4dxKuyRBRcWosYp/1ojLyJuoWaKFw+CtUlGXh9dLYwY8810ffahbpc4BBVgZrqTohSt5DWiVZY6yP9NI1lhqIlNQStqSGov7UHtXaDUGOli8wNkyGP9EBr1mO8SPJDySl7xF/djbbSeDQkBqEtKxwNt48zb0ul1rrIubQZbWkP0ZrxAC8enULF7+NQdfcs2raMRYW5JrJO2kPuvgVlNnooOGiBxoQ7aEsJRkusO2pdN6PSSg+5a8dDHuGKtszHeJEcgIqzNkg9sxgKz61sN86yJcNQef8iWreOR9EibWRf3YbWjHC0pj9E8/VlyLQaiMJnT/Ai3gtVZFpqq8Xs4sttDJBxZinqXTejyEoXOces0Xz3KIqWDUPOxY1ozXiE1ozHaAu5iLIdU1EfdhNtWU/w4pkvZHuMkO44CnWPXNCSE4G257ch3zUFxYt/QFXIDTRv+w0Fy4ejOvQWy3djrC8aopzRtnE4yq31UBZ4Ea2ZD1F2aSXKgs7jBcljoTZyLqxBS3ow2rKfoMl3Hwrtvkf6SQfUuW9hS8vKl/6IyuBraN0xWbkO9XMW4fMxURVovnxiSRUqobshKjj7MGAL6yuWDkGl4xDQovBqW1rwroNGWz3UWetB5jAEFeRCbulA5NkNQuKtA1CEX0eJwxBULxmCalrozUw29VBtMwhVi4dBtnQYKpcORq2DAaoXD0K9jWCjXmv/HWocvmOOR+psdFG5eDBkS3+AbPEg1DgYsIXucms9lC/+DhVLf0Ll0qGoYfcGMY9PtBCefgCqlK7vyItTtc1AVC4eCtmyH1Bub4CMnQtQX5qKxotLIDenBfA6gs26nR5o6VGtA7nN00cd/VAs1Wc/ABV2A1G+dBgqHIehcslg1C3WQ/WSwZAx13mD2Q6gNXa6kNmTLH5AFZXBmpZRGaB8yfeotzOA3FYXFQ7foXLJUMgWf8/KJJiv6qPSfjCTFbn9ozLTdVqDW2mnA9mS7yFb+j3biZTioDzWOAxkYRT2A1Hl8D0UtoM6LeT/VJByiKpC++WaqArUQndClJbKKGypoRow13KNVlposdJEk7UUCmbXLVjrNBFMrbXRZKWDtkVSlFjpItlpJxpCT6NmkQTNiyQMuHJ7oWE3WuugeZEWOxtstAUvTTba7S7lyHKIwpAzDrLUobhpkXmjjSYoPK2FFNNki96ttdBkrYMma32WB3KfRzb/ChstpWcnXTRba6FlkSbT1ArW/wZ5ZhjeZN1FHZlikgmrnS7kDoINO/kHENLRZb4C6ikeWlhPPgOUeW9i7va00WgtRYO1VCg/s6KistFJ9yi/wm6lCltN5lSE2eZT/FQmGy2hbOTgxE6flaFlEZVFcN0n/KhQWZVxWUvQSO797HTRZE1yESy26EeDuf2jcv+jVdI/3ecQVYHmyzVRVaiE7oYoM5tsb5iCuSNZ6pCmJ8wCU+MTTmY/bqOHWjt9VKz7BXWbxzLNq165jbAQnhoymVwSAAR3cu1xKU04RRC0X2fpC/BoT7PdxFG4LjhKUToCUcbDwjLzS7oumITWWuuifMtUND88A8UeU8gXEmgpjvfLI5ZLSFPItxAn5V8stzJ9ViYB3gxqLF26J9r2izJTll9ZJmaq2Z5HwTRViFtZFgrH7lN6SjNXMS2xXpSatyi3z/uk+Ckt7oCkL9sx10T7UvrKtLsdogyQHRpMB1D+/hrdbyCtipwXL9L8oGZE4f4uro8FQNdnhf8/HCdLz0GPaZuVDoNR7jCEOWymvH5smmI4FlcXudA9MU8fui88r4TVO+l2XHv32Y7rndPunJZ4/cs/OURVoPlyTVQVKqH7IfrpkPnyBt1Taeqh3kHwEUp+Q8luvkE5xKC6ee4pWXSNl0NUFdov10RVoBY4RLvC4f3/mcbYPhzw/v2vE6gcoirQfLkmqgqVwCH671CkSaR3x3r//Zn+D1YOUVVov1wTVYFa4BD9dyCKY5f9H4z/LosOGXCIqkDz5ZqoKlQCh+ingIOH5RBVhVbbkQeuiXbIos++cYhyMHaA8VNkwTXRPmu0nRLmEO0kjL76yiH6KeDgYTuAyyHaV222c7ocop2l0Uff2yEadR2VZEXENlnjsOiABZfF38tCCVE7A7RYSVHq+BPkJTl99BZ/vclyiKpA3XdA9BqH6DsL2jk8/x6eneVCINVlpr2lS4ejtiRPBd7orysLHKIqUN/tEI3mEP13aHQGCP8umLmKEB3BIdoH7ZlDtA+E3jVJDlEOw8//8eisiXKIdm1bvfE/h2hvSPlf0ngXojpoUjr/+PyGxaH09ciOQ/RfmleP3+YQ7XER/3sC7RCNvM621m0i923MWQY1EH5yGfzzO0CuB1sXSVC29CfU8THRf29w3RyCQ7SbBfo50YkQVYRfQaX5N2i0HMD24VEslPBPLoN/eQekqLfQROv8/0Wx3WDUFPPZ+c9pg1/yDIfol0ivm54VIVqfdAfFu6dDtmc6KvbO5CeXwUe+A7NRtcsIeYcWoq6ypJveSh7Nx0qAQ/RjJdXD4f7CX3j79gVevZCjjZ9cBp/wDrxsq8Or1mq8alPg7X//28NvKo++qwQ4RLtKpM/+/wv0+r8F8JqfXAaf8A7QOyOeYq+mz17jrzBhDlEVqnRqALwRqFCFqFlWqDfDj96XAIdo78ucp8glwCXQjyTAIdqPKpMXhUuAS6D3JcAh2vsy5ylyCXAJ9CMJcIj2o8rkReES4BLofQlwiPa+zHmKXAJcAv1IAhyi/agyeVG4BLgEel8CHKK9L3OeIpcAl0A/kgCHaD+qTF4ULgEugd6XAIdo78ucp8glwCXQjyTAIdqPKpMXhUuAS6D3JcAh2vsy5ylyCXAJ9CMJcIj2o8rkReES4BLofQlwiPa+zHmKnyiB6Oho/Pbbb5g4cTImT57a6ZyC8ePHY9asWaipqfnEWHlwLoHukQCHaPfIkcfSgxLgEO1B4fKov1gCHKJfLEIeQU9LgEO0pyXM4/8SCXCIfon0+LO9IgEO0V4RM0/kMyXAIfqZguOP9Z4EOER7T9Y8pU+XAIfop8uMP9HLEuAQ7WWB8+Q+SQIcop8kLh64LyTAIdoXUudpfqwEOEQ/VlI8XJ9JgEO0z0TPE/4ICXCIfoSQeJC+lQCHaN/Kn6f+zxLgEP1n+fC7KiABDlEVqASehQ9KgEP0g6LhN1RFAhyiqlITPB9/JwEO0b+TCr+mUhLgEFWp6uCZ6SIBDtEuAuH/qp4EOERVr054jjokwCHaIQv+TUUlwCGqohXDs8UkwCHKXwSVlwCHqMpX0VedQQ7Rr7r61aPwHKLqUU9fay45RL/WmlejcnOIqlFlfYVZ5RD9Citd3YrMIapuNfZ15ZdD9Ouqb7UsLYeoWlbbV5NpDtGvpqrVt6Acoupbd19DzjlEv4ZaVvMycoiqeQX28+xziPbzCu4PxeMQ7Q+12H/LwCHaf+u235QsJibmX3f7rK2t7Tfl5QVRLwlwiKpXfX0VuX3z5g1evnyJ//73v6y8UVFR/wrR6upqFvbt27fs2b/++uurkBUvZN9LgEO07+uA56CLBKqqqnDw4CHY2tpj5crVsLa2xaRJUzrtN9+x9zxdNzQ0wtKly+DouBw2Nrbw8PAAgZgfXAK9IQEO0d6QMk/joyUgapDpaRlwcFiKoT/8iDFjxv0tQCdPnoopUwwxadJUjBgxCqNG/YoTJ06ivr7+o9PjAbkEvlQCHKJfKkH+fI9JoK5WgQP7D2H8+An47beJHwTpr6PHwtDQGAEBgRAh3GOZ4hFzCXSRAIdoF4Hwf1VLAi9evMTlS1cwccIkjBs3/h2QTpw4Gb/+OhbmCywQHRWjWhnnuflqJMAh+tVUtfoWlLTLO3eCYGpqijFjxmLq1KmYNGkSRo0ahWXLHJGTk62+heM5V3sJcIiqfRV+PQWIjY2Fubk5Ro4cibFjx2LHjh0QZ+W/HinwkqqaBDhEVa1GeH7+UQLZ2dlYsWIFTp06hZaWln8My29yCfSGBNoh2tTUhFevXvVGmjwNLgEuAS6BfiOBdoiKJeKzm6Ik+CeXAJcAl8C/S+A9iP77IzwElwCXAJcAl4AoAQ5RURL8k0uAS4BL4DMkwCH6GULjj3AJcAlwCYgS4BAVJcE/uQS4BLgEPkMCHKKfITT+CJcAlwCXgCgBDlFREvyzXQLkAamgoOCz1mG+fv2aOQDpjlUezc3NyMzMRGpqKlJSUpCTk9Pr3plo2Z9CoeA2+e1vB//SVQIcol0lwv9n4LKwsEBERMRHSaOysrIduATfW7dudcua47i4OKxatQqurq64ceMG/Pz80Nra+lF5+pJAZAUlLuSn8ly/fh0vXrz4kij5s/1YAhyi/bhyP7doDx8+xM6dO+Hk5PTBKER/naR57t69GwkJCUxLJO2RwEPOkTsfYvjO18TvH7oXFhaGw4cPi8GYk2Zy1NxVy/3YtChc12fbI1d+oTAHDhx4pzz5+fmfVJ6u+emaBv+/f0mAQ7R/1ecXl4a6r5cuXcLTp09x4cKF93xz5uXlMY3Q3d0d6enpIG1x4cKF2Lt3b7vmevPmTRB46GhoaABB2cvLC8HBwe2aJHXTHz16xGDl4uKCoKAgtLW1vZP/8PBwHD9+/J1rpImSZlpWVsauUz59fX3Zd7K68/HxwZUrV/Ds2bN2YFK8BGTK8927d0Hgp+EB0pjpILCStllUVITnz5/DysoK+/btw5MnT9h9Z2fn9vKQr1IqD6VDn6LGSuV5/PgxEhMTQeHv3LnTXlYWCf/TbyXAIdpvq/bzClZcXIyLFy+y7vi1a9eQlpbWHhGBi2zWCZwEnPLyctDeRuvWrcODBw8YcElT3LBhA4MRPUggJliVlpbi3LlzDFZ0neC3ZMkShISEgMBMEI6MjGxPi77QcML+/ftZGtTFJiAT8Dw9PRnoaQuRP//8k42Z0vXz58+zewRw+k5jqHTQMABp1aQh5+bmsrKFhoZi165d7D49u2nTJiQnJ4NATN8JkDQW+k/lOXv2LEhGdJBMqDz0Q0FpUL5pWxN+9H8JcIj2/zr+pBISBEiToi62v78/3Nzc2p8njY80rK7H1q1bGcjoOkGH/ictlbS2Y8eOobGxkT1SUVGBgwcPsj2QyCPT77//3t5Nvn//PgNj57hpg7ply5bh6tWrDMCkRRLwKL4zZ86wcVLSSumguAnwYloUNiAggIH39OnT72nUpAVTt50OinP79u3tZSC4ij8e1DWn8tD/BPETJ04w0NJzNBb8xx9/tJdn8+bN7eWh+Cnf/Oj/EuAQ7f91/EklpAkc0gpJc6Mu7aFDhxhkKBICCHWDOx8EzS1btiApKYldFiFK3VvS7OgZ8SAgUZyklZLmduTIEfEW69pTup0P0kQJutSFp7FW6pYT8Ogg6M6fP59pxPQ/xUeTUNQtJ3jRWOrt27cZ/Ai4XQ/SRElbpOPvIEp5p0MsT1ZWFvthICB3PuhHQizP0aNH22+RFkp550f/lwCHaP+v448uoVwuZ/SwrPgAACAASURBVGOQGRkZTMsSu9nUdaeDND0a8+t8EBhJoxThKkKHIErxdB7TJAgSaKibTJooAVo8OkNNvEZjoqTpdT0IegRK0lLFcUsaHiAoU7efhhlIM6XxXcrXyZMnu0bBnuucfmdNlPyU0rIqOjqXh9zwdYYoja0SoMXydP5RoKGJzpNi72WAX+g3EuAQ7TdV+eUFIRB1hh7FSJM01MWng7ryNNYozj4TYAhopF3SRA4dInQIXrQsiLQx0uLoEMFCz5Cm1hliH4IoaXpdD5r8ofFVgjTFQfAnkNH3kpKSd4JT9540TrF7TmnTWVhYyIYaCLQ1NTVYuXIl0zTpYYIfrTago3N5aAyW7hFM6aDyUP7E8nCIMrF8dX84RL+6Kv9wgWn2miZhOh80YURwIpgQrKh7Tl1+Gm8Uu7xiGHFGfv369e0aKwGYnqHuN2mVImxpJnvPnj3tSVEcpAF2PghSpG3SzD2lR+OcNPFF3X7SZOkgjZRm9+kQ06BwtG2yqEHTJBGNf1LZKAyN1dIPAU0M0fN0n5Z0idonTXZRmWmCiA4qjwhVKg/90FB+SasW80HloR8T8aDVAF2HJ8R7/LN/SYBDtH/V5xeVhjQs0so6HwROAghBlA7SLqlLT11tmpkXr9H/pN3RQaCsq6tj3+kPXadJos5xy2Sy9nFUCkNdcNIwOx8UnqBFwCL4EdwIogRv6krTQZM7nZczkSZKWi0BsfOSKVpZQKCjCS/xWYIpacS0zz0NXYh5pjISBMUfBYpfLCulSXAmeHYtj/ijIuZLHCdmGeV/+q0EOET7bdXygnEJcAn0hgQ4RHtDyjwNLgEugX4rAQ7Rflu1vGBcAlwCvSEBDtHekHJPp0FLJ/nZ/2XQ0+8Rj/+zJMAh+lliU5GH2HId4O1fwBt+9m8ZqMgrx7PxvgQ4RN+Xifpc+Qto+esttiXdxKKwI7CPOsHPfiWD47CPOg6r6KNYEXYK5XXV6vNufkU55RBV88pW/PUKQ0McMMDtV0i8J/OzP8rA5zdInY2QXpqn5m9r/8w+h6ia1ytBdES4IyS+EyANMOFnf5RBoCF03Wchs1xwL6jmr2y/yz6HqJpXqeKv1xjxZCXTQKX+puh8avqbgp/qKwOpnynYGTANuq6zkVleoOZva//MPoeomtdr3V+vMfzJKkh8JkPqP52f/UkGftMhpTPAiENUhdsph6gKV87HZI1BNIxDtF/+gHCIfkwT6PMwHKJ9XgVflgEO0X6sfXOIflnj6KWnOUR7SdA9lQyHKIdoT71bPN6PkwCH6MfJSWVDcYhyiKrsy/mVZIxDVM0rmkOUQ1TNX2G1zz6HqJpXIYcoh6iav8Jqn30OUTWvQg5RDlE1f4XVPvscompehRyiHKJq/gqrffY5RNW8CjlEOUTV/BVW++xziKp5FXKIcoiq+Sus9tnnEFXzKuQQ5RBV81dY7bPPIarmVcghyiGq5q+w2mefQ1TNq5BDlENUzV9htc8+h6iaVyGHKIeomr/Cap99DlE1r0IOUQ5RNX+F1T77HKJqXoUcohyiav4Kq332OUTVvAo5RDlE1fwVVvvsc4iqeRX2PURpS5IvAdmXPv+5afdVup+QX+5PVC1aJ4eoWlTThzPZZxD1m8m2rtD0N4Gmnxmk/maQsk8lJGjDuH+Fqynb+kII9wGoBdAeSV3B0xGW9pCS+s2C1G+2kIcAM0iUeaHnup6UFnvG3xjSAHpWCPPvee2ah174n0P0wy++Ct3hEFWhyvicrPQZRAlAASbQJBgxoBLICG7GAjzp/nvw6woeU0i8jZTP/X14iY+J8j7tNySGIQAqdzZlm7nNgDRgBqSByk+/GZD609klPXbdjD1L6UoI+gG0hxGdM98P3/X53v6fQ/RzmkSvP8Mh2usi794EexeipHEKMJP4GEPDwxBSBrkZTOOT+EyDhvskSH1E2HWBWGcIBZhCy3cGfvJaDO2AOZD6d9Fc6b7PDAzzcoB2IN2nOOk0g4bXZGi4T8EAN0MlhGdAw2saJL50nzTkDoh21kSlvrMYMLV8zfAjS3cBpP5G0PCYConv30C3c3774juHaPc2lh6KjUO0hwTbW9H2JkSp605dYImHMcb7rsCyxHPQu2PBQCTxMsEEn9VY/vws9O9ZQuLXBYpdIRRgBH2vuXApjcSY6I2Q+Ex5VxMMNIau5xxcLQrFyKj1kPgYQhpowsBrF3UUB5LcsfO5C8aEboD01hwsiTyOcZEUzgRSX2WXXpmmCFJx50w9r/lwKo3Ar2GbMDJgKezij0MncO4H8tz1B0GE+T/8QHQt6+f+zyHaW83oi9LhEP0i8fX9w70HUYKH0I2W3DLG5af+aAYwNXaPsOe980wEpIVDjv9iRNQaAXr+JpD4Ggqnn7Kb7z8dEr9pkPpPgp7bLETLsjElbodyy2cx/DRIA6bCwH0ewmVpGBe7BRLvKZAGToOuxxwk1xUitjEPTxSZ8G9Nw49+S3GrPAxW+aeh4TkFEm8TkKYs8SUwU1qCBs3SDZgEXbc5iJBlYsKTLZgbshcebU8x8L4FJD4TWd5YnlkeaTyWhghMhes+hpD4GbOT/aB8Lhw/9jkO0b5vYB+RAw7RjxCSKgfpPYiS5mUGaaAxtN1m4nZSGOSvX2B7vie+dZ6M4T72yKrMR/XrFvwctZZ1uXXcZ2P07SUYE7QcAwMsGdhoXHOg1zz8HLQY07zX4GlpNiY83cbgp+M2h4UdfXc5tPxnQt9lLsLK0zAuZrMSolMx0G0BYiqzMSliI368bomYugJMCdsCo3ubMeiODXS95mNYwGKMDHTE2KClGMg0zOmQ+phhoIcFfr67DFN8ViG6NAOTIrZhmLc9poZtgdRrOgb7W2CYnzV+veuIYXdtIfU2gyYNDXiaYpi3FcYGrcCwoKUYdNsKmr70o9BVS+1m7ZRDVJWbXnveOETbRaGeX3odorcFiPolP0FmswyedXHQcp8F8+ADCCtJRlxJDkbGbcAA5ynYG3sdyW3FSGougUtdFPTuWkDiaoKLaXeQ8kKGRHkhyloUGB2zCd/emIyt0VfwtK0IT9vK8HuROwa5miO0LAXjYn4XuvuBRhh4awGiZBkwCd8M+wf7EN6YizFBa3Al5yFGPViPuYH78LglH2EN2chuq8H5qhBoB82FxGUGrqTeReqLajyvL0DJCzlG318D8/v7sb3YE5pOZvAqiEB4Qw6eNuUi9kURDOP3YoDbFIz2XIaQyhRWjmcvi3Egzx8a7jQZxSGqnq2me3PNIdq98uz12HodojRW6TYbd/NiEVgZh7D6bIwOWouTzwNxNuMObmc9xahH6zHRfy3iX5bC9tlhGAesweOqTKzNug5Dv3V4+qIIC6MPYcXjkyh+WY/RT9bjt8C1uKdIx5zQvVhy7zDCmrMx9eEm3C2JFyDKuvNG0HObg9TKHMQ0ZSL3TRWCGtMw2mMpHpQlYmzwJiwJOI7El5WYG74Xqx6fQMpLGYY/XoNJfusQ31YMy6j9WPbkBIpeKzD2/josf/AnTlSHQvvabCRU5eG47A4m+q5CYG4cjtWGQHrDFLdyIuFUEwVD37W4U/AMN8pioOFKk1Qcor3+wqtgghyiKlgpn5KlPoHordm4nRcD+8hjCMiLxr4kN9wufYpFEUfgVxCHqaHb4HjvDzjJIiDxnoRvro/D1tBLOJ99D2tun8TVqkeQeE+E9s1ZiCjPxLjgjbC7ewh5bTW4nB8Kj/xIZL2WY/qjnbhT8uwdiOq7zUNCZRr25t6Edeg+uJc/xeEkH9zOi8WvwevgGHQSF0seQcN9AnRvmuFJeTp+e7QZDkFHcL3qCRu/1XIyY8MEE4M3Y9n9MzhWGQy963MRWp6MsbEb8e2N0dgQfB7nZY9hcG0e4qryYZS4B99c+wUrH5zChaIn0HDjmuinvKf9OSyHqJrXbl9AVN91Lh4UxmPMgzXYFXEZ+S+rcEfxDCP8FsOvIAarMi9hedAfcKuOhtTPCN9cG4e9YTdwNuseVvufgFN1JBvj1HGajYgKgugmLLl3FBnN5diX5Ipdac5YmnoOw/2WIrg0CWM6decN3BcgsjIJo2JX4T/nhmPrvYvwzYrF3ZxnGBO8FkuDjuNEyX0WP01cPSpNwfjQjVh8+whuVUdD4j0NOjdmILwsHRNDNmP5/dM4XvkQ+tfnsaGDsQmbMeDWb1gZehZ/VjyC/tV5iK3KgmnSPnxzZTTWPjiDC8WPIPEQViq8txb1YyeNPiYcHxNVi9bJIaoW1fThTPYFRA1c5yGyNA2/PFoNk4BNeAXgRNVdaF03Q2hRIrbnOmOi9xrEvSrB2vRLsHy4B9ENBViSeh5m/puR9qYSy5+dxtboiyh71YzRjzZiAnX5G7PhGH0KJnc2YuyTNRjiYY1IgiybnZ/KJrX03RYgpSof27KcMO/+dtwuj8e51Dt4WPAcY4PXY9ndUzhX+hganoYg2MeV5WBc+GZM8/8dma+rsDzhDLZGX0LZ62aMe7ARqx+cxZ/VjxlEoyqy8duzrfjWaTzWPbqMi1UR0Lw2A96FUfBUPMWCuzsRUpaEy6VhGOBOxga8O//hN/PrucMhquZ13esQDTCGrvtc3Mx/jJ8iVmCQmznuVyRhWsJeDHAyhHNuCNbl38SAG8ZYF3kOT5sLkdhchpNld6EdOAs6HrNwLt0XiS1FCKtLw72qFAwPX4cBN6dgS8Q5JLaWILa+ABebwzA8aCmu5YRgVMQGYVF9gDF03OfgXkE8kptKEN9UCFdFJMbdXsmGCn5+uArz7x3AtlwfaHgZQdd9DlzzIzEqciM0b83B+VQ/JLaUIqw2HUE1yRh+fwUsHxzGtiJv6DjPwc38cIyOWY8BtybCKvQk9hYFYoCzMUwDt+JBbSrCG9KRIi/A+aIQaLjTMqx/WQv7MdrmP4XhmqhatE4OUbWopg9nslchSo3a3wyavjMwyM8SWmRm6WMMA595gv28nxkG+ppDL3ABs0nX8piOof4L8WOgNXT8ZglrLH1NoOs1C0P9bTDEdxEM/CyhGTCHWRtpeZhiqJ8VfvK3xqBAS2j5zsRAX0u23EnoNtO6TVMM8rXEj342GOZvDX3/2ZD6msDA35yF0/GdDV3/eWzhvqavqfA8WUR5m0LXayaG+lthiJ8FDPwWQCtgFrR950I3YB5Ly8DfQiiTnyl0fOZAz9+cLXMa7GGFUYHL8KuzA27GB+Go7A40PCa/b2X1T0D8nHscoh9+8VXoDoeoClXG52SldyFKTkaU60XFNZLMhn0qpAHToEk26Mx23gSa1NUNJE3NEFJ/uk9jiOTsgxa+UzfYSLl4X7CdZ05BmGZHi+PFU7DPbzf5DFAu9vebBomfGK8hpLcpnLiY34TBmq1p9aOF/RS/aB9PYShuSttIsJkPFMKzfAXQQnrKMy2wn86GDzQ8jDHrwR7caUpGcE0KYl4UwSxxPxtb5etEP+eN7X/PcIiqeZ32KkT/VpsiINLZtWsrjheK9/9pIboYlsKI37t+dp4NF+OkNOkU/++chtLOX8yz6GhE/F/8ZOAXnxPTpGeVzkm8TfGjjx2WxJ3Ayqd/wiRsG7SYtyoxrPhsD3xyTVQtWieHqFpU04cz2fcQ7QF4iIBTgU+yu5f6mUDDawo7mQ1/O+h7uOwcoh9+8VXoDoeoClXG52SFQ7SHQSaCXNRk39FcezhtDtHPaRK9/gyHaK+LvHsT5BDtWZC94wFKCTWmnYpw7clPDtHubSw9FBuHaA8Jtrei5RDtWYi+s5hehFpPgrNz3GJ6AUbQdZ2NzPKC3nqteDqfIAEO0U8QlioG5RDtRYh2BlxvfOcQVcUm916eOETfE4l6XeAQ5RBVrze2/+WWQ1TN65RDlENUzV9htc8+h6iaVyGHKIeomr/Cap99DlE1r0IOUQ5RNX+F1T77HKJqXoUcohyiav4Kq332OUTVvAo5RDlE1fwVVvvsc4iqeRVyiHKIqvkrrPbZ5xBV8yrkEOUQVfNXWO2zzyGq5lXIIcohquavsNpnn0NUzauQQ/QjIdqbjkO6y5qJWyypRevkEFWLavpwJjlE/xmimgQif3IG/c/h3rGRV5WwHKIffvFV6A6HqApVxudkRaUgSt7se3rztr8DnJhul7QFcCqdJythqpKw/Lsy0TUO0c9pEr3+DIdor4u8exNUDYgKoKKtOCS+tP3Gx2t9El/akkPc2uPjn2tPI0DYAoTSpe2QJT6UB2NIfIwh9TMVrvmaQNRI25/7hDz22TMcot3bWHooNg7RHhJsb0XblxDVVG4JIqHN63xm4XsPO3zvY9e+j9KHutAMcP7ToOVjhh+9baHrbw4J23KDIEpAFrfeEL+Thivc69AuBa1X09cMwz0cMdZzJcZ6LMMo7yUY7GOFQf420PNYgI3xVzH00RJIfAiyAljbteXOu3V20WI7wCluP/IZgP9SUHOI9lYz+qJ0OES/SHx9/7AqQFQaYAZt19lwyQ3D3dYcDAq2hsTXEFICI4HAn7RFM0gDTaHpPR2/3l0BnfszoeU+Cy6V4ViY9yc0vEgjJTDSVsSkzSq1W7axHYGMtFU6KQxtemcCaaARdDxnw7v4GYJbc+HVmozzikisTr2OY82PMMrfEbEVOZgQvwUa7pMx+s4K6N2d375pnjSANqyjuGn/JmEjPWkgbVCnhDgDK21oR5vZddmz6UsB+THPc4j2fQP7iBxwiH6EkFQ5SF9CVNTWqBs90m8J8uXlqPvrDSbGbmf7ETHtkXbPdJkOrWuzIXUyg8Hl2fAseILxIeshvTITO8KvYGzYOkh8jSDxNIL2DTNoOU2Hhuc0SP1mQNNzLnuermvenM5gy4DHYGoEfbcFiK/Oweq0CxgTvA5j7/+OGXd3wz7xFIa6L0SELA1jY3+H5iUTeOSHYeLDjRjgOlWAp4sJtJxmQOJqAgl1+b3NIHGdDqnLDAH83sbQvDEDmk4zIPXkmqgqt4O+zBuHaF9KvxvS7luICtrlAFdD2IUdw73ip7iX9RRbiz2h4TmVaYra7rOw5tlFXMgPxsH8APyR7Y+Ktlo4Vz7Fgtg/sCnyCr5/sAQDbk3E1DtrcSb3Hs4XhsAy+Ri+dTHGpDubsTPDGceyfHGhMARznx9hG8fR5nG0TbKB23zEVaZjwr11+M/Z0fjfi9Mw7c4WzH12GANvzkVYZSp+i9yGtXHnUPeiAW6V8TB+tgfaztOxOvESzhU9wKY8Jxj4WmKc/xrsSHfG/hxfDA6yx1j/5TiWG4iThfdhmrJfOXYrDjX0AlS5JtoNLaTno+AQ7XkZ92gKqgBRqfMMXEy9iz1JzljqvR9utdHQCZrNNL71EecR1pqLg3ne2Fzoht1ZriholuF0dTDmRx/Ek5o0/BqzEYNdzfGkJgVXqh7jRLYvYl8UwixiP5YHnUQxWnCy7C5cSiIR9boY3z+yh8RnEqSB06DvPgfPK7NwPus+lkWfh2HQdqx8fAFH5CEY6DQP4bI0/Ba1FXbRR1HRUoWzVSEwjNiGLU8uIqg+BYcTXRFRm4mV8Zfh6H8YFWjBmconGObrgKDiaDhXhGFr5i0YJu1hE1biMIOohffoJ4doj7ad7oqcQ7S7JNlH8fQ1RGlSaZCrJWLKMnHsmS/2h9xA5ptq/Bi5EtIbpggrS8WqzEv45tpEaLgawuDaHDwqeY5RT1ZD6+oMxFRl4tfHa2EdfBihjVkY6L0AA85OwYWEO/izMBgbg87BszYBms4z8P01c8RU5mBszO/tENVzm41nsgz4NsXjaO19WD87jXX3z+GPqocwuE4QzcSY2K2QXjTGk6IEjH6yChpXTRBXlotLKQ9heWMbfBIf42zOPaz1O47gxjTo+1hAy3k6nlVmwD3vCX7zXgmJpzjJ1QsaqDheyiHaR63q05LlEP00ealc6D6FaMB0DHA3hmngZuS/rIVPWyoCm5JR+bYVCzJOQ+vGDMSVZ2BC9BZoeE2ANGAq9F3nILTsOYbHrIG28yxEVWVifOhGrAk+h6vlYZB4T8YAl4nYFHIR13LDsCHoIg6X34eGx2Tous1BaEEaxsdsgcRnChsu0Hebh+jKDEyP3AENN0NIr5liY7AI0bmIkGXg12eboek8HY9LkvFzzCo2tppeUYLbzdm41hQF75Z4rIo/j5WBJ3Cy5B40PA0h9TXC1MB1uCULQ9zrMlilnWHLpbgmqnJNoM8zxCHa51XwZRnoU4gGGkPiYoxDkc64I0/CMD97fH9zIZyTg3Gu9hG0rpvhQUkC9uf5QOfmbGh7zsVAtwWIKc/AlLAd0Heaj+iqLIx5shHz7u1BTFshfrm7HAaXZ8EnPwaH84Kw7u4FnJKFQuI9FXpu8/CkKBPjY7ZC4j0F0tvTYOA2F9GyTEx4thVS/ykYcNMIm0LO4VRVCNNEo2QZGPNsC6TOZogtzYBh+HZoXp+B8JI0nErzx5gbDhjjtgTfXZ2DNffO4njpQ2h40qy9ETRvmOHXc9YIjH2Cq7WR0PASZup7tAsvaqH0yTXRL2scvfQ0h2gvCbqnkulbiE6Dttts3K9KwW6ZPzQ8JuHbmxNhF3wMj1GC74PsMf/uXkS0FcGtPgF/1D/CT3eXwq8gBr4vsrEw/jiCq9MwNm4LtG/Ogkv+IwS2ZsJDHo+g1jSMDlqLZY/O4nR1KFvnqeuxAPcr0jAuhjRb0kQNoe8xB49qMzEhfhskfpMxwHka1jw5h2N1ITC4OR8hNZkY+2wzux5YEge/l9kwenYAVncP4HFbHpzrYnBBHokZcfvg8OAEDskeQMPdELp+s3G4NADO1TEIrs/Cqpxr0PCi5Vd8Yqmn3mV1jZdDVF1rTpnvvoWoMbS95sD80RGMeLSKLRuipUKkkVpFnYT+fUtI3E0x9+F+bIq+Dtu4E9C/PR9TAjdgecxFjAtejzkP92LQ/UVM+xvqZYcV0RewMu4yfglZgwFuxhjlvxKTHm2FxH8GtLznY07wXhjcWwQJm503gbbXTMwL2Y9B962Y9ij1NMVov1X4LWwrtD1mY17oIQx8sBASbyNMub0BK2LO4+fw9ZDcmoG59/dibeQVLI29gJGhq/GzzzJMDN0MqY8RDPznsRUH66IuwzLuGHTvzBXS7Kwp9vR3romqRevkEFWLavpwJvsUokrHHhruZA1EXV1atD4dEh8TDHAzVC6enw4NdyNouBiClkJJfU0g8TDGgFuGkHgZQ8ODzDRpuZIZpN4m0Lg1DQNcDIV1ohQXXaPuNd33E+ISwndM8LD0KQ7KDy2K9zYVnqHwneLX8KR0pwqWSwHToeFmxDRUMS/sOQ8jwVmJz3RouEyDhrOQbzIlFaymOtLt8W49h+iHX3wVusMhqkKV8TlZ6WuIMpCwLm6nbi79L1r9kLYWSNZFBEpTYZyPPsWzc7hO1kiaSoul9nBM61M+11UDpLjomggd9qzymniP5UPMF90T80D5Upp2srCdy9Fx70MmrD0KUrE8AUbQdZ2NzPKCz3lF+DM9LAEO0R4WcE9HrxIQ7Qq1vvpfhI74+W/5UGrOogbdo0D8t7z83X2xHByiPd2Mvih+DtEvEl/fP9yzEFVqbH/XwFXxmggd8fNj8tgZpCy8CpVZLAeHaN83tH/IAYfoPwhHHW71GESZizkTSH3NBK9MzDnIP40H/g183ukekwMP0YmH2GUWPyleSkcZv18nJ8rU3ReHApSenESnJkJ8neLwozhMQd6lhLgEG3jSMIXhATEPnZ5Rpknhmbs85miExl+FLn7nPL27RpTiEMsjyoVs8MnmX/z/Cz85RNWhCYJDVC2q6cOZ7F6IdoKC53QMv7MCQ0MdGVwkXqbQuDEdEuaIQ4TTDOYkRJhwIXCJY4jGDFpansLkDPn1lPpT2JkdHpPatT4l2PyUcTJQCvBhk0QuJpA6GULzhikkt4wF00sGKQIdPUvpEjhpvHWG0huT0j8ppceuTYemL903Y7P8HcuUlHFQPJRHOn1nQeo5k01wsRUALJ90n/Ik+j2l9IyFuESQ+plAP3Aefr6/FFoBs7pnKRSH6IdffBW6wyGqQpXxOVnpCYjSovIxXo64VfkUw6PWMWuhEf5LsDPJA2MjtgogY7ATIWrW4e+TzZIbs5n33+6sg13Kn9AJmidM5LS7mROAxrRP5oJOmPAhE1IGPfoMNIWW91ysDj+HI0k+OJTihfUZNzAwlJY3GUPqS8CkGXOlRshA3Vlr7aTZKjVYTTEtBt8OLZFpm94CKMnn6LigFbBJPgudO/MFb08iKDvnj9JlGjLFY8ZkMsLPAT6yWPxCXqn8pn75bD6H6Oc0iV5/hkO010XevQl2O0QDSXs0xNaoKzhb+wSaATOg4WaC9U/OogXAgbI70PAQFp3T2k3ys8m0VE8jfOs0BRMD18H8+R/45spELHh0EBeaI2Hw0JKBT+JlAomXISSetPyJZtOVnud9prElTRoeppCQJkhaa4AxdN3nI7o6B56NCThRdRs7qryZr1LyDcp8j/qbsedo+ZFmgBlbWkV+ScVF8Zq3BbhLvIyEcD50z4g9y8DpS/ATljrRGlKr1NP45upEzA3eg/P14dALMoeGBy3FMmHmrQPclfCnIYYAU1C8dE/DU1jWpXndBOfjA7CpyAUaXpO/XBvlEO3extJDsXGI9pBgeyva7oWo4JxYx3UGPPOjMDv5OKT+E6DlPgMeaY+R3FKCgPrn0L87HxI/Q0h8pjNTzkkBG2DitxmTPVfjZIw3fCueYpzHCkz02wSThzvZuCqtIx3p5Qgz/60Yd3s1pL7Toek9A7/4LsFo/8UwDNzEnCZLfanLT/AzgoHrfESWpWHyoy0M0BIXIwz2ssH4oDXQ8jeDtucCTAhYjYF3LUBrQEd5OcIo4Hf8FLQUmn4zIPE2hbbHXEzyX4dpAVvwo78jRvo6Quf2HEi9zfCdty1+CFiCgTfM8edTH9yrScREz5WY4LMe0x5ug5bnbIzwXYJffCneLRh7TaV3TgAAIABJREFUZ6WwDpWcOXsaY7SXI6bc3oRfA1fhhwB7DHCeBJvQI7gqewwtn9nKpVMdGu8nz/5ziPZWM/qidDhEv0h8ff9w90KUNCwj5iTkviyJeT+S+EzECC87PKnJgGPUKTyqTcevUesg8Z4IrVszsD3eCfdfZsOnLQlODdFIbCxG9n/luCh/jM1Jrthc5MkW1o/3Xg5/RRIetGXjyf9n7zzcojq6P/6H/N7gLougpr7piV3pvYk9iUZj7yX22Ct2ipVedmGBXXov0kFEEEFUlA5qbNFEE5P3+3vO7F5ciSgiu+zF2ee53DZ35syZOx/OnXLmz+v4rvIwhoZOQmxbIVKfVEH9+0Wce3YNzmW72cB9WYIDRsinoLD1MqZm7sb7AdMwIswLX6sXIuP3Osws2ofJ6i1QP7uEUXkrMFoxH1H3S5H4Rw3UT6phVbARpgGO2FwagNQndVA8qcb6ugjIm4sxqmQ1TIKt8H3uIWyqV2KCegUu/tGEhn9+xcl7OVhZdgbLrgfBLMwLiqZCJP9Rjfjfq1H09zW4n9+BIeHWsI5ZjuT7lxH/x2UUPWvB/sYEdp2aPWJvVeDznCWQKu00bcBCh9mb7jlEB76C9UICDtFeKMmYg/QrRKmdj1mAXkjuKMfo0p+Zs2SaZ57z62WMDZyL5NpiLG0KhknIBDgmrMeF35vxff5ufKX+EV9HzsPe3DAEd+Thy7DvsTH7NA7dSoMs0BFRV7NxqiMDXytmY1POSZx7dgNjk5ajsvMqvBvVGBkxB9E1eTjUlgaagSRLsGdem8paryD1cS2C7+Zjz90EfBA/E3sqwlB69xryOmqw+kYITIOcEVGbgdNVCXDyWwZVZQH2NanhrFqDi09b8EP+Xnyqno3xisUo7ryG8efXwSR4IpZkn8DxxnSYnXDB/sIwyG8X4suw2Vid5oNdbSoMDXBHZft17G+Mw6iInxB7ORPenUmQBjoh4loOTrZlYXTYfKivlCCkvZg1GZiHe0LZXIqRRashVZIHfW6JGnP96Q/ZOET7Q4sDGEe/Q1TtgBERk5HUVoqRpSuYxXa4SI6qPzoQ3JiNhj/u4sydXEgCHbE4/TiCOvIgi6b1kWzxXoANFqccws7mOPzHfwJWZRyHd2cyRgRNQlHnJdgVbcCQ8NH4OOg7FHZeg1fuLmS3XMTE4g1478xYrEjxgd/NVDYdU5ZgB3JzV9RagxWXT8MuZx2s8jfCLN4NHwRMQlNHK67/dRcjkmbANNAJ55vqoO68iOPXkpF+9xoONyRjVcpxhN0uhCzKGdJYG7wfOhXFHXUYV74GJiGWWJjhi2NN6TDxtcOKDB8c6kjFeyetsDT5CHa1xsMiyBM5LVUYXbga/zk1FstSDuNIWyrMA1yR3VIBm5IN7PriNB/4teaD2nTfj5yOxPYKjCxawSE6gPXCkElziBpS23pISx8QHR7phdS2CowrWQdpgDOyGs4j6NY5zKvyhX9dAiqeNuMz1Vz8mOQNxe1SDFW4QRJphSGBtliecRwHGlX4v2MTsTKD/HqmYljQJBTeqoFH2U6YBI7GtxELUHKvEZOydyC9tQrjyzYw709LMn3gdyOtC6LvR05BQWsNRqUux39OjIFJkB2GRNhgnHwh6m81o/GvexhfvBamAU4obqmD/40ULCg9gkXn/WGZuAYrM3wQ+2sZzCM9IFFYYUSIFy7cqod90Ub8n88YZnH6tKTjvVMOWJ19EsfaMvB/xydicdIR7G6Nx7AgL2S1VGN06SpmeS/KOIbDrWkwP+uKc23V8KjYjf/zHYu1aafg33oOJqH2sE5cg9T7l/Bp9lzWbswtUT289EYWJYeokRXIm4rTnxBl4zxpBc1ID8Q1FOGnuhOwjF2OmqdtsMpdB5OgMfgocCoq7zVhyoUD+FaxAOWPmrD5Ugi8CrdjlHohliUdRtL9avapvzEvGIduZ0Ia4Ai/6njEPqjElKztOF2TivgnNfgmbj7ybtXBsnQT3guYiKXZvvBrymEQNY23xYjIySjpuIKN9aHwKNgGt5Kd+Eq1AFHNJfC5moiQS2k486gA5pFT4FsZh+iWIsxI2olpmTvxWeJCWMWtQOXvzdhaEwa3gh2wS1qPc001COzMwfT0rWz9pRPtOXjvjD2WZfsi69FVOCdswuqMU9jVkQCLYHfkdlzG2OJVMAmcgCXZfjjakcWgLb+WD8XDSszM2IXitisIbM+HSYA1ZqfuwYnWDLaq6fNxpX38pOdtom9aHQYkPIfogKi9/xLtT4iy5YPVTmz1y/VF/jjRlg6v1B04eScLH6T+ANM4O8gi3XDkigoLG87CJNgOP53zhvpBNaIfXmTe38cqFyHq13LWtrmg6ASW14czKH4U8R1O3MhE8oM6yB+UY1zuGphFeMD3Rjq+yV8BkxBreGbuxLK6EEjlDmz9JHJld6Y+A8n3a6F8UI4Td/Mxq+IYgu8V4qu0RRgXvQhhd0swvvhnfBQ6DadbshD78BJCH5bB89ohDAlxwE953kh4WI3Ih1WYe+kEpqfvYPJGPihF0J18LKsNgSTUCZYJKxH7awWzNH8654d5VwKYr9QjVxPxRd4SmATbYnLGXqy8GoEhYc6wSViDkI5CKG6XoOBWHXza0iE94wL/qkQsbwjWeMfXmTjQJ4uUQ7T/KooeY+IQ1aNyDRF1/0KUBq7TWE0nfBX3I87cyoJDzmYMDXGHLEY7oD7GDcPDJ2NYFA1zcoGpwhUfhc7Ef8O+g7nSg1lgBLQPw2dimHw6LBTTIaMxlTEOGB4yFZ+HzMaIyGnsXBbniuHyqZCx2UxuMFdMhnk0DXDXjMM0Uzrjw9Bp+Cx4Fj4P/p6lM1w+BcPkmjBmUS74KHQKLFTubIzo8JAp+DR4Fj4JmwHzGE/m/1MW6YRPSb7wWTBXTgL5G/0oZDo+CZ3BxqGaR00FDauSKdwZiD+MnIFhimkwV06FLMYTwyOnsuFSFMZcMZVdpxlNn8q/h0PESjj7LoXiQjZ2t8fjs5g5CLhdgK9zlmvGqpJ+eMeSIarBgKbBITqg6n/7xPsfouS6zhmmUc74MnouRsRPY17lhbnkmtk5NOhcOwWSWVt0TD3R5PeTgGmvXRmTBtTTzCGah/58YzOOaKomm20kTKUkSAubdgop+R6NpcHx9ixuGlSvmYpJ00sJUDRNk+aqU3ga+E/haTYTnWumhLJPau08eJYvtQsDuCmLy0U76N8dNFuK+QxlU1c1/0yYfIKbPDZ2lXTjCkmEI5zSNyDicQWzwLOfXoNL6VZYRHnhC9VCmNF005i3BCjBl1uib19BDBADh6gBlKzPJPoVogxqGsfKBCgJzTBSCjDQzFHXzFfXOPTQOPWg8JqhUV1Oi9l0SAGazpDFajYGPQKfFhBdzj0Ea00Ao0onLRY3+SOlNLTWMJOTzrVpM2Bq5aSppSx+rR8AFkZ7zNLRHrOpnzRfX5hqKuRT2JOcNK3U6TnM6BmSIcYJn8R8jxmpezEz4wDGpi1n/1QI4pJoFw3E2TRUIa4+7jlE9Vl1+i1uDtF+U+XARNSvEI1zYRaZ4FCEQa9rnrnGOuuyFtl1uqaZo66xNgkWggWoDc8chAhApb0QRgdyDKy6oBMASWGFZyk+AfA6UGKOQ7QwfEF+bXgGVK2HJvY8Af35810gZwDXXKdrmuvaPAg6YFCja44wVZIXfifW3stWB2VNEJQHskIFHTxPR5PvNzznEB2YSvWGqXKIvqHCjC14f0O0T5WdgbEnQGhBxECpA7ZXPqMbl/C87jVDHr9MZq1MzMolWXTD6P4zeEs5OUSNrbq9VB4O0ZeqRTwXjR+ibwmSXsN2EKbDISqKisghKopi6llIDtFBCE/hHweHaM8vvhHd4RA1osLoiygcohyifXlv+DP9pwEO0f7T5YDExCHKITogLx5PtEsDHKJdqhDnAYcoh6g439zBIzWHqMjLkkOUQ1Tkr7DoxecQFXkRcohyiIr8FRa9+ByiIi9CDlEOUZG/wqIXn0NU5EXIIcohKvJXWPTic4iKvAg5RDlERf4Ki158DlGRFyGHKIeoyF9h0YvPISryIuQQ5RAV+SssevE5REVehO8eRHWdfQxigNLUTz7tUxS1k0NUFMXUs5B6hShVYuakmHxqumk25suTPBW9xFsRC//cXR25x3vuIk/jXk5wM9flgk6YJ/6vPbnDI2C6Qar1fM9kiHPTuKmL/Xd8unG/Pn6NnCycILeOb1Fdufvfs1Uv4c8h2vOLb0R3OESNqDD6Ioo+IcqcKZNTYjV5n9c6J2Z+N7Wu4LqDTwsjDcwoDD2nAaHgsFkXdK+Fk+Djk+3JebIW3AwudK5jrb3suLt83c8pXoKxVm7ybq8BNaUj+D7tJfC6x90f50KeVA6wCPdEbWtDX14R/oyeNcAhqmcF6zt6fUL0OUi0S34o7TTQYQ6ICY4vAoZZdSoNlMjrvTTGDlLBaTKzKl8M3/35f5/TevG2kCpttJtmKRCN0+PXAFQLxn/HqSOD1pplMGZ5ee4MWrNUiE7Ybnl9Zbz9FZZDVN/Vp1/i5xDtFzUOXCR6hygt1RHjic9i5+HzxDlsqQ8NxMibfDfIxLpAGk3rITnBLMYN36rnY0T8d11OixlktV7jheN/xSHESdCNccZX6jmwTFwGy6RlGJm8CEPVU9h1GVmlAmR62gtxvWYvY0t+OLLF5cgqfT/2B3yRtBBmKvcu2XuU8zVxv9VzQr64JTpwFawXKXOI9kJJxhxEfxDVtnuqHTA0YgpUV/NR+tcNfJLxA1u4TgNB4bOeFo5zgkzpjNHZi2CR4YWhcleoO0sx9/opzUJ3BKruS32wT33Ns5p7QnxkETrCInwq0hsrUP17M4ofXIXiUTk+OTePWbi0+qbGgnSEKa3hxGBGC9XRZzgtpKcFPLOAKV7tdZamYEVr01M64f34afg6bxGGhNpiesY+RPxehhGpMzSL5LHF6rovU0IykuzaPYu32z+VtwUsh6gxV70u2ThEu1QhzgO9QlTlCqnSDqPjFqPhTjPu/fMU9qXb2Kc1A0i0A0zDHCGLIAvUEcNDPKBozsHo4pWQhjtgQdFhfFMwH6YqO2ahyiJp3XpnSOUa8LEVN6McIVM4wUzuollvnrWjurJ150dETkFJWy3mnz+MMQkLMDp9OczjpzJYS2OcIVU6QhbtALIkZTHOkMkdQEsk00qlUqVmRVBplANkEc4wU7hBpvSAqYIsaAIfrWhKC/E5Qhpii3mZ3jjQngRpkB1GJSzB9Av72KqdLJ4IB8jkLpDJHSGNttNY4FEuMJU7QianeBw1K4gKbbhvC0/heQ5RUVRKDlFRFFPPQuoPorQ8MC3GZosFWYehunkesTWF2HRTCYncBqb0iRniiT1loVC2luJUSybOXEvG3T9+Q/yDasw9fwxbSoPxae5sDAmfAI+k9QhvzoOyvRTLq09hSIgt7BJ+xr76aJy+ngxVeynmXzjStWqmqcoeH8gnI7f1Ir7JXgiT4K8xJMwSX6oWwP9mIr5MnYev5HPg25SMUYVrYBE8Cd7Vcqjbi+F9U4UPU2dhSLgtnFWrIb+ZA0VHGZZfOI1tFeH4lCzOCGs4Ja/HD6WHMVG5COV3rqPh6T0cb4jH7NyDmF52EBK5E4aHTcP+KgVi288jqC0HX2bOhzTcHlvLg+FbH4fIthz4Nyfj86z5GpAKAOyPPYdozy++Ed3hEDWiwuiLKHqFaJwdZMFOCLiUjpVVYZgRtR3y28UYGj8JUrkNNhWfQf7jBnhfUmJTTSi2lgWj8cEt+LalYUrubhR01GNM0Wr8N2omch/U43RbJgNS8R/N8CrYg6XqI2jAbzh6XYXw+iyU/dWIz3Lmai1dBwyL8EJZ62WcbUzH1spgzL/oh8+j5yCluQLBTZk4XRGP6N8rMCJqJn4uOImoe+exvTgY536tx/LrIfgiYi6y79QgrDUbG2tDMe+cNyo6r2Ni+SaYBE7EqqwTONGYia9Cf4SqoRgljxuwpsgf2/PCcLA1FdIge2wuD0He0xvYUylHQnMFzv6Wjw/l03C+tR6pf1zCnoshuPSgCZvblJBEkZUqNBX0w6c9h2hfqoTBn+EQNbjK+zdBfUJUGmuPjyOno7yjHt61CfAuluPKs1v4LG8hZCEOKOm4gp8un4BJyERIoqxgHuCBzMZKfFOwFLJAF+S112JM5krMTt+LxIfVMFe74b3TljhSroLvjUysjPdDYGces2zfD/RCQXMNJpSug1RpzT7nLSLdUdpai6Rb5Qi8loId16NgET8FVrEr0HivHQ1//YqR55ZBGmiPgqZqHKlPxjT1bqjqiuB/MxMLk48i/VE9hqm8IIkaj2Ghk1DYUY/xZetgEjQRSzJ9caw5Df/xs8aStKPwbk/G//lNwJLkIzjQmghzlocafF9zBCbBIzEqcgGKHjTALm0dUhrPw758G/7jPxpbs07idHs2pAqhfbcfAEqWLIdo/1YWPcXGIaonxRoqWr1BVOUMicIWbknrcePpbaTfu4Ss25VofnYf068cw9BgV5y/fR2WBZsYoEzjrTA83AtZzRfwdekyyEJdkNVxCWPTV2Np2jEEtOVCGm2FIWE2WJt5EqeuZmNFgh/2tiRAqrSERbgrMq6XayAaYw3TeDsMV3gho7US484thiRyLGt3lcbYY3iAJ+o6b+LKP7/ig/TvYBpkg4sttSi9dxOqzguIe1CJpedPY3XKCZzqOMfyYaq2xPBILxR3XsGYklV4L2AMFicfhU9TJkxO2WJFlh/23UrBe2etsCTlKPa0JmJYkCcK2mowvmg1pMoxGBE8GVnNVXDJ2gzlzSKMLlkDk+DxWJp5BKdaMiCVc4ga6r03pnQ4RI2pNPogi94gSgPsw+2Y9am8dx4fxs7E8OBJOHM+AafuZGNooAuSWyuwqzEOIyK9MEzliRHhXihsqYZTyS8YHjoJ5zouY3TOSkxK2oSKp80Yk7kUHwRNRfzNcuyuU2J5wlEcos/maFsMC3VHzrUqWJZs6LJER8inIK/1ElyLNsAiygXDVVMwNNwd20uCkdlZhZLb17CmMQzSMw6Iv1GIHZeU+CxsNj6LnQPzyBn4MXU/iv9qgmXGMlhEueOTiJm4cKse8+tOYFiQO05dSMaJ1nN477QNVub4IPB2PizOTMLy5GPY05YEWaAXEm9WYG+LGuaBHpiTsAcFf16HZdJKJNwsw5gyguhErMr2x5nWXE2HGevJ55ZoH15l0T7CISraotMIrjeIsrGJHshpq8GONhVrpxwSboW5yXtR9ncLPk35CY7qn1H623UU3L2K0HtF+CxxLmKvnUPhX22YV+6DjNYLrE3ULMQZQXVpKPmjEXl366H6rQqfxc3DwvRjONyewXruzcM8kNFYjYklmzRtomp7WER6orytDhce30Ba50UoO8swr/AgSp80YEbxPsxN2o3CZw34On0ZnOM3oODxTWTerYP6YSUm1x7BsNDJCKpPQ9UfzUh/WIdVF8/iaKkcl//pRNLdC6j8sxWHmlLwXoAVpqftwPV/HuDkjUxsyg3G3pZkmAQ7wiNhO84/bEHhnauoeNyEpdfOwiLYEynNlRhbvhomQROwLNcfJzryuCUq8rrUV/E5RPuqOSN5Tm8QjXOGWbQ7XNI34PO0+ZDGOsI0xgEfxX4H97xfMDxpOiRhDnBKWov5hYcwpWAHhqm9MEa9CN8V7cOotKWwTV2F4clT2SD2T8K/ww95ezCn6CC+TlkISaQtPlP9hJEZKzTjPKPdYJu6FiOSp2umi7Jxp65wTVmHn/IPYE7hAcw4twdjUpfCKW89hqo8YBE1GR45m/FJ1jxIw53gmroB8wqPsPS/yF4IicIBn0RMx+xz+zC36DAbIvVh5EzMzNuNHwr2wiljHb5NXwJpjBPeV36Hqbk74Ja3Hd/GL8a3GUthGu0MaZgzHBPXYH7RIUw6t5UNezKVOzFZhydPgzTaAZ+rfsKYjJVsEoBmvj+3RI2kehhEDA5Rg6hZf4noD6IEAmdIoqy1s5DIYQcNmHeERGGlGdSucoI02hoShSUkUTZsDrpUaQ+JfKJmyiebJuoEWTw958zaRKkDiqZxaqaF0rhLmuGkgY5UaQXTOHut4xFn0Fx2abQNJAqSwVojS4wDS0szyJ3Gp1prAB/vBGkMTQ+lsJagaZtmbC68A4tDqrRl1+g5aj6QRNF0UltIYx2YfNJYTVokP10jOLJ59BQ+xoZ1nJEuKB8ytYsmnRgnNkaVICxVOnTlQ8jPW+95x5L+Kk4/xswh2o/KHIio9ApRGjzOZvxoLSs6V+tcE5yTqBxBDkZo1pAwc0jGZvNop2aycM4wVevM7hGciXSNp6T7FI+2c4al68riZc5L2Myg7hYeDcqnOLUyqZ1gGk8OUzRAExyLsDjjKZwG5s/TEJyM0HWKS5se6xmnazTt0wUylrYw60nQhSPzUKXJL12j8N3le8tzDtGBqFJvnCaH6BurzLge0CtE+xsKPL43Ay2HqHFVth6k4RDtQTFiucwh+pbWnjGDnUNUFNWQQ1QUxdSzkByiHKI9vx38jiE0wCFqCC3rMQ0OUQ5RPb5ePOpeaIBDtBdKMuYgHKIcosb8fr4LsnGIiryUOUQ5REX+CotefA5RkRchhyiHqMhfYdGLzyEq8iLkEOUQFfkrLHrxOURFXoQcohyiIn+FRS8+h6jIi5BDlENU5K+w6MXnEBV5EXKIcoiK/BUWvfgcoiIvQg5RDlGRv8KiF59DVORFyCHKISryV1j04nOIirwIOUQ5REX+CotefA5RkRchh2gvIdrfa8IbwnEJd0AiitrJISqKYupZSA7R10CUQCRGgBKkOUR7fvGN6A6HqBEVRl9E4RDtGaLMSTSBSACSIazH/kyDQ7QvVcLgz3CIGlzl/Zug8UBU8Ezv2AvHw+QlXgs38mQfp3MuXO/tnnnbd9R6xae0hfg0e1qKhNaH6vJy39t4jSEch2j/VhY9xcYhqifFGiragYWoAD9XyGLdYBrmBmk4fYZql+zoAUTSWAKcI2QxrpCFuUIaRfEIy2vQsRCvzjH7JNe9rvlMJziahXlgaLA7hga5YWiIG8wiXSGNdIFZlDss09ZgeNI0mNI6SJQuydYll+6xYNF2v0bn3a8JYfW85xA1VDV6q3Q4RN9KfQP/8EBCVMZgSDAjcHlibdFZbL8Wg2HJUzWLx3VBgNYuctOszxTrgmExUyBLcMRQhSd+uRQChwvbIYnWgorWWaKNgU57ja1xpF17iV3XHqsdMTTKHTvKFTjVkIVjN1Ow7XoMphV7Y2FDML5Q/oSMlmqMK/2ZLXY3LHoKzNRuz9eNYms6aRbEM6X1mShuWkOKNjpm6WrWfaJF857DV8/wZHnkbaIDX7t6JwGHaO/0ZLShBhSiWguNPpc/ks9E7a9NuI1/8FXecrbCJrMuY50hlTtCEuqEIRH2kAU6Y3dVGD7LmAtpgCsCr6bBs3ovW11TqnSEJNwWknAb7Sqg7pBGu0ES6QBpmB2GRNAKnRqosYXw1A4YFjkF5XcacOJ2BlZeD8aCmgD8VOiDnR0qfKX8EQWtlxlEh5y1xs7KcHyRtgASuQ3rbJLI7SEJswPtTVWObOlkicIRErlmoTvKlyTcHkPC7bTWsoHgySFqtPXtZYJxiL5MKyK6NpAQZZBUObM15D0ytqCsvQ7VnU2Yd+U0JApbMOsuygkT41fixwxvTM7YhR9S96DubiM2XgzHaNUKzInfiw/jf2BLGH8YNR3fp+3FrMwD+CJtHoZEOOIz5QI4pP6M6anb8EP2fnyePl+z9DEBXOWIEeFTUdxRA8v0lfjPybF475QTxkcvh13mOnwQ4oW8jksYV7gBLnFrcfVeC7ZclOPzlHmQRtjDKn4VZmXvg3X2Wsii3fGJcjYc0jbAPWMbLNRTMVw+BdPTduO7zH34Kmux9rPegJ/2XZa8AyzCPVHb2iCiN/PdEZVDVORlPeAQVTsxK3PX+XAcrYvDlrRT8O/IYG2PEoUdnBLWIfXhZSh/q8Cp3woQcCcXnX/eQ9yfNVhw6QRiWkswsmg1TIOccPpKPJL+rIX6YSXUv1/A56qFmJ28H1XoQPSj88j5/Qbkj8owPHkapDEEaXuMiPTC+Y5aLMv3x7fyhfgodDbm5hzFlk41RgRNRm57NSbkb8Cm2iDcf/YICX/WYmqVN1zjfobq0UVE3ytF1tM6uOVux3fqHaj+pw1Rv1/CVwmLcOBiOGIfX0DQbyWY1nAM0hiyUDlERV5l+l18DtF+V6lhIxxQiNLa8SoXmId4Ia2hHBvOncG8yJ0o+r0BH+XOgTTIHqrrRTjalID3w6bg/ejp+CZsNgpbq+FQsAkfhExDUWctRueuhFvSJlQ8aYJVykp8emYq4htKsPNaHFbGH0fB45v4JnY+7BUrceF+E0YVroJUaQlTtR2GRXiioq0WuX/eQNjvFVhcdRYrU/1wsDMdIwImI6/9MsYVbcAHZ71Q1FwFp4JNGBrkgdSGCpy8mAz7w/MRXZyOI1cSsTzWG5f+bMOE1DWwCPHElbs3cbwiBp8H/gAzpadhAUqf9NwSNWxl6mNqHKJ9VJyxPDagEI1zhSTKCeNiluLaow4kPLiM5LvV6MQT2JzfBrNAN5S01MK2eBMkiokwjbPF8LBJyGquwFeFy2EW7IGCzjqMz1yNZek+CGw7B2m0LUxCrPBz5imcuZqDNYkncLA1DUPCrWER6oHMG1UYX7QONHTJVO2A4RFeKOq4jAUXjuLzpLn4RP49Vqf54kBnKt4PJIjWYnTpepgGOSOr6QK+KVwK02BXXGprQsKDKzjTmYf0R7XYeVmBJXEH4d+aDonCHqZyR2wuPoWsx3UIvHMOo/MI3Jq2UoN1MHGIGks1e6UcHKKvVI/x3xxQiNKnfJg9lqcfRtGjBkwv2o+pGduR23wJO9rjIDvrgvy2Gsy+eBzvBUzEkHBbjAjzQn4Lq0XzAAAgAElEQVRLNb7NXgGzs+4o7KzFuMw1+CntIFIeXIKF0gMm/hPhUxEP34ZMrEr0x8H2DNZmOixiMrJv1mJ80QZNx5XaASMiJqOg/TImFq2DJMoSJgG2WJPui0NkiQZ6Ib+9BmPK1kEW4oaCpksYlb0M0jNOuNDWgMO1argmboBH2kZ8FTELy5KOw7spBRIFwdIBQ87YwTl0OfKvVeN4ZyYkUdQBpe3FFzp/9LnnEDX+CgiAQ1QUxdSzkAMLUQeYhbtBfaMYRzvTMSTUCv85OQGrM/2Q8lc93o+age0lIch8fBVrqgLxY40/Po2bg9yWS9jfmgq7tA0oulOPcUXr8Zl8Ns7dq4N3YyI2lAei8HEDphV5Y1m6H3xu50CqtINF5BTktNZhfPFGSKJsYBpvi+GRk1B8px5W5ZtgGmeDISEOWJN9Akd/zcH7gVNQcKceY8s3QBLsjLw2TbrfpizH/pIIJN2rxoriE1hcfgJjEpdgSepxHG7PhCTSHmZKV/xQdgirCk4g/koJ9rUkQBLl8Hx4lD7hKcTNIdrzi29EdzhEjagw+iLKQEPUXO6F3VVKuJ3fDWmsA7PWJiashPeNZHycNgfmYZOxsyoaoU1F2NUSj4+SZ2Fh3lH4teRhUvEebDkfis9zFmFImB3cUjbjVGMuTrfk4cdqH0jD3OGcvAU/VvlCGuuMoVHTsPl8GD7NWqjp5FE7wlwxCdsqI/B5DvWe20Ea4Qi35F/w/SVfWIR7YWulAp/lLoAk0g5L84/jZHMubM/vxLDQadhepcCZxjwcas2Cfek22KnX44cLxyFV2OH9uKnYWReFM0252N+cgK+yF/HP+b68oO/AMxyiIi/kAYVonDNkMW6QhbpDqqDPXM2AdJnCBbJgN9YxQvAzDXKDxVlPmIW4amYMhbnBLMgdMrkrZKGuMI2h4Uo0y8gZ5gGeGBrgwcaGmsa6wkzhDtNIzYB+0xj35+HJWlO5aGY9URxKzSwpmgVlJneHqVx7L8yDzVZiTkhCXWAW5AZTpSuksS6QBbrC/LQHzAIpvCYtGT0X5wKzGFcMDXTH0LMeMA11glRJn/J8nKjIq4texOcQ1YtaDRfpwEJUCxWa7UOze4TPTzaGk6ZYClNAaYC8ZpB810wg4RlhphAbOqQZ+8nCdp3TNRpWpN26t0kS2IRrQvpd4XXuEXTVNL+fYK8TF8kVR5s2HfasBtBdMgvXhM9sQ+278sPHiRquRr15Shyib64zo3rCKCAqQEWo9No986Ik3DPEvlv6r+1FZwAWgGlgK7M3+hDyo+IQNapK100YDtFuChHbqTFD9LUQ6w1I3iSMAB1h/7pnXwdR3fuvi0sf94V8cIgadbXkEDXq4nm9cHqHqMqZzSmnNkRhmqfm8/ollptQ6YU9A4vwOf6S8L0GD8VBFmP3uLrNHqL2VyFtJm/3NN/UiUi3+F8qr07zwEvvd5fhDc6FvHCIvr4iDGAIDtEBVH5/JK1XiFIlljvAIm4ShiZ4gTp6JFHOkMgdNbCiNkbWHimAhDplBG9LdM2dgU8abaedMukKjTck6mDSzHbqslYJktQxRdcJRuzcReNiL9qNdTpJIx0gkdtBEk1trRROGHKk9cTE2jopXYpLAKBOnLFumvQFC1NoG2VxUXyUH2q7pXw4Q8baSjVyUdOEpuPMXbt3gim58otyh4w6wKiDTUn36FltXG8LVQ7R/qgieo+DQ1TvKtZvAnqDqNoZ0nAnfJ+2GwuvnoJZvAek0U4YpVyMsQnLtS7ltB0yDH4EGW0Hk9qRjeuUxrjBTOmOMepF+DDxu+e+PMn3KG0qLTAZdOjYTbtRXARS6hV3xcfy2XBWr8ck1Wa4JWzCf5MWM3BpLFNNuOfWsWC1Omk6kigdilcX9lpAEwSZHJQ+k8WZDdFifkfJ6u0CuiZOzT8AAqUbTOMdYR7pju0X5fgqZSlmFR7CzIpDbIyp5p+BNg9vA1IOUf1Wnn6KnUO0nxQ5UNHoDaIqRwwP9UJSSylm1/qwGULk7Di+qRBlfzfhk8wfNVMv41wgjXWFVEkw0/bAK5xgl74Ww9NnQBbhjPBbhfjhph9zb0eAIkceUuYkmaw9jeXIrpN/UqEnnKCmdsKQMAf8kLQH+c+aoPqjGjFPajCz0V9j2dLQKAKdFoAUpwasBFDaSCYtsFk6ds+tVwIpQTTGHaaUbrwdzKJc4JS+DiPSZkAaQ0OaPLQWLVm8lDeCKVm4FN4WFiHOyG26hPG56+GZ8Ati75Xh/eSZbLxsF4A5RAeqahgsXQ5Rg6laPwnpBaLk3i7KHk7J6xDbWYQPk76HRGGFMarFqP/1Ju49ewTXsl1an6EukCqdYRbqhveDpsI8eAo+PT0dSU0lcMzdDNlZVyxOPYSvMpcwcJpGOGFYoAeGB3tBqiCQOWNotAeGRrpgeNAkDA/zgqmCPrvdIUtwhiTYHiuTjiGsoxBfx83Dlyk/4YPEGbAInwTTcGeYRrvDLGwKzCOmMihKFc4s7mGhU5gvUmmcG6TRzjALc2PTQIcFe8E8cjLMoryYRUmW8tBwci7iiM8CZyK9uQKuOVshCXVk8ZmHTsKI4MmQyckzvsbylkW4wDzUEx/6T0JGQwXGlqzH0KBJyGypwsTC9RrnKMwCFiztPlql3BLVT6Xp51g5RPtZoYaOTi8QVTszR8QLcg7iQKOKOTEmZ8mLsg8h+kY+oqsysLM5ls0CIo/0I0KmY9vlcIR2FsG3MxunWtLQ/vQeYh5cwuyLfthYHoJPMhfAJMQeU1O3IqgjH2G3y7DiahCkIa5wSPgZBxvjcKI5DWF3irGo7jRksZ7MwYgkxB6rUn1w/Hoy3jtuh/cCrCEJcsLKipNYdS0AZoEe2FweghU3IyGL8IR7xhacvZWDkDvFmH7xCCQKF4wIm4ZtdZEIv1UM37Z0LCo+gR8q/Rn8h0Z6YlNVOD7LWoINF4Nw76+nSLhfh0mVBzAiaAq210ch7E4h9rep8VH6HEhD7LGs2BeBncUIvpmDqnutGFW4BkNC7BFwMQOLGs5qmjK6mij6CFCyYDlEDV2d+pQeh2if1GY8D+kLopIQByxPP4rtzUpIoqxgFuyMiJpMbCoPxeywXxD3azksEryYA5J95dHIeHwdSytPYk7VUSwuOYbae83Y2hQDh6yNyOqswbf5q/B19AJUPmrB/huJWFt6FiWPGjGz6AAWx+3HNdzDprpwHK2Jw8Vnrfgil6Z2WrG58MuTjqLgYQP2XIzFL3UxGJf7M7ySf0HV3+3YXhmK/EfX4X5+H76RL0DB7RpsLw/F4WI5Mn+rxafx87C9KBR5v9/E0gunML/oCHYWy3GoLYs1LwwL9UBWcw3GF6+He9pGNDy8hR3NMRiXthx7C0MQ3V6O1alHkdN8CSuvh2Ok4idU/NGMvddi4F8Ti5ZnjzCqaBVMgiZgRbofdt1O1nR8Cc0S/HPeeCqLniThENWTYg0VrT4hujTtGLa0xDJL9OPIaajsuI6TNRnwK1Gh/tldfJ63AGYhjijrrMe86hMwCbLCkHAbDD3pgqzGCozMXQrTM87IbbuMkemrMDfrMFIe1sFCORkmJ6xxqDgavlfTsFp1FGfbsplz5w9OTUVxcw0mlq6FNHYihoQ6YFn8EZz7vQE7bkbhl+ZoWJZvgizIFQEliXiAf7D1uhLvnbHFwqyjqH7QiNWpx7E52R8Vj5phm/kLkhsrMLfaByZBE2HiZ4OVyX441JqhcWpCEL1ejbGl62B62h45LZUYnb8c0rM2zFP/6UvZWKD0hvpyEY7fSMOCpAOIvl+GoQoXfHjSE4XNlzG+fB1MAi2xIs0PezqSmPUrjC7QjBToozXKLVFDVaO3SodD9K3UN/AP6wuiQ0LtsSjzCHY2qtgntGfKRtT/eQvBD4oQfOscbjy9h1lXfGAe5IwLnfVwKNoMidwS0lg7DAtxR25zBUYWL4MsyAXZrTUYlbYaizKOI7ijGNJoR+bxaV3WSfjXZWGl6hhz8kFDoSxCJyH7ejWsSskr00SQRbwq1Q/HG1JhcsoKJsH2kMidMCTIHjvjT+MfAGvqQ/DeGUssyzyGyj/b4N+eDZ/bmfBuT8HIxOXIaa2BVcE6SKPHwSTIFqvT/XC4MRWSSEsMDXJG5vWLGFe2GrIwW+S0XsSo4lWQBtqjqvMqoh5U4GhnGk7dycNPRUexKuko/NvSIFHYYGiAMzKuntdANMgGR0vjsONWHCQKaj/tIzh1LVcO0YGvYL2QgEO0F0oy5iB6gajKmS0KNzt7D4Jv5zNPTN7lCih+LWTLcQw94wyf0iicuXsO5kGeSG28AJ/mZHwin4kP4r5jXuzLWmowqWQXPgydjty2GnyTvRLOSVtQ9WcnnLK24MuAWUhqvoCNlyOxRH0Yh1rSmau5YaFeyLtRA+sSAaL2zFN9cGs+PomciY/iZsMiaiosFcuRc+cyIhvzkPmkHl8mL8Ck1M2oeNCIyVG/YEzAfHwRMQfmEV5IunkePi1J+FgxAx+FfI+1mSeQc78O38bNw1TVOtTfb8foklWQhTqgrK0eU0v2YViIF9JvnIdvdTzGnJ6LsWELMSJkGuam7MfFv9pgm7wGU5TrUf+gHaNKVkMSbIO4qwWYWXWI+T7tms+vC8U3PeYQNeaq1yUbh2iXKsR5oB+IUo+7PcYo5yPt/iVYpq9FeHMh1reEQxptzSy46Wm/IOXvenya/BMclWuQ9rAWyseVOPb4HL5IWICQ+nTE/1WHWZVHEN1Sim/zVzPPTsdr1Eh6Ug/VbzWIeFCOT6JnY1aaN3a2pDIv+ebhkxHbXI4JJRshjbUEWcSzkvah8O8WRP5WhtA/KrDkchAOXVbj7IMifBr+I2Jay7H5thrDw6fgWI0KiX9cQeSDCuy5n4wR8TPhHLMW6b/VQfX4Ek4/KMGMXG+k372EpKc1iH9QjpKnzfiqcDUkIY6IaihAyrPrcLuwBy4xa5D0Ww2iH1Yh+FEF3GoP4JOIWYhrL0fKk3qkPqxC2Z/N+CJ3CT4Om4602xcwkq10SkOpuCUqzhr15lJziL65zozqCb1AlACgcoIsxAUnriRjQ2s0rONX46Ok2ewzVRrjgg+UM2Cfsh7DEr0gibTBxJjlmJayEw7pG2Ee54Wvo+fAM3ULvkqcj/HqlRgWP5UNm6IVNCclbcHk1J34JGkuhkQ44BPlHHyZtAymNDhf4YnxqlWwoMH5NGMoygX/jZwNz8QtmJa0E14pOzBBvRp26tX4JHkeJHJXjIleAqu09ZDFuWN45FR4Jm3FtKTdmJi6GmZqD0giHDE+ZgVmJO2BS9oWWCinY2z0ckxL3gnbhNUYH0/pTYVptDNGRc2DV8pW/DdtDiRyW4ynfCXuhmvqdnycOpd5vf88ejYmp+6AY+I6TEhYjqEKLywo8cOxzlSYxbgz36dsDOrbgpRbokZV13oShkO0J82I5Lr+IOrC1lofqVrInCfTeEq25rt2lo802kUzOyfWkQ2YZ2vLR1B7JQ1Sp/n2mmNplCOkzCO8ZgYRc9wcYcOWCpFG20Om1g7Wj3FifjxNY1y0HuRpjKWr5lq0MwMhwVAS4QCpwgFSuR1bq546cGgaKks3TrN2vDSSwlH6wppIbpDKnSAJp2mj9pDGOEMa5aIJE2mnXQ7EETIagB9tx5aAZkuBxDlBKqfhXvQczcLSDLSntlvyfs/WqI+yA/kg9cjZjpE5K7pkej7t9C0sUg5RUdRCDlFRFFPPQuoNosyKooHqGnCx3mY2XVJnaiY7J7BoZ/KotHPZ6TqbV68BiIymXAqzfYT59l1z1LUzjpifT+3UT3q+Ky3tgHU2+0iTjkwbl4wcK5PTEYqfnqdn2FRNrd9QNpNJ+7wQJ12jMGxGkyA3pUfhnCFT2cNUTYPqtXPwKS06j9fOfmJyCfmhfJIMGh8D0mgHNjdfMz1UmLvPIdrz2zs47nCIirwc9QtRAgfBgACjgczz+e3CdYKEACqCqOAAhPZa2HQ5AxHgSM9oAUawJgixMBQPQVoDOo3TD10IaeNk8NTCizn8oDjoOW1YLWRpthKDIwOfEI82HAsj5E8LSEqXAZ/kJpBq88Vkpee197vyowUlxU//HIT0ac/0JqTZxz23REVROzlERVFMPQupb4gykJHlRuDqAh1BQReiWkgIFieDCQGPQCmEfRlIuoFHF0Kx2k953WvMOqT59gJ4NXF2ySiEpTSpSYFB72Xp0n3t9S7YETAJkkJ4kl+AqHCNzrX5YmnpQJRZuKSj7vEKz/ZhzyHa84tvRHc4RI2oMPoiir4h+oJ1JQCC71+0OvWlDw7RvlQJgz/DIWpwlfdvghyifbDw9AW9/o6XQ7R/K4ueYuMQ1ZNiDRUthyiHqKHeNZ7OyzXAIfpyvYjmKocoh6hoXtZBKiiHqMgLlkOUQ1Tkr7DoxecQFXkRcohyiIr8FRa9+ByiIi9CDlEOUZG/wqIXn0NU5EXIIcohKvJXWPTic4iKvAg5RDlERf4Ki158DlGRFyGHKIeoyF9h0YvPISryIuQQ5RAV+SssevE5REVehByiHKIif4VFLz6HqMiLkEOUQ1Tkr7DoxecQFXkRDixEdbwc0TxvNnecPBu9wjvTC/PLhXDCXoijt3vd57R+Ql+Iv3s8FF53635f10OTcE8nj6+MWwjfj3s+d14UtZNDVBTF1LOQAwdRV5jGuD/34xnrzBwky15wFfdvoJCruBfcxTH40rOa68L9rjCvBJcGos9d9Lk/d2cnAEhnT7Lpbt09VMloORLmA5X8gxI8CczaOP/lFu/feese31ufC7KrHGAR7ona1oaeXwR+Z8A0wCE6YKrvn4QHDqKCI2RyfCw4IXaAaYyzFqwvseBYOO11lSuY0+Q4F43fz1fCsgdgMS/25GTZDqbkkZ45hNb6MBUApLPXBSiDvdZ5s8brviYNWZwrpFGukCh08yHAtAc5+iJ7b54RZOcQ7Z/KoqdYOET1pFhDRTugEBUcGqvc2JIbZlFOMFUKHuHJgnsROgQo+pymtZpkcW6QxXjCNOq5R3rNch8aj/VsyY1uz3ePj7zgy2JpcTsnDJW7wCzaBdIYnU9yAULa/b8hSh7shY2sWleYRjnjC+V8jE1bA9NozT8IWpOJFsH7t5PmF/P3b/ne8r4gP4eooapTn9LhEO2T2oznoYGEKPuMpoXiohwwJn4+5C15mHJ+D6RKuxetS2aBauBoFuMCiwRagdMB7ilbsLdZjRFp00AL2L0UQtpnNdZudyg5wkzhhiPV0Uhtu4DYzhLMvniUrRratUaSAGJqbmBNDQRZ3Y0sTvrMp7WUnNkSzXMzD2N/awpbpI7kHZ4wFTJm9XZPX8/nHKLGU9FeIQmH6CuUI4ZbAwlRzfIfzpCE2uOXXD+mrlPtmWxpZGbhqZ0gjdWu+hltC5MgS9jHr8Hcq/54L2A8XNM2Ynd7HCySvNiaRpIoW7b8skRhC2mMxqJlC+VF0YqctmwzpYXphHWYVHYYFjEJNbcbEXQjCydrk1D0VxM+z14EaYwNJFHWkMgnguJly5uonCGJsoFEYQ1ptC2kSgdIaLVOsqhjyUImGa2xPNkXR9rSYBJoCfvkn7GkIYitAPovMAuA1teeQ1QMVRAcoqIopp6FHFCIaj+FzYM8oarJQfqdC0h5WIUP07+HNNaOWaj/jZiBeecOYlG5D77L3QtFZTZy71/DjPy9sE35GTbZGyBVusA0zA0uyeuxvMwfs4v3wzx2KkwVbnBN24wpWduxuOQYZuTvxjD1pOcL26ns8X7EZOR31GJU/iqY+jqiqKUOlsWbYBJsDc+Un7Gs7Bg8C7bDLHYSZBEu8EjdgKWlRzG9aA/GJq/E2IwVbAlls2g3OGZvwXDFVCxOPIIDTYn4OGQa5HW5KHx4k4U3T/KCNJasWD1boEL8HKI9v/hGdIdD1IgKoy+iDDREaZng8cplSL93CU7p65HUWg7rsk2QRFliePh0BNamoehhPVSd5TjbkoULHddw4897OHMzDbvKFdjVkowhIU6YlroLJY+uI6WjEucfN2LtzQiYh3mhoLUa5/9sRnpHJa4++xU/1h3XWJbUk84gOgUFHbWwTF+NifIFOPdbPb7NXA6X+J+R8bAGCR2VKHjSDLeyfbCNWYPSe9cR31mGk81p2FMahQONyWz9+GHhXkhtrsLE9HWYk7AXexviMTF6KSp/vYb2p/dx+nYGPsj6HlKlPYdoX17UQfwMh6jIC3egITokwh4L0o4g9eFlTIheitRr5VjbFAmToDGYmb4TZX82Y1zaUpgpnDE00AVrk3xxvCUdZqccsTrDFwfaUjH0jAsyWy9iR3M0TINtMTVxCwqe3YRl2mqca72EhXWnYXbKDT5FsfBtz4BEru2JVztieIQXytuuIKLxHMru1eFIexIswidB3VCArbUR+PLMHJytTMeRG2lYlHIYxX/chJVqJYaedMPqJB8caU5nFvOwsEnIulEJy/QNmBPvjQOtqZCccsLaND+cacuCudzt38siCxajvvbcEhVF7eQQFUUx9SzkgEKU1loPdcGZyiTcfPYA2R2X0PT0AULvFUEaZosV2UdxpuMcyFqVJdljSKgtliUdxd62JJgEWGN5uh87Hh7ohpLOOtiUbIY0dhTeD5mM7NZL8MjdgYSmMowqWA2ToPFYlOgNn6YMSGn4Ea0Lr3LE8PDJON9eh8i2c8hpuwjvlnhYhLrhQnsdyh42IfFWFSoet2BfUyK+ks9BeFMOip7ewNYLIdiUcRr7bpIlasueSWsohWX6z/gp3hverakwOWOPZWnHcbA9DdJoArdmXCr/nO/5fXwX73CIirzUBxSicc74OPw7FHXWYueNKFglLMPKc8dR+Vc7vkxZjDlpB5Dy6AqGxUyFRGHJwLkq5TgONCfhvRPWWJHuiz1tSRge4IGijsv4qdYHJoHfYqJiMUof34Bz1mYkNpVjdOlqmARPxOKUI/BpTIM0kmBGvekOrE20hD7nU1bBK3Yjzj27hlHJPyGv+SL2VUXBKm45bFLW4vOkBZCGO8D8zCQsSfPBtUd3EFKbDf/GLAwJt8eHgdNQ2FaHiWlrMV/tjUOtSRhy2harM3xwrDWDheEQFXll0ZP4HKJ6Uqyhoh0wiFJPd6QdZqbuxFXcw9fnFkGiGAmLQA9cvN2ExdfC8GnEXGT/Wgt5az52X4mBa84vmBW/C2V/tmJN8UlsywvG4Y50SAJcsLEkEOf+qId3pQLxLRfgezcLnyq+R15HHcaVrsV7AROxPM0XZ9py2NAjKY3pVDvggwgvnL/dgHFla/Fh6GRcuHsNTuc2Yvm540i8X4VtVWHYUBsO69wtsE1chx11MTheEY+CB9ex6UIwqp+0wu9mMkIbstHyv98xJnklFiYchE9nJt4LsMK8tAO49PQW1tQEwiKZOpZo1ADvWDLU+y2GdDhExVBKr5BxICEqldvBPnktNl4Jx/DkyTBVWUMmd8Hq4pOYVn0YQ0Lt4KJei7PXU3C2MQeTS/fii6gfcbg+FltrIjE5czsml++FROEE85BJ2FJyBuE3c3HgugqfpMyBLNwFa8oD8N/MnyCJsGMQ/K78EEyjtRBTOcJc4Yn15wPwafY8mIbZYW2JPyxLN2JoiDu2XwhC0M0MHGtMgmPhDnik/4KTDak4fTMd35UfxPDIydhYchoBNzNxoDoamy4G46PE2bBUr8K0897sn8Q3sfPhdyUev1yTwyJ5CofoK97Fd/UWh6jIS37AIKqdAy+NdsKQCDvNdE+yDmnwPY3zpHZQduwASbgtpBF2oDGfpkpnDAm3gSTSkbUzsnGa9Gke4wBppDWkETaQyK1gGkfPu0OicGCzkGQ0K0pJA/tptpOOJRjrwmBnqqQB83RM4z+d2AB6idwG0kgbSMNpXCjNpnKCJNwKQyJs2fhQSkMit2XyScJpPKstZCrN1FVqA5WpXCFTOkMSRvHQWFPeJiry6qIX8TlE9aJWw0U6kBBls4jYTB4BLgRRZ8jiHaCZ4qmBqqnaBTLqhBJ6mwmaKu09mpHEoOgMmdqBbSwOcgAihGFp0DlNw3w+TZQ9x2Y0acdu0rFa53Ob0lTTTCXqhKJ7NMefjp004Sis2p41C7DnKKzKkW2a6aBumumpccJsJ0FWA+0FffFpn4arUH1IiUO0D0ozpkcGFKK6FuELxwJU3xQ22g6jF+LqSxyaZ7osVjblU4hHkE1I61V74RnaC8/pXtPzMYeoMVW1HmXhEO1RNeK4YZwQ1TNcegtZAULCvrfPGUs4QW5uiRp1ZeQQNerieb1wHKKvALYAIWFvLHDsrRyC3Byir68IAxiCQ3QAld8fSXOIcoj2x3vE4+i7BjhE+647o3iSQ7RniFKbqO5msPGdvbU0XxeOW6JGUcdeJwSH6Os0ZOT3OUR7hqjooNkdqhyiRl77NOJxiIqimHoWkkOUQ7Tnt4PfMYQGOEQNoWU9psEhyiGqx9eLR90LDXCI9kJJxhyEQ5RD1Jjfz3dBNg5RkZcyhyiHqMhfYdGLzyEq8iLkEOUQFfkrLHrxOURFXoQcohyiIn+FRS8+h6jIi5BDlENU5K+w6MXnEBV5EXKIcoiK/BUWvfgcoiIvwrv/+wtf5i6FVGltOI/r3QeF83P96J4PthdF7eQQFUUx9Swkg2geh6joZye97B8Rh2jPL74R3eEQNaLC6IsoHKL8c74v7w1/pv80wCHaf7ockJj45zyH6IC8eDzRLg1wiHapQpwHHKIcouJ8cweP1ByiIi/LLohGW7+4gNvL2tj4Nf10AOlbr+SUOcITta0NIn9bB6f4HKIiL9d71DufsxTSaOvnC8FpOyR0fWny4xd9i4pBH10L+3HP9kZdSzlEjbp4Xi/cixDtvujaIP7U1bf1Zwzxs5VMaZVSB1hEckv09bVhYEJwiA6M3vstVfqc/2/2fEiixkAaY9Nts4U0xhbSWL6JUgdUnkprSGMnwPfCMk8AACAASURBVDTUEZdbrvfbe8Mj6j8NcIj2ny4HJKaH/3sGz/yd+EL1I0YlLMKo+Ofb6PjFGBO/GGMTlvBNhDqg8qPtm4T5sFYuQ0NH84C8YzzRV2uAQ/TV+jH6u3/jf7jz52N0PvkNt5886mF7jNtP+CY2Hdx68hi3nlLZUrk+xrN//mHv4/8A0MZ/xqEBDlHjKIe3l4JqFdUxvg0eHQi0FPZv/5bwGPSgAQ5RPSiVR8k1oB8NCDQV9vpJhcf6ZhrgEH0zffHQXAMDqAEBnsJ+AEXhSXdpgEO0SxXiPBCqE+35j2uAa8DwGuAQNbzOeYpcA1wDg0gDHKKDqDB5VrgGuAYMrwEOUcPrnKfINcA1MIg0wCE6iAqTZ4VrgGvA8BrgEDW8znmKXANcA4NIAxyig6gweVa4BrgGDK8BDlHD65ynyDXANTCINMAhOogKk2eFa4BrwPAa4BA1vM55im+ogcLCQkyYMAGWltawtrbV2Wwwfvx4eHh44Pbt228YKw/ONdA/GuAQ7R898lj0qAEOUT0ql0f91hrgEH1rFfII9K0BDlF9a5jH/zYa4BB9G+3xZw2iAQ5Rg6iZJ9JHDXCI9lFx/DHDaYBD1HC65im9uQY4RN9cZ/wJA2uAQ9TACufJvZEGOETfSF088EBogEN0ILTO0+ytBjhEe6spHm7ANMAhOmCq5wn3QgMcor1QEg8ysBrgEB1Y/fPUX60BDtFX64ffNQINcIgaQSFwEXrUAIdoj6rhN4xFAxyixlISXI6XaYBD9GVa4deMSgMcokZVHFyYbhrgEO2mEH5qfBrgEDW+MuESPdcAh+hzXfAjI9UAh6iRFgwXi2mAQ5S/CEavAQ5Roy+id1pADtF3uvjFkXkOUXGU07sqJYfou1ryIso3h6iICusdFJVD9B0sdLFlmUNUbCX2bsnLIfpulbcoc8shKspie2eE5hB9Z4pavBnlEBVv2b0LknOIvgulLPI8coiKvAAHufgcooO8gAdD9jhEB0MpDt48cIgO3rIdNDkrKip67Wqfd+7cGTT55RkRlwY4RMVVXu+EtM+ePcPTp0/xzz//sPwWFBS8FqK3bt1iYf/++2/27P/+9793Qlc8kwOvAQ7RgS8DLkE3DXR2dmL37j2YPXsOlixZhh9+mA0rKxud9eafrz1P1+3sHDB//kIsWLAIs2bNhlwuB4GY/7gGDKEBDlFDaJmn0WsNCBZkzaXLmDt3Pj797+cYM2bcSwFqbW0LGxs7WFnZ4quvvsW3347GoUOHcf/+/V6nxwNyDbytBjhE31aD/Hm9aeDXO/ewa+cejB8/ERMmWPYI0tGjxsLOzhEqlRoChPUmFI+Ya6CbBjhEuymEnxqXBp48eYpTJ0/DcqIVxo0b/wJILS2tMXr0WEybOh2FBUXGJTiX5p3RAIfoO1PU4s0oWZcJCYlwdnbGmDFjYWtrCysrK3z77bdYuHAB6uuviDdzXHLRa4BDVPRF+O5koLi4GNOmTcM333yDsWPHYvPmzRB65d8dLfCcGpsGOESNrUS4PK/UwJUrV7B48WIcOXIEjx8/fmVYfpNrwBAa4BA1hJZ5GlwDXAODVgMcooO2aHnGuAa4BgyhAQ5RQ2iZp8E1wDUwaDXAITpoi5ZnjGuAa8AQGuAQNYSWeRpcA1wDg1YDHKKDtmh5xrgGuAYMoQEOUUNomafBNcA1MGg1wCE6aIuWZ4xrgGvAEBrgEDWElnkaXANcA4NWAxyig7Zoeca4BrgGDKEBDlFDaJmnwTXANTBoNcAhOmiLtn8z1p9+Ov/44w/ueb5/i4fHNoAa4BAdQOUba9IdHR2oqKgArW3U2NjYtdZRf8l7+PBhkCORV/0uXryIzMxM5OTkICsri8nxqvD6uNfS0oK7d+/qI2oe5yDSAIfoICrM/sgKWZwHDhxAcHAwkpOTcezYMSQmJvarx/iNGzeiurqaiUv7Bw8evCA6ybBhwwb4+fkxGeLi4lBfX/9CmFedCFazsO8pbPf7BMza2tqu4EqlEufPn+865wdcAy/TAIfoy7TyDl+jFTbXrVuHS5cuMS20trZiy5YtaG5u7tLKvXv38OTJk65zOqBVNuk6LRBHcPrrr7/w+++/MyuWzumYwtDvl19+weXLl0Gf9atXr8a5c+fw22+/dcVH4SlMd3BSHBSv8KNndOV4mVwUllYOJVALslE8dEx5/fPPP5kcJFtSUhK2b98OWn6Z7v/666//skTJ/Z6uCz6SleKnH12nPPHfu6UBDtF3q7xfm1sCy6ZNm7oARpAhiN68eZM9m56eDl9fXwQGBnRda2pqYpbr2bNnGYgoYHl5OU6cOMGeoTj37duHuro6dr5161Z2fOHCBcyaNYuBKzc3l92jPwSmbdu2oaGhoesaHVDzQkhICLv28OFDULMAwZ3Cp6SkMLkCAgJeeK60tBQREREIDQ1FZWUle/bQoUNdsuTn5zM5Cax79+7FvHnzcObMGVD8ZIX6+/uzZygP1LxAcQUFBbFmBrpB8I2KigLJHxMTw6xnch7Nf++OBjhE352y7lVOCRb0uR0dHQ1ql6R9eHg4A1V5WTkOHjzILM6KivMMaGSx0Sd/fHw8syYF2Obl5WHPnj0sTQINWZwUH/0IkGSJEqDXr18Pgg4dCz8BogQlapslmJHVSWDbsWMHAyABLSwsjD1Cz+/fv59ZjQTmwMBAJi99mhMwr127xu7R5zrFTU0FgiwEX4I6/dLS0rBr1y48evSInWdkZDDA0wnJsHv3blB78Y0bN9g/GuHTnzzsE9DJyz7JQv8wdK1VFhn/M2g1wCE6aIu2bxkjyJAlSlYZgYE+7enzln4BAUGsjZJg1NTUyIBDUCGLkyxEXXDQJzqBjX4EZopHaAcVIEr3yMoloHb/EdgIWmRZnjp1CmTt0o9g5u3tDR8fH7S3t7NrZBmmpqYyUJJlShCjT3GyELOzs1+ImvJHTQWCLAROkod+ZJUKMtM5gZpkoB+tZU//GIRfQkICszzpnCBK8KYf5ZV0d/XqVSEo3w9yDXCIDvICftPsEQQIotQmSscKhQKRkZEsmo0bN2Pnjp0ICgrEyVP+DLKdnbcYvI4fP86sysLCQhaWgEMwo59g/Qng0oUopSVcZ4F1PucFS0+Ig/bU/kif3GT9Cj+CIsGOYHry5EmQLGQVUhjdOIR4dNOk5gmybumnKzOdE0QFa5r+odTU1LBw9IfyKTRXUH6Epgq6R+fd89T1ID8YdBrgEB10Rfp2GdKFKMVEcCDLjzp0vL0PMXj89Rd1xmg6iig8/WhPlhx9KlMnDrWJ0qc//QiiP//8cxdYdCFKn/O6cBLCU5juHUt0jz6XqbmBRhAIw4/ok52uk4zUsUPNB5QmQa6srIzJoPtn586dqKqqYpfIEqXOJPrRUCqyIoWfLkQJziUlJcItEHxjY2PZOcmqC2s6Fzrmuh7gB4NWAxyig7Zo+5YxgiGBUIAMgYosyvv37yMrMxt+vn6sR/zvv58xWFJ4+nQmaFFYsvLoM/v27dvs05ieu379OhYsWNAFS7IcBXDS5zPBV/dHcemGEUBNbaIUnuBKw57I8qQffcrT5z0BlMIKQ6YIdARFkkEALIWnNl56nnr2aRgVtYPSj9pfKa9Cbzu1iRJw6UfNAgRuarIgK5fAK+iIZNVtkqBzbokytb0TfzhE34li7n0mCUK6n7t0ThYl9WwTiAhA1HsdEHAW2dlZbCgQdc5Q2+Xp06dBbYUEQXqOmgHo05pgRp/DAmgIQAJEqe2U2j+Fjh5BUrLmCIA0XpUsSgItxU3Qox+10wqjBgie1MmkkSsABD/6EfCoV5562Am4Qu88dTQRjMmSpHZTklsIT/JSXsiapR534XOeeu8pDZKH7hOEKQz9KD9C3oRzwRIlXehrY4nzPwOuAQ7RAS8C4xOAOmcIGsKPgEVjMOlHQKDeafrMpzB0Tr3ZdE5jSnV/1HNPVij1rJOVKsRJM4GEYwpDlmX39eMpDFlztBFgqWOps7OT9dALadBsKuGTnq7RyACSQ7eDi65TXDRDSpCXrlF6JC9Zo2Q1Uz7oR1Y1yUP/BMjybWtrY8fspjYNoUNLuEbx644P1c2fEIbvB68GOEQHb9kOWM4EIA2YANqE30QOCttT+FfdG+g88vQHXgMcogNfBlwCrgGuARFrgEPUiApP80FpRAJxUUSmAf4GDUSBcYgOhNZ7SPOFKkAn+t56kINfFqsGXniDxJoJ0cnNIWpMRaZvaHaP35jyzmXpVw1wnParOl8ZGYfoK9Vj4Jv/0xifBk6VJzcINfCPdrTBIMya0WWJQ9SYiuR/wDMAZ3MKsU2hxu6YRL1uu2ITwbfBooMk7IxNxrZIJVQFRfiHm6IGq9kcogZTde8SIl9GP56NwBcb92LMtkOv3rYfwpg+bqO3H8IovolSByO15UZl+Hw7jG93HMFX67ZiR0hE7142HqpfNMAh2i9q7L9IyL3vwvBojNl1GNYH/F65WR3wA9/eXR10fz8mevth7I598JbH9N8LyWN6rQY4RF+rIsMGeAGi+/1gzTeug16+AwTRcds5RA1bYwEOUUNr/DXpcYjyfxx9/cfJIfqayqWn2xyielJsX6PVhajNfj/0tPW1ovHnBi+kOUT7Wuve7jkO0bfTX78/rQtRDrw3A15P/3B6uj7Y9GvFP+f7vT72JkIO0d5oyYBhOETfDJy6IOwJli+7rvuc2I+F/FFH0/jt+3CAdywZsMbyNlGDKrs3iXGI9h2iYodhX+XnEO1NzdJfGG6J6k+3fYqZQ/QlEKWhXr3soX4Xw3GI9qmq9dtDHKL9psr+iWgwQNRynx9os9rnC+v9tAkQ9Nc5Fq51D0PXdZ7Z54fxOw7Bcq9PD89qwlvu84WwWVHa2jQt9xzDhJ2HYavtpCNZuqDTJZcgi+5eR4ZXhtN9ZuCOKU/sc34b/5zvn5rY+1g4RHuvK4OEFC9E/WGzjwB1DDZ7jsNujw/sdh6B1d5jDH6sku8/Aav9p2B5wB/WBwRI+cBmvw9s92kBy6xOH9gc8IXVPn847vXF+ggl3H3OYuLe45i4l+KkZ06wMBSPzb6jcNhzDPZ7jsNh73HY7PVl0CWAzjpxBkvCo2BHYN/jB8vdPi8A1Xr/SbDtgB8sD5yA7d6TsNvnz2R6Dv+Bg+MbyUBtohyiBqmnuolwiOpqwwiOxQzRCdsPYVVACAqvN6L0Zgviq6/guxMhmLDnGLP+NLOrCKQETB9Y0oyr/f6wIqju1848YvcIxr6YuNcfbvt8cfHWbSyOTcTYnYcx6fAJ2B88zWBH8Juw6xB+Do1AfkMj8q/fRH5jCw6l50FeVon1McnYn5CM+MZmTNhzGPb7T8DzSIAG0JTufn9YHjjJNg2sCOz+sN13AjYC1EVghXaBlkN0QGowh+iAqL3nREUL0QP+mPDLARyLVaP+7n0cT0hD9a3bCKu+gol7jmLinuOaef47DmHinmOwPeiPMft9MHLbEYzaTvd9MW7nMVjv9oPdfj9Y7j2CMTsPw32fD+raOrEkNgljN++ForQS3wcoMWrLQVjtP4nxWw/ANyEZDQ8fwScpE0cy87EmIg6R5dVYHZkAb1Uikm82YeSmnVgeKodvUQVGbt4HywM+mLDPFyO3H8boHYeZfDbexzF2z5H/Z+893Kq4ur7//+X3/q7nfZ4n3Ro1Shdb4p075U6MGjsdS2Jil34qcIBD7733jopYwILSe++ggL0lUb/vtfZh8KBg5TTYc13DzJnZs/faa898WLutDSNXBczcfGE5AfdJSOk7UDlEZ/6wNHiHQ1SDyn2fqA0ZombOnvDNykV6SycW/34Cfjn5ONU7CDNnKX7xDoQ8/wzkhaXYFhwDMw8FfvIJh6TgDLMcHaNScTghEz/6R8Hc1Qs7gsJhn5CO7zx80Ng/iH0peTgamYjRO3eRcr0e1lHJMBMrYeoshX9eEQraOrHkD1csPCrGajcvuGUW4F9yf8iz85DT1oUfpUqU1NSieXQUbtkl2OAdjB89/SHLLYFX4Rn8GhwFS7Ecf8SlwDUjDweTsyfadA2kKs/bRN/nc5uVZzhEZ0WNsxeJoUKUquSmzp7wycpFRkMrVh9xQ051HVKaO/CNqxzFDc24MjiM60M3UNzdh+/kSmRdqUXN4A2c6eyFb3Epqvr74ZCRi2VH3OGdV4jCzl78280T9YOD2J+cg4jis3j45C/Uj45DXHweph6+MHaWwDc7H9eGbuCP2CQ4xKfhZ58g1AyPwDY2EeKMTGS2tGNPYBRahkcw9ugxshvbsTMkDlnVdbjSP4zqwRs43d2Hn738cb29Czf+foaIy9Uw8/CDhXonF7dEZ+9Fn0MxcYjqWWEaMkRNXOTwTM1Ey/gtnK5vRee9h7CKSMLx+HQ0jY7DOjgCB4Kj0DF+FwdiUlHdN4DI81ewwc0L34o80TA4CIe0fCw5JoJXfiHyO7rwjbsM9UNDcEwrgKWTFJXdPdiflAljF6rOB8HEWQbvjEzcevoU7TfHcP3mHTjGJOF6Xz/sYpIhS89CXmc3jI66wTszG/mtHTA+7gGXlCy0jt2BdXA0k6l5/A4OxKSgsacPMVebYeFKHWJC55eBWKO8Oq+Tr5lDVCdqnznROQHRu/eRU9WIlpu3sCckBtKUTNx4/ARXegZRPTCEzrsPsCcqGW4Z2Wgev43yoZv4MyEVVT19sE3Jx+LjYshy8pDX3omNHiqI2qcXwsxFjsquHtglF2CVmxcsZP4wdZFCmZeHsoE+ZoH+4BeJHz0DGXjtopMhnYDoqmPu8MzMQVZbJ1Yc84A8Iw+3n/yFq32DqBocRuvd+9gXnYSrrR1wTMrGclfvaYZU6TlMOURn/rA0eIdDVIPKfZ+oDRmiZB36ZOUhp6kVaw674nxTKyLKr8ItOQ3No7dwIDwZVsFRsAqOwQZ5EIyOeuBXT3+UtbShrLUNdb29OJhRiEW/n0R4UQkK21WWaMPgEBzSC7HGxRN13b2wjcvACmcJzOX+MHGVwT+vAAWdXfjKVY5lIiXr0W8YGp5iiRJEvbPzkN3UhhUHneCZVYjWWyRTLKyCYrArOJq1kV7v7IZtQgZWuflwiL7PCzwPn+EQ1bNCN3SI+ucUoKC7DyuPixB5phRne/rwq28QqgdHUFDfjpBzl+BVWo6fFGHwKzmP6LIKVHZ0Ib2qGqU1dagfu42YskvovXMfxQRRNyk6Rm9iX0YxVp+Qo7G7Fxd6+uCQmA1jsS+MnKUIKSjG2f5BNtxplTQA30sC0D42BofYFFaFL+ntx1fHPeCWmo2++w/he+ocrEPjcXVgGPkNLQgtrYDkbAV+8glCbX8f9qbkwJhDVM++DP0Vh0NUz8rGUCG6mjqW3H1wICoRrqfOsjGdtqFRCKq4hm/kgfgtPB55Nc3Ia2hFyOVqbAuKQ/j5KyhsaEXy1VpsUYbDLiAC2VV1yKxuQsSFSrjklWC92BtBZy9ga0QyzJ29IcksQF5TG/7MKIGJyBdm7t74PTYZklPnYE5DqaT+2CgJQNDZcmwOioZjZDxEp8pg4uaNLX4RSKusRcS1OqyXB2NfaCxy65qQV9+EoMpa/OAXBkVxKbaEJcDUw49bonr2beirOByielYyBgvRiZ5rGnZk4uEDS5oBREOQ3FXVYtaT7qqAiRvtPlgt8Wf3TFwVMHZVwFykhLnIj52rwihg4qGa7WTk7sPispQGqnrkaRynSAU5mgmlSlMVlo3plAXA2N2HDVGavCcLZFNRjd0UkzKZefjCxM2LAdbU3RsWUiWMPeg5P9VsKH3vjX9ZPt4mqpOvmUNUJ2qfOVFDh+jrBqbTDCVhp9lLwjmbufTSb7r2urje9x45LjaXq+aZq8tA55YyJVbLaMqpan/fNHT2HIfozB+WBu9wiGpQue8T9VyG6MsLq73x98uW1mz8Fhb/o7iE84mjAE/hqDMYvm8+OUTf55P74Gc4RD9YhbMbwVyCqOAtSTiqQ4mq++q/tXVOc+In58VPC1GqytM+ndeol2TWUR5m1BWH6Ox+jG8ZG4foWypKW8F0DVFVtVY1yNxCTJ6PqO3xxaBzlTemAFjIX1yb6aMW4Dl5ZFVmf6yWBMJC5AdyWUfWIHlsYmkweE3EOwE48qwkOCiZKZ1pr88AuOkh6s+8ShE8VdYpOURR31+C54SlqPJaFYDVEiVro53eXd/0z04r8/taoMJzHKLa+kynpMMhOkUduv+hU4iqrWNvLvbDv8RKfO8XBTpf5aaAEXUKTXTA0Ho+7woCVTU5AGtFAdjo4cU8NTFoMUj7M5gyC5B6+iUBWOnmg6/c/bDSXfHuveXTQHQS5mq+RVV5UEGU3OoZefgxZyhTIToB1AmwTzYDTMBrjcwPG6U+WCtWsllUqjy9u37eVZ+vhOcQ1ckHzCGqE7XPnKiuIUrwMJME4D/ewUiua4FVTDq+9wrAseRsOKXnYm9cCtbJ/GHOXMkFYbVUfZ8ZHFR9J0CSs+ZvxEqk1dRiV3wq68lfzXrEX1i2ZNH97BuOoyk5OJGWC6eMXOyOSIKF+EWYVwBCQBMgJ1hmbziqoOoPCw8fJhcN03KIScHm4Dg2GoCs8sk4XzpnnVJycuMXgNUiBXxOn4PX2UswdveddAg9rYxvkOmDnuEQnfnD0uAdDlENKvd9otYpRCd8bNLMI2lmAc4NjWG9uxfcktNx468naBwaQu+jJ3AuOMNm9JhLg2AmpiFG5Mk+kA1rIo/yZhLyBapkQ4zI2zxV1Qmi5OneSByAjRI/NNy4AUfyEeoix9HUbHwfEA1jkYJBycRZDkVaDsb/+hu1vf1oGLkB37OX2NAoc7G/yjcpebKfgKqQJrm2M1dreqBzukbyMG/3TBYV6FXX/LFG5Iejabn4NiAW5m4KlPcNQlZ2BavcfWBKz0v9YUJxTOSB5UMawOI1kSphKlWyIVKH41NxYfAGvguMgYnoLdpTNQFTDtH3+eQ++BkO0Q9W4exGoFuIBsFEFoi1Hp4orK6DtPQSvjrkBkV2Lgq7evAvVwkyL1cir70Hxi4KZsFtlAeAdvJmTx7lLT38sFEWiH95BmGDNJDt5B90jcQf65nj5UAG0ZqBQTik5uBrN29c7xvEgbQC1q5IjpJNnWUIyMnH6a4+fCvxxfdegfhaHohvPAOxVuKH1SJfrJco8bVXMAPqag9ffCMPYruliOBNY1T9sEbsh42eQfjGMwjrZAFYS1YjVeUlAVjPoB6A/8gCUDM0ggPpBVjt6g2npBz8HBTLxoquk/hjg4zSDYIlLU9CHvUJxCIhPX+sk6rS2yj2wfmuXtil5GEV80U6s1X+Qdbm6+DLITq7H+NbxsYh+paK0lYwXUKUOnhMpIHYKPVDeXsn9sSmYcVRDyiycpDW1oHFf5xEQF4+8ju6YXxcBI/0bFQODeP6yA14lV7EGjcFPJKzUdVH18bgU3IWWdersSsuE1+dlMApOQNBlyrxjauMeXDam5yNqLOX8Nc/T9F4+x6kZddg6hHErFNlbj6yWzuw7IQYK1y8YOwsQ8i5C4itbcQ6NxmSzlcgtq4Jlh4KeKTmMBd710ZG4XO2HGYe/vhe4o/MylrUDo/ibFs3gkrPIuBSJYxEvtggUSCt8jp2RyYj+kwF/n76FHW378HnTDlSLl7FpqA4/BEZjzPNnTjX3ovGm2OIvliJNTJ/mLlKIc3MQc2NMVzp7kNpWwe2xKQwb1KZly5DcfE6jN0VbLypxmA5E0g5RLX1mU5Jh0N0ijp0/0O3ECVv70HYKPVHRWcPdsZmYMUxERRZ2Sjt7MKfYdGoHx6B7MxF7PQLR/XQCDzzShBQUIT6sTuwCo1HXd8AMq5UMe/yB6Li0TYyDIeMIiw95gYfBuAufO0iRvVAP+ySc7A/JAYDY+OIKb+O7SEJMBMFMzd33hnZGHz4EKebWlHc0Y2DGdk4FB2D3oePkHz5ChpvjuOPpHzsVoajanAEspxCKAuK0HjnPn4NjkNcWQVqbtyCe3oBjsamIvbsWRT39GKluze+EStQ19sDh6Qs7A+Owcj4bYRXVME2NIbJvycqFaKENIw/BXxLyhBzugx9Dx/h1/BY7FQGoePOXYSdu4qo0xdw//kz2KXlYvlRd/hlZCGpoR2m7grmOZ9DVPffkzYk4BDVhpbfIQ3dQpTaEFUQvdjRhZ2xmVh+VARZSioG//4HnXfuof/eQ/zsHQJRchb6bt+Bf1EpYk6VYvDeA/yWmIXTjW0o7+3H4bRcbJIFoH5gCA6p+fjyuBie2XnIam7DBhcJqgcHYJuaB7NjHqjq6YFNXAaWn5Sx3m1y7qzIzEX77TuILbuMmMtVcEjNgrmTGMmnypg2Yypr8eUfIshS89Bz6zaURacQfeYsBh8+wZ8Jmajq7IV74VksOi7DskOu8MslT089bJTBBpES17q6YJechdXHxWjsH8DuuCyYn5Tgek8f9kQlQpKahdPt3Vh2UoL1TiJc7+mGXWwS3BPTcal/GKbufswibu7vx76MQiw/JoZvRi5Sm1QQNXubcaYzWZTve51bou/wpc1eUA7R2dPlrMSkFxCVKHG5sxu74lUQVWRmM29Mjv5hqO4ZgGt2EaRJqRi8ewcZ16qY79Ckq7XYFBSLHyVKxJddRMeDB4i5eBX1PX2wS8rGwkNu8E7LQWZTK9a7iFE7MAD71FysdZGirrcP1hM+PC3kgTBz9oIytwiZbe1YekSE5Sc9sYq82B+XITynkOk5tqoWK46K4JmWj6G795BZWY3MmkbEVtZjd2A8GvqG8HtaARa7eOOr4yIo8wpR3NmD5c4+WOPihcqODtgnZ2G9ixzNg4PYk5yL1c6euNbbjz3RCRCnZSK3tQMr3LzxtbsXKts7YBOTCFFKBs50dGO5qxcsnCVo6OnBvvRCrDwpRdrFy4itbYYRDQPjEJ2V78EQIuEQ1bNS0jlEpUHYIFbiYnsHTpScw/Ij7lDm5CKnowurrra5bwAAIABJREFUDjsh88oVpFTV41BEHJrGxrE/Kh6/eIbgF58wfC31wSafIGyV+CL90iWUdXWhsa8X4RXX8LNciTM1jQxMXzuL0DwwCLu0fFi6SNHS3w9x4Rmsl9PA+gC2zEhATiHK+vrxi18ItgZG4VvvIOwLiUPz8CgKq+vRducedoVS22USmkbHsC8iFj95B+M/PpH4xsMP5W3dKGzpwRafMPzHOwC+hSVou3sfu0LicDg6CYP37sIqMRPrXGToGhqGe2EpW4eptm8AVmSJpqejsL0TRm6e2OguR3VHJ6zjknAwOha9Dx5hb1waDsckYuThQ9aZZOIkwbnGFpwsOIOV7l5YI9VBDz23RHXyNXOI6kTtMyeqS4hSGx6N/zR3VyDmYgWy2npgdNgDsowcpDd3wOiEiK1ZVNIzgG89A5BYUYmu+49Qf3McRd0DsImIRWlTO1pvjqN+9DZccgvhn1/A2jbrBkeYF/u4qhp86yrB1e4e7EnJYx0yp6tq0fPwEdyKy2HqroSpiyfEqVkYfvwEjSM30DB+C+EXK5BzrQbFXf343t0L5+oakNrQjA1ib8SXX0X7g4eouzGO072j+I9/BGyCotA0NI6O0Vs4NzCMw8lZqOrpR/utO6jtHUD7+G1si02HibMUpdWN6HjwCF5FZ1FG6zFFJMItLQMZjS0wcfPENyIZLjQ3wy4xExslPjjb0Ir2O/dRPTCIkccPYRWXiU1efrjaP4BtEYkwdvfWzbr1HKIzf1gavMMhqkHlvk/UuoWoav13M3dfOIZEoe7mLdjFpmOjzA8/BUVhtcQP38sCsT04ji0n/LXYD7YRCXCITsb20Hj82zsY1sExcIxKwM7QWDb8aL3EF9ZhsbCPTMTWgAh87xeOdWJ//BoUiXU+obAQK7HJO4Dd/zEwGuZSJRsu9Z1nIGzC42AfFQ+HyETsDIzFjsBofOcXBlMPb/ziE4KdEYlYTYP3PZSwC0+AY3QydoUmYZ1XEMzc5PjVNxx7I5OxJzwOa+V+zFp2jErB7sAY/KqMwjqvEJiLfbHJOwj2EYn42TcSm5WR2OAZin8rQrHFP4oNzVor8cdW/2h8rQiFpcQP23zCsEcZjiNhEegYuwWbqFQEFJYiv7UTFmJfrGZjWd8wMeB92z1f9xyH6Pt8ch/8DIfoB6twdiPQKURlNJBdiTXiAKx398WhxExsj0xi0DIR+cBSTuNAA2AyMSvHTBoIIw8FVnn4wJjmwpM/TpEPVrr7wMhDtUYRhVnlQdeVMBH5wYwGyMuCYOzhO7kksbnIFyqfob5sKqilOJjdW+XhjVXuCrYevZlHAEzd/WHqoZpaaSIm36JUZaaB/ZSGL1aKFFg1MSffUh7AnDaTbBSHGa3HJFayQfQkqwmt5Dkx+N5U7Mc82ZuJVHLSIH2aPGDuoZokQPKaeChB4TbI/JF4qRqZ1+pxsaMXV4bG8B9lJPbGpmN3RDzMRL4TDk5U/5C02kPPITq7H+NbxsYh+paK0lYwXUKUxolaynxBlhcNSCfnyQwK7PqEr02aEUQOQybn2StVnSgyFTTIMQlzGELApXZBGf2mts4g1RRKcuzBnleFpxlAa8i6Ys+rrDdaxXON1A+r5b4vnmGD5GmwPQ1iD2S9+OSkWTWDiKZfUjr+Kl+hLI0A1r46KQ/FPynz1IHwJC8N8mfyMlloUD2FCVLNhaeprbIAmDEZ/OCZU4KkK9UIu3AN1pGpbGC/iYcCZmx86IR+mAOTqeloHKgcotr6TKekwyE6RR26/6FTiNLURqpO0y6howoCBBkVYCfuMefFggcmlQNjBiFJ0BSP8Ox5ISyDEwFmYr75RNwEJ1U4AXpK5iHKUkru6ASIkhyq6Z6qDhuhqkwgprn7gazaLcQzCasJuVVhJoAmzIEX0p88EkRV/zyEI8VrKQmegGkgzEl2WhzPzQernD1h5OLFrHLmgYrpjPI38U9lMl4tgpRDVCcfMIeoTtQ+c6K6hOgkfAgAE1Mkp1zTFBhmTEuA5VuAaMY43uJZ9XwJ8UwcydJ9RQcTFq1WdaQu40znHKIzf1gavMMhqkHlvk/UegPRmT5Ufv1VqOqLTjhE3+eT++BnOEQ/WIWzGwGH6DSWn75ASt/l4BCd3Y/xLWPjEH1LRWkrGIcoh+grzQdvC28OUW19plPS4RCdog7d/+AQ5RDlENX9d/guEnCIvou2tBCWQ5RDlENUCx/aLCbBITqLypyNqDhEOUQ5RGfjS9JeHByi2tP1W6XEIcohyiH6Vp+K3gTiENWbolAJwiHKIcohqmcf5RvE4RB9g4K0fZtDlEOUQ1TbX92Hpcch+mH6m/WnOUQ5RDlEZ/2z0miEHKIaVe+7R84hyiHKIfru340un+AQ1aX2p0mbQ5RDlEN0mg9Djy9xiOpZ4XCIvi9EdeC/821nEmkrHJ+xpJOvmUNUJ2qfOVHdQXR2IMR8fL61L01yP0fQFLw1BTP/oCrfouSC7g1AJb+kLC1yhxcycf6GZ16O8yWPTCSPJXPf9+5rJKmeo/RJl7OjzzfqQD0/HKIzf1gavMMhqkHlvk/UWoco87lJPj0//KMnp8jMPRwDkwDGmaFmKQnCGub8mMIEw0Kq8t0p+Ah9E0DIhymFVcn+fuCihfFoJ0fRqn8ApAtyJu33ZoirA4zBV+WQmsX30r035WVW7nOIvs8n98HPcIh+sApnNwLtQnTC27tEidXimWH39h94IFsCxMSDnCm/GcoCuC3l5Fk+WLUkh1jlZFllob5eJvKAbzaxxMfby6gWp4wW5vOHqVQJM4kSFhKyQsnTPjmafneIqv6BBMLIVQFz0btbsu+VB3VYc4jO7sf4lrFxiL6lorQVTKsQJStU6g9acM5S8mbove4jJ6vQwsMPO4KjcCA5Gxai11uiKk/5E2sYycmDvD++lvjCUkyWoVDNVwPeBCzMpQEwE6u87q+X+GGdlDzJqyzS18k37T2ZEuvFSnwrVuDfEh9skATAnHn0J9lfLz/FN8VhMwFZFoB1EiWOpubgh4AoJiet6ySs5TStDOoQ/NBzDlFtfaZT0uEQnaIO3f/QJkQJSBvEvkiorMaO2EwYs0XkaPkOslAnoMqqumQpqoCmqkKrqv/CmkYW8kCYywNh5iyDIicPBZ3dMHFTwEKqWvdosso8CQnVmkasCk3rzLsrYBceh8u9/XArOgdmyUoDpqRJgKL4NnoG4jv/SJi4eeNwajayOnvxrTIKpoLsZNUymQUAU9Wcquu0TpLaPwpZIEzcvPBnXCrKBwZxcWAIxZ0D2BGZBBMPH9amKeSV2jfZPwkmgyp++icgwJFZ1LQmlcQfG8VeqOkfgENaIVa5KfCzbxg2KMJAuuYQ1f33pQkJOEQ1odUPiFObEKWVODd6eKN+cAB7Mwqwws2LgcXURQ4TJzmD22p5AMzcvGHMoBjEqqlmzp4MMqZiH5i4ythuJFLA1EkO36xc5LZ3wZQWbnORwszDmy0eZyrygdlJKUydpDCllT6pI4gWsKM1kpzliC4uZVoraO0GLdlMgCLwULXY3FkGYxcJvjrihhNxyQi7Wo1lf7jgYFQiYq9U4xvvMLaSp5mrJ0ydpTB28YIZVc0l/jBzk8Lc1QvmTgqYuHjBgpouCGiyYBg7e8I3txDVt+/APT0LDUPDSG5ohYm7N8u76UkJTE/KYUZWtTwYpiIFTJwkbK16cw8vWDh7glYIXUftsh5+WOUix0axJ6q7O2GXUgizE2IU1TbAOiYFy53kHKIf8F3o86MconpWOrqAaFVPDxwSM7HJNxgnM/MhzylCUOl52MalYJ3ID+LsIljFpcHEwxvb/CPhVnAK6xUhLLyypAwh58qxNyUbK4+J4JWdg8zWDpi7SOGRnou9yZkwcpXjF99gKE+VIaD0AnZHJ8NcompzNBMH4V8ePjhf34yKjh7UDo/i56BYtvQyAXizXyj8Ss4yeaS5xThX34iWW7chzivBH3HJ+CMlA2ZkOXp4wik1DRFl5yErKsUGr1CscVfAKSkdHhlFCDp9AeKCU9joEwILiR+znI1c5FDmFSGvoxtLfvsTvhnZON3dB2MnGX72DYL/qTPwP0PypjKoblaGwa+kFAFlF/FbQgack7PxfWA0u2cVHI39Kdn4xl2Gyu4u2Cfm4HhCKsYe3kd2QxNsE9NgJn6PdtZ3sWB5dV4nXzOHqE7UPnOiuoDo9Z5eWEUnwzkhFf3PgaLOPlwbGkH17bv4xS8CxQ0tSG5uw4qjTggsPoPTA0PYpAhEWWsHrgyP4UxrJ5ru3IN1ZCwkaanIrGmAW1IG6u4/xO74NHwr8UFpczvK+gZQ0d+PCwM38J0yEsa03ruHEjZB0WgYGcXByARc7+zGkcxirHDxxndSP5xpbMHloTFkt3YjoboRNV196H3wCDFXaxBdfhnZnb0wdhJDlJaFlnv3UNzWherRO4iva8G3Yj80DQyj+e5jFLR0o+fxX/C9eEVlbXsGwNhFBv/cIhS1deNrJxFO19YjmZ7zUKC4rgVne/pR0deHsoFh/OQTisLqOlQMDSGjrRPexWW43tMPm5QcfHnCHfKcfOR19WG9ixRXuntgn5ANRWEp7v71BBU3xnC06AxMWTOBBqv1HKIzf1gavMMhqkHlvk/UuoKodXQSPJJTcGV4BF+LffGrVImuW3dgHZUE15gUVI6M4d8Sb5Q1NsHv7EWciE1F++272OIXjLWHnXC6pg7J1dVwj4tHx80xdI7fwrGCU1hy1AXu6TnoHB3FAf9AnAwMRNf4OGyTsrHSTQFjF29I0vLQODyC/cpgXG9rQ3JjB5Yfk8IpMQNtd+5hm38ETKkafcQNPhm5yGlsh/GfTvDPLUR+Zy/WuIhR09uPiIpqrDzsjoPhceh4+AQHYtLQ2D8Ir9MXYHTIFXFnziG/oxum7l4wlQewJgvf9BwM3HuI61296Hv0BDvDYnAyMRUdN27igJ8/nIP80X3nFg4mZaGxfwjpFZfwLw8vbHSTo7anFzbJWVh60h2yrBzktnVhg4sMlT29sE3OxdcnJWjoH8D+pEyscpVN7Yh6FwvzbcNyiL7PJ/fBz3CIfrAKZzcC7UNUges9fSCIilLTkdnUwqzAr0W+qOvthX1SNjZ7B6L5xijEmQWo6h+EVUgsPNNyUdTUxtoBjU6K4ZORg9yaGrhHx+ARgLtPn8I+JQtfHnOFPCMHA4+f4Hz/MC4N3UDV+B3sjEtj7ayWTnJkVlSi78k/qBgcxfDjv3Bl+CYsXTzhlZWLks5umEl8YSb1xyonKTyz8pDW0okVR9zgl1uI3K4ebHSXobFvCPtTCrHERYFvxZ6oHxjEidQcVHb1wj4lH0uOekCWmYv8lg4GUTNZAIyd5VBk5qDt9j2kV1xD89gtWEfFwSMpBUNPnuDcwBAuDQ6j/s5dWMUm40RSBmpvjuPSzds4mZqFq51d2JmQgcXHPSBKz0ROWwc2uElxrbsXNim5sHSVoaZ/EHap+Vjh4cMhOrufit7ExiGqN0WhEkSrEJWo2iOrGESTIUnNQE5rO4zcFPiX2BcNfX2wTyvAqpNilFZVo+f2PZT3jWCdhwKi1Gw0jI7jO89AmB1yRsG1KqTVVEOamITytg6cqanFmb5BmJyQQpSeh/bRcRwMjICVIgQ7fMOx1isYZh6+2CRVoGlwCCEXrmGrXxTEyRkYvPcAO4Ni4JScgYbxO/jRK4h18BgfdYVvbj5yCd6/HYF/bgEKOnuwwUmKxv4bCDh/BV/+6Yb9wRHofvAIvyWkM6DtSy/AimMieGcXoJBB1BtmclV13jevALntPTA97IaypmaEV1TCJTEdbaO3sD84Bnt8QrDdLxTrPJUwPeqCna5SXGyox6WeHtR19+BQej6WHzyBmFOlKOjowjo3Caq7emCXnIs1bjI0DQxhX3wWVrDOOA1W5VlnWQBMnCWQJaXr2Vs9t8XhENWz8tUmRE1lAdgo8kLV0BBsYlMhzshGflcPg+hGsRKNIzexL6MQXx71gDK7gGkq+PJ1rHDxxCafYFT2DeJM9wDSq+rQcu8B9selsDgym9ph7ROM/keP4X+xGlu8w1DVN4hTbR2IvlyNwPIqfOsfiVXOXqzKPvDXU2wPS8YyJzm+dpGiZWQEyorr+EHmi6qBQVzoGURibQsOZRbANSkN3U/+gt+ZMkSWnUdRTz/Mj4ngn38KzXfuIfFaLa4ODCG/vR8/egai7sZN7M8qxLJj7vDOL0RhZw9M3bxhTkOcnDzhW3gKRQPDrFMsoOQ0SnoHscU7EJe6+1hbafTlGijLr2FzQCQCyyqQfOk6Lvf3I7mqGqeqalB/9z4Sr9Zg8METNiphnasYtQODsE/Nh4WzDPV9gygfugHH5AKYutPQKQ2ClFfndfI1c4jqRO0zJ6pNiNLYy/USH8jzT+HngChYU3tgTjHMRH5YL1HCu6gUv4QlYJWrN7b7hyHy/CVsDoljw4kICFStj79cieTrNTiaVQIa+mQfHofjuSVY4+YFcVoWAs9fwdeSINiExDPYJF+rhs/5q9joH8Vg7RAeB7/ScmxURMJUGoi1Il9IcwpxLL8EJk4y2IfFIOXadaTW1OJwVhF+UQQisvwy/M+W41ByFk7mn4Klhw/We3hDll+E1OoahFRU4ge/KKz18IF3cSk2hyXA2NUT9pFxOJFbAnORHxtaZe7uA8eoRDgVnIaxqxd2BkXD92w5vpYFwDo0GgmVlUi8VgXvCxX4NTgWytMXkXa9FoGXKP4w7AyIQOylq4i9XAWfUxX4Mz0fa93l8Motwc/BCawjySU5C6nXarA/JR+mHrx3fuY333DvcIjqWdlpD6I0aJzmnftjNY2fFPvCgsZnOiuYU5A1NB3SRcaG5dC0zNUiH5iflMLc3U81aJ0NkveGuYuEjQelgeurpb5Y4+EDUzcF1tB0TKrCuniz8aA0ntLCWY7VLjRuU8EsMpoltUakYOM4adiRpdwPlK6FmxymHl5YLQmGhbsXzJ0pDRlWuyuYHARXCxc5LNwn0qKB7ySvq5yNKaXxouY0dVNKY0w92ewpNp3T3Rdmrj4T41NpQoEvVrtTHryxThqINR7+sHD2wlpxMCxEfljtLMEaZzHM3GQwp1lSJ+VY7SSFibMcpiJfphsTF7omg5mzAuaUb6kCq528YObuDzOSy9Ub5k5SmIs0bIXy6rzOvmQOUZ2pfvqEtQdRmgGkNoOH4EVTP6fMoVc5FLGUq09xFKZD0lHJpjqqZhORlUU7xROA1RIC28TMJPaBq2ZCqWYTqZyGqDwm+UMVv9p8dYIPzQ5iU1FV8VD1m6rCNAhfNc1TvVpMcgaCZk7RPwY6V8U5IcuUKvQLmSwm5CVZ19A0TmkgLOlZSnfK7CbVVFTKl4VcSFeVprmc5vrTtUCsZs5U/FT5p7wzuFN69LygN+F5DRx5dX76j0rDVzlENazgd41emxCdtn2OpkhOgc5Lv990X3j2bcK9TRghvvc9viENNv/95TAv/xbSnum6cF84ytT/6bykPyGMJo4cou/6uc1KeA7RWVHj7EWic4hq4uPmcb7+H9Ns6YdDdPY+xHeIiUP0HZSljaAcolq03GYLXvoSD4eoNj7RV9LgEH1FJbq9wCHKIfra5pTXAZtDVCcfL4eoTtQ+c6IcohyiHKIzfx/6eIdDVM9KhUOUQ5RDVM8+yjeIwyH6BgVp+zaHKIcoh6i2v7oPS49D9MP0N+tPPwZgHZ+Kr9zJM7z6OE4Ol/eGy+vaEQ34nmrFAGH8bSCbymrkLIGUz52f9e/ydRFyiL5OOzq49xcAq4gYrDjqBgsn+cQugwXN0uE718HEO2DuJIOpM+3SF7uLDF8dOg5RbIIO3tz5mySHqJ6V/TMARbV1iDt3EUkXLyPp4iW+cx288g4kXryE+IsViLtQzvbYC+WIvVCBqLNlKG9s1LO3em6LwyGqZ+X7XM/k4eJwDXANvF4DHKKv149W7xJAOUS1qnKeGNfAB2uAQ/SDVTh7EQgQ5SCdPZ3ymLgGNK0BDlFNa5jHzzXANTCnNcAhOqeLl2eOa4BrQNMa4BDVtIZ5/FwDXANzWgMconO6eHnmuAa4BjStAQ5RTWuYx2+wGigvL4epqSnMzVdj9eo1arslTExM8N133+HmzZsGmz8u+OxogEN0dvTIY5mDGuAQnYOFqoEscYhqQKk8yrmhAQ7RuVGOms4Fh6imNTwH4h8aHMaWzb/CyMhErUqrqt6amJhh06bN6O8bmAM5nZoFDtGp+uC/ptcAh+j0euFX1TTAIcrbRNVeB376kgY4RF9SCP/5qgY4RDlEX30r+BVBAxyigib4cUYNcIhyiM74cvAb4BDlL8EbNcAhyiH6xpdkHgfgEJ3Hhf+2WecQ5RB923dlPobjEJ2Ppf6OeeYQ5RB9x1dmXgXnEJ1Xxf1+meUQ5RB9vzdnfjzFITo/yvmDcskhyiH6QS/QHH+YQ3SOF/BsZI9DlEN0Nt6juRoHh+hcLdlZzBeHKIfoLL5Ocy4qDtE5V6SznyEOUQ7R2X+r5k6MHKJzpyw1lhMOUQ5Rjb1ccyBiDtE5UIiazgKHKIeopt8xQ46fQ9SQS09LsnOIcohq6VUzyGQ4RA2y2LQrNIcoh6h23zjDSo1D1LDKSyfScohyiOrkxTOQRDlEDaSgdCkmhyiHqC7fP31Pm0NU30tID+TjEOUQ1YPXUG9F4BDV26LRH8HmK0QrKireuNrn6Oio/hQUl0QnGuAQ1YnaDSvR+QLRf/75B0+ePMGzZ89YAV28ePGNEL1x4wYL+/TpU/bs8+fPDatwubQfrAEO0Q9W4dyPYL5AdGRkBB4eIuzYsQsODnuxbdsOWFhYvrI4H61BT9fXrl0Pa2tb2NjYYfv2HUhKSgKBmG/zSwMcovOrvF/JLVlOd+7cmbS+KABZVQ8ePJgMOx8gKliQDfWN2L3bGgu+WIRVq4ynBShB1NJyLSws1mDp0uVYvnwlvLy8cfv27Umd8ZP5owEO0flT1q/klGA5MDCA4OBgNDU14ebNm6Dq6ZkzZ5CbmzsZfj5AdDKzAMZGb8HdTQRaDtrU1HxGkK78yghr125AVlY2BAirx8PP54cGOETnRzlPm8u//voL6enpsLW1hUwmg7+/PxQKBYKCgtDT0zP5zHyDKGX88eMnCAkOhbmZBYyNTaaA1Nx8NVauNMKmn39B+cWKST3xk/mpAQ7R+Vnuk7kma7S5uXmy+j6dRTUfIUoKIl3k5ubhm2++wapVRlizhtpCLbB8+XLY2tqgtbVlUo/8ZP5qgEN0npb9hQsXkJiYiIyMDOTk5CArKwuZmZlsp+vXr1+f1Mx8haiggEuXLmHTpk1YtmwZjIyMcPz4cdbsIdznx/mtAQ7ReVr+NTU1OHXqFEpLS3H27FmcO3eO7efPn2dtoi0tL6ys+Q5RekVIH/b29qy5Q73TbZ6+PjzbahrgEFVTxnw9JZBGR0czyzQyMpK1idbV1U2qg0N0UhX8hGvgFQ1wiL6ikvl3obe3F42NjWhtbUVVVRUb70jtpMLGISpogh+5Bl7VAIfoqzqZV1em60gimBYWFk7qgUN0UhX8hGvgFQ1wiL6ikvl3oby8nA11orGhaWlp8PX1BbWZChuHqKAJfuQaeFUDHKKv6mTeXaGqPHUuUY/95cuXMTg4OEUHHKJT1MF/cA1M0QCH6BR1zL8fVJ2n6Yo0XpR2mq2Un5+PR48eTSqDQ3RSFfyEa+AVDXCIvqKS+XWBHGZkZ2ez+fM05CkuLo5BtKysbFIRHKKTquAnXAOvaIBD9BWVzL8LNDY0JCSEzaG/e/cuOjo62CB8QRMcoqrZS4I++JFrQF0DHKLq2pin53///TcaGhqYAxJSwa1bt9guqEOfITrd6AJB7g85aireD5GJP6ufGuAQ1c9y0apU5IiYpjaGhoaysaLkmER9Vo4+QVQd9oKSyBPVtWvXQONd6R/AbG3kX7SkpITN7CouLgZ5uifdvM/W19eHsbGx93mUP6PnGuAQ1fMC0oZ4NGOJIBETE8NgSh98QUHBZNL6BNGIiAgkJydPykYnNCyLPE/REC31mVbqgdQtS/Vz9TAvn9OIBZrqSbohfVA7sXqH28vhX/c7NTWVTWR4XRi697ayvSkefl97GuAQ1Z6u9TIl6pEn+IyPj7MhTlevXkV9fT3rXBIE1ieI0jAsctsnwIY6xiQSCSorK3Hv3j1m7Qn3SH5aA0kAH1nc6hY2WZXUlEEbPUP3hKVB6Nrp06chlUrZffU/jx8/ZhYphSXrUv0ZCkcykT7pOoWlNMhXK8lC6ZAcdI3OhXAvx0/h+WYYGuAQNYxy0qiUNC6UPDh5eXkxaERFRYGqssKmTxAlEDk7O4OsZdqGhoYYRB8+fMjGuJJPVNoIYDRUi35TfigcVfvDw8MZxCgMWbRkhdNG98k5NcUjbARRuVwu/Jw80ljahIQENraW4iPrmDrkaOvu7mZpCKMcKE5qZiDIC7IJU2spbXqWdqEZgp4PCwtjspAFTP/k+KbfGuAQ1e/y0ah0ZA1RT/zw8DCzwsi7vTDovqurazJtfYIoCSUWi5mcdE4gEuBUVFTEAEvXqY2X/imQdUrQoqYKWgZFJBIxAJO16OrqytqBKTxZuGR1qluxpIvDhw+zTrfq6upJR9V0ffv27awdluBH6dCidgRuNzc3NmSMoErybN68mT1HTQEuLi6UFGtb3blzJ3ueLFFPT0/mQYueJ6fYNIOMrOLAwEBQzYBv+q0BDlH9Lh+NSSdYagQAAgxZVwQkOidLiMAjbPoGUfLGT22gtJElSFCjjTqB3N3d2Tl5o8rLy2PVaPpHQXCjpU/I6hNmZVFe6Xmq7lOTBk00UN9o6JeNjQ2zOuk54T6lc+LEicmgZDHSEDGydAmIQhMBVdv379/P/lGRq0EPDw/2DJ2TPMJG8VL89Ly3tzeDPFXnyZol71p8028NcIjqd/loTDqqwpMjZvoy7wWQAAAgAElEQVTQqW3Qz88P8fHxk7OX1BPWN4iSxUzwJyuOrEdhKROCG1matB06dIidE0ypSk3+AGhmFjlWoXwTeAlmtEInWZkE1La2NvVsM2iS1fvyRhamAES6R+mSHGQ1+vj4TAanf1RHjhxBe3s7S0t4htIm+YWNrFTSP40wsLOzY0AluJNVSk0SfNNvDXCI6nf5aEy62tpa5tFeSIB6j9Wr8MJ1OuobRKmzhqBDliZZgFQ1p41gJoCK2jKpSk8go38UdKSN/ASQpU3QpPzSsCXKO/1Wbw+lsGQhUqfVyxtBVLB46R5ZotTZRe4DCY5CkwBZpAcPHnzFEiWIqre1Ug2A4Euy0fMkL+2UL5JbiO9lOfhv/dAAh6h+lIPWpSCri6ynlJQUNkTo2LFjrA2OqspUjSSrSNj0DaIkF4Fv3759Uyw1ghm1c9JGU1iVSiUDI3XOCMsZEyjJwqOdINXf38/AS1NfX94oDgHKBDIBZgRR9eq4AFVqFqB2T2rTpDTp+OuvvzJLmaxeAbwETYKusNFvgio9T9AW2kFJZmFkgRCWH/VPAxyi+lcmWpGIrCRq9yTrjSwu+uDJciPLjKqX1I4obPoIUWrXpM4ddTkJogLcCD70z4Cq8jSJQGjPpDxRh43Q1khW7e+//846loT8CkdqE7WysmLtphQHxUUdRgQ9Aa4UlnQoAJLWpiJAk5VM+969e9HZ2cl0Ksj2MkTJMqV/aLRRmQQEBICaIWgXRiEIMvGj/mmAQ1T/ykQnEhEcyDolh8y0nhB1wgibxiH6XEjp7Y8EPwKM+hAgstzIslTfaMgQVbPVLTpqS6Vee9rIuqR41MePCs/fv3+fVbGp6YN28rFK6dKz1AkkbEK6gqVK96nNmY5UPafRD3QuAFEILzxPowbU46N0aWYWPSc0Qwhh3+b4Hup8m2h5mBk0wCE6g2Lm02WqulOvMrUvkvVDlhpZpsKmjxAVZNOnowBkgiBttIoqdWgJbbYal5WaHOgfg8YT4gmoa4BDVF0b8/CcPnBqB1W3hF5Wg8Yg+lz1wT8DdfoIn79wfFkKw/hdVFyE0NAQRMdEQ+GjQEvLi7WqNJqD56RMdT1qNDUeuZoGOETVlDFfT8kSJcuTpjDSTmMUBWuKdKI5iFJnjapnfa7o/jmeYnhkEN09nXj6TDWlVOt5m4Sp1lOelwlyiM7LYp+aaZreSL3C1HEijKvUTnX+Oc3PxPjQHdzoHMVo19iLvXMMowa23+wcw1j3Ldzpv4e7/fdwq+c2RrvGQdc1mZebXWO42T2Gmx2q/e+HOoL31Ndq3vziEJ03RT1zRqnThXrkqROEeoapE0W9Q0NjliiJ9BTwdEiEzSoZ9lsqsG9y98E+y+l234nr6mH5+T5Lb+w184H9GhE6mrpnLmx+Z9Y1wCE66yo1vAhp3jjNVqJebOqBJmtUa+vO/wNIf8rD7v8Ohf2CKLU9EvYLptspzHTX+TX7z2Kwe6EPWutfDE8zvLfR8CTmEDW8MptViWm8KA24Vx/SRMNryKuTsGncEt1cCOtPIrB3SQzfP0QHC+Jhs9QfbQ0vnMcIZciPmtMAh6jmdGswMdNgbxoYTu7vaB46TYEUZs1QJjQP0QJYfRIOxyXRansMHJfMtKuH4+eTelsYB+svlRyiWv7yOES1rHB9TI4GkNPsHJrFQ2NFadaN+qYbiMbCccnrdg7PSXgK/3w4RNVfW62dc4hqTdX6lRB5bqIqPI0TpRk0NKyJZvvQeFFyfEwzbIRNNxCdyQoVrr87RPctjsK+xdGqJgM6TuwqizcKjkvUd4o/Cg5LBZC/e3rqkKO0XsRPefiw+KZ9nkNUeGW1euQQ1aq69ScxciZM1id5C6K53+TYmOaHkyVKHpJoHr2w6QaisweZvUuisW9xDPYvpjZXguJE2+sEUB1Ys0EkHJeo7yroCe2000LrHUBIAN+7mCCtgveHxjft8xyiwiur1SOHqFbVrX+JkSVKXtnVB9fTvG+teXGiIU6bp2sTnV2IHlgch/2LEuGwKBYOS2Kxb3E89i2OgyOzNKPhQFan2q6yHFXAs/ssAvYTAJwWXm+C6eJo2H4eDsdFBNGYSZi+V1yvS4tDVCcfGIeoTtSuH4lSlZ7cuJEXI2oPpR75jIwM5kJO3euRYVuiVHWOxJ6FPti5yBs7vpBjzyIl7BaGwOaLkBktQ6r2Oy6OhsOX4XD+dwIOGsXD4b1AGgOHpRFw/jYBfxonwoFZv2Txzt4/icm4OER18mFxiOpE7fqRKA2op04kcpJBvfPkoo18aNKyw1odbK9JS3RRDOy/DEGCNB+n4spRFncFYQezIdsSh6Qj52C9KBz2rDovWKMqwO1bEgfHhQlw+CoQreUd8N95GtafRqiguyQG+yaaBV4eQUDVf4Kv6no0HBfEsziayzsQsPs0bD6NwN7FHKL68QXMjhQcorOjR4ONhTwPUacSWaXCRufqruMM2RJ1WBAL+5WBGGq+ica8EZQGdCDMsRReu+OQLarA7i+CsWdBKPZ8EYQ9nwXAbmEk9i6Nxd7FMdjzaQR2LVWgra4DwdalsP4knFmjNovCYPVFCHZ9HsRgab8wClafk2UbDJvPg2G3kKrt8bBfEo09H4dj9xIpOmo6EGRzFtafqqr0k9bjbFqk3BIVXmGtHjlEtapu/UuMBtvTmkPUIy9s5FeU1iISNkOHqINRILqr+uG5JQub/ssbuz/3w29rPHF4gxK/WwTA+acEiHZEQbw1AXu/jIIDzYhaFgi3zbGQ2EShu7EXAbvOwPqTSDgujsCRDRGQW0VDvDUe1ktDsN8sDC4/JUG6KwqSrQmw/zIKtgtjYLMiGCd/joLIOgzdDT0I2F3KIKrqyOLVeeH9MvQjh6ihl+AHyk/VdmoLpcXfhI0G35MvTGEzeIiuCkRXbT8Cfk+GnYkMe770RJxzHipir8HvYBTudz5D5/lx3Gp5hMTjl7DtYx/EnCzC7eZHGKy5iX/u/Q3F1mJYfxQJ2wUhyJFeQ1vpMIau30LksUIo9kfjYdczdF0cxe32R0g8cRlbPvJCxIl8jDU/Ql/tOP659w8UW4tg9UkkOESFN2tuHDlE50Y5flAuyPs7DW8imNKSGrTCpeCFnSI2dIjafRWAzsY+DNTeQtuZm4g+dBbRHum4nH4NgS6RuFF3F7+t90eCIhM1OT3YtsgLLZd6kSO/CqfNgRgbvAm/XaWw+TgatosCcfTnAMR4FaL1ageu5FUhwDkMN+vu4LcNfkgMyEZDbi+2fS5Dw4UOZHtdxfHNoRjtGYNy5ylYfSKMPeWW6Ae9tHr0MIeoHhWGLkQRlrQgP6K0bhHtL696aegQtV8VgO6aPqS6X4Xrj3ms+h0jSsWltEqEuMSgPrMHP/6fEwj6MxZVmZ3YucwTrVd7IP4+H5s+9kBzVTMCrcpg81EMbJb4oyS2AvXn29F2tRsXMi4jwDUcDTm9+PH/d4L/sTjUZnezOJovd0P+QwE2fyRF89VWBO05C6tPuSWqi/dck2lyiGpSuwYYN7WR1tfXT6neGzxEjQLQU9sP5bYSbPvvUPzysRxx0nRcyahEmHsUmrL7sPm/3BF+LAnV2V3YvcQbbVf6EHf8Eg7+KxAjvSMIpDbR/4mC7apA9DWMQGYbiRhpCi7lVSLYNQzNuYP4+X/ECDuZhNq8TmxfIkLLpR4kHr2MP74Jwo3em6xN1OaTcD5O1AC/i9eJzCH6Ou3Mg3vUE09OR2j2UlRUFLy9vdnqllpzhafhwfYOC2PBLNGqPgTvPAvrT+Lw62e+iBNl4nLqNYS5xqEhqxeb/0uEsCMpqM7qwPbPvJGqKMXN5rtoLe/Bo+HH8KH2zI+iYf2lP64W1KPn+jCGGsdwtaAGMaIkNGb2Y9P/ShB+PBl1Oe3Y9pkYad6luNl0Dy0Vvbg/8hg+20pg+2kE9rFB97w6P1c+Lw7RuVKS75gPWt2T1m6naZ6JiYlsqeTw8HA2TvTlqAzZEqXxmjRg3v2XJPxpkgCHRTGwXRSGP9dHsEH0f6wNh9t36bBdEIo/LaPg+n0KbGjs6KpAyHdmwHtPOkSbk/GHEc12ioHdkggc/iYKvja5kG7PhNtPSTj+dRTc/p0G64Vh+GONKg77haFwXBkETxZHBjy2JuNP4wQ2RIp3LL38hhn2bw5Rwy6/95aenI/QOug0T55mJ9FYURrWpD5nXojcsCGqmnm0+/Mw2C2KZM5HyBGI7cJI2HweCbsFMey4f0ks7BbEwvrzCNVU0EVR2PNpKKw+Dceuz0NgR7OVlkaze7ZfRGP3J2Hsvu1nkbD/IgrWn4ex8aUUH53vpwH5dP5JCKw+pTGlIbAnC3QpDernDkiEd2suHDlE50IpvmMehM4kmjdP8+TJsz31zMvlcladp6VC1MeNGhJEVXPeCVIqZx9sUDtN3yQAkvMPBjByBiJUp1UOSVTeneicrqvuU5i9S+LgsJTm1RP8VM/TvHs6p3A0/14V58RMp8U0L1/1/P7FFB/JEQX7pTETz3AHJO/4uup9cA5RvS8i7QhIYH3w4AHrVEpISJhikRoGRGPY9M29BLXFccyZCAMYczBCTj8EaE5/ZN6amGu8KNguCIPDohdTM6d7VoDqvsU0u4lASVYuATQW+wQvUUtiYL80is1cEsJrZKaSMOuJz1jSzsfyUiocoi8pZD79JHCqz5FXz7tgrdI1fYcoubqzXRyMLV94YfvnCuz8VAmrBWGq6jcDmWBhTg9QFdhU7vEcl0biT8toHPiKvD3NFJ6sylg4LI1ks5/sF0RgH7NKo2H1uS+sFiix6wsl7BZFwGHCAuUQVX+75tY5h+jcKs93zg3Bkhwxvzw2VD0ifYYoWZA0i+jYv0KQ7FmETOVpZMnPQ/pLrqodc6JKPukQRM1KVFXDVaC0XxqNvQti4fhVCGrL2uC7/dSEw5EJuKq1Y5LFuXdhIuyXBSPsUCaOrY2Dw4II2C0Jgv/edPhb5SD6UD6cNqSzhfdUACXwCm2hwlFoXiAZhHRmAvdbXOeWqPprq7VzDlGtqVp/E6I2UGoTpfZRWmeJjnfu3JkUWL8hGoftnygQfiIZD7v+wsWENvRdHsON2gdwXp/JOn+svwiB7YIIlWu7RdGwWxAB2y9UO7mmI4CRv1CbTyNhvcwPXfU9CLKi4VARIOciNp+Hq56ndtHF0bD7IgJ2n8bC6ksl2q/04LSyAbv/NxAOxv4Yqh1DoVc1ykKvwHNTAWw+o6mi4bCm9CaGNlH6zK0e+RlVk4tkmtn65RCdfCH17IRDVM8KRBfiFBcXs556WnM+KCiIrT9P40aFTe8h+pk3ItyTcC29CZv+RwxrCwlGuobhv/sM9nzph+M/KHHEMgLWC8OxzyQYf6yPwLHvgnFsYxTzuES95jT+88+vg3BskxJdtT3w330auz4OgaNREE58H4RDa+j5UPb70NowHFsfDevFPkjzy0NDYS+2feQN8Z443Gy+D5cfErB3rQf2fRUFuy/D8MeGABz7IRx76feSEBzaEIr9y6LguDwUv68Lhf3SUDisCsLhryOxf3ksHFmH1FtA8+XmBm6JCq+sVo8colpVt34mRu2iNO2zurqaDXUiN3jUcy9s+g7RbZ96I8Q9CVW5Ddix1AkS+1j01dyEx+YUFIZfx83aOxisuAf3TWnw/S0eY02P0H1xFKMN9xG29zy2/q83/A+msoHx/XWjeDz+GPIt+dj8iRSno6two/YeBiruwO2nZHjaRuF26yP0nrmH4+Yqz003mh/ggFk4ErzyUJ/XD6svfdBU3A3Zz9lw3hyJgSvjuFF/GxeiuuBoFILawnYEWBXh2I+hGKm/i2Mbo6HYm4iWwkH8tjIO9gvfA6AEVA5R4ZXV6pFDVKvq1s/EOjs72SwlFxcX5qSZhjfR2vPCpu8Q/fVTL/g6ReN+30PUlrTin1tPURxeCal1DHpqh3BijxdKs87jfEIVQlxjcav1IZx/jkR2ZDGq03uwg5yFXGxHaUg95I7xuDV0G+JfMuHyawy6agdwbLc3zqSV4mzMFfgeDsF45z147c6C46IY7DP3R3fNEHzsslCefx350ibsXqxAX80w/KzyUJ5dg5KoC3C19cJw0yg8fkrBqdgKnAq5Bu/DEcA9INb5NHIjT+NqXDf2fBY84dT5PUDKISq8slo9cohqVd36lxhZnLQkyPDwMM6dO8fWVurt7UV6evqksPoO0e2feiHYNRYdFwch2xOHC2mVqC/tQJxnBsY6byEvohRtV7pwIaUSEe5xaMjoxQ//xxUhxxJRld6OPcs80XG9D/J/52LrxyK0XGuHeEsqAg4nYqzvNvIjSpl3+9L4CihPhqEyowVbPvKG44JYWC32w4WsSlQXd6P1ah+kPxTDaokfuq71I8CuAO3Vfag504LTMRcw3nEX7j+mQnkgFZfzr6MkrRQtZ3tRkVOLq6frEO54kTkoedEJ9o4g5RCdfGe1ecIhqk1t62latFAdzVQimGZnZ7NOpsrKyklp9Rui8SCIhrvF4lpqM/7z/7nBfXMkbnaO4VQigesBsn0rkS6qhGhLPGLEyWjO7sfm/+uJqJMZuJbRih1fytBxrR+R+8rhaOaPgfYhSAiiBxNwf/AxcnwvIVN8Be6bYxHiEofqjDbs+SwI+xYlYOenCoQdT8bz+0BDaR8OLE+C7XJ/dFX1I9CmEG3XB9FwagDJovNIcKnAwVWJOLoxGm21neirv4GgA/loqW5Hd/UwXCwzQDOg3nssKYfo5DurzRMOUW1qW0/Tevz4McrLy9k8enJAQovX0TVh02+IxmH7p96IcktGY3YnrD8OwQGjEHTV9KI48ho6KgdRU9qMyxktbL57rCgFbUVD2PTfEkS5pKMurwtbPpMiL+ICxtofoOF8J/659Q/EW7Lxx7/C0Vt3E1Vn63E5oxHeNlkIcY1DfU4Hdn8eCPsl8dj9WSDcf4kC/n6G83Gt2PlRCOxWBaG/bhh+uwuQHXAZAw2jOJd1FWVhjThqkg2rhUp0Xe9D55lR7FwiRWd1D1pKhuDABvmrZji9F0g5RIVXVqtHDlGtqlv/E1MfZC9Iq98QjYHtwlAc+zYKXtuzYb+IhiGFw3tPJkQ/ZcL1P3FIcCpFwvEyuH+XjuPfR8FrZy72LAjA8Y1R8N6eC5uFodhrFoDQQ/mIPFIEf8d8HDJPwq4FgXD9JQlxzmeReKwMrv9Ow5Fvw+G1Iwe2NJCeDXmKgO3SAPjuzYH7j9mw/yISDssiobTPw2GLeDiuCkbIgWIkOZciam8p/vgqDXaLI+C1IxPynyjtAHjtyoDslxzYLQiH43utKDpR7ecQFV5ZrR45RLWqbv1M7NatW6wKT67wYmNjERwczLw6CdLqM0TJYtu7NAY2C6Kw5zPVapw0D97m03DYfR4F288isPujIOz5KBh2CyJhsygK5Ixk39IYBjybz8KZsxD7hRHY+VEgrD4Oxp5PQtlso71Lo2H1WTh2/m8Idn8UysaM2i2Mxp7PVVVuWgqZpnvS7KWdH0fC+oswNnOJBvHv+VTl8MRxYSysPgpnMlh/Esqmn+5dGsfWWrL5jMJHs0H9Nl+Ew/HLiRVHl75nlZ5DVHhltXrkENWquvUzMRpoT2sqtba2sp3WW6JB98Km7xBlIKVZRGwp4xgQRGn+OjkKIQcizLkIG1RPYYR7Kkcg5Cxk3xKCVpTq+cX0nMpZCM0wovA0d14124ieVzksYVboUprWGck8O+2ltJijE4orkjkhcWRhSQbVMyQfLZdM4fYtSoQjLcvMxnrSkdKccHRCcb5hrv+01X0OUeGV1eqRQ1Sr6ta/xGiMKPXK0zjRmTbdQJSmRr5un67nmoCogihzBsLOVW2MBKgXjkTomsork2qGkAqalB55ZVKtKU9gU3loUjkYIchO/J6cvkkyqJyPUHyUtvB7P5tuGj+ZDrvPwKgKr5pyqpqfT4CmaacqmVQwVUH0HfPPITrTK6zR6xyiGlWv/kZOM5Li4+NZjzw5Zj5+/DhzzpySkgLy4lRbWzspvG4gStbb6/bpIKqyGlWwVM1FfwHO6cMTuNR3Zi1OgTfNb1eFUYFvZld26mkJMkyJe4p1KQByavovwr8u73Rvmuc4RCffWW2ecIhqU9t6lFZVVRXzYk9WKA1tOnXqFLNICa7UO0/3hU03EBUgM9NxGohMBxaDvTZTvoXr0+SfQ1R4ZbV65BDVqrr1LzHqVKJlkmmAPXlyIp+iNGaUvNwLm24gOg0kDBaIWsoLh6jwymr1yCGqVXXrR2LCMKYnT54gLS0NBw4cQGBgICIiIiA4IaGpoMKmUYj+A8h/LoTV/0bCcVHsO+wx7xD2XeLVddgPyNcXCbBe7I+2hi6h6PhRCxrgENWCkvU5CRpUT9X3s2fPsvny6i7wBLk1CtGngPvWOGz5WIRdSzzfYZdh15K5vL+LLjyxc4kcuxZ4Y9sSV7TWdQhFx49a0ACHqBaUrK9JdHd3IzIyEmFhYWy5ZDrSip81NTVTRNYcRJ8Dz56h8UoHLhfWoLKkHleL695yp7BzeX+THtTyLuitqB5Ximpxb/zBlPLjPzSrAQ5RzepXb2OnqjxV32mlz7///pvJSdV8AivBtKPjhTWjMYg+f47nz1+43NNbZXHBuAZeowEO0dcoZy7fogH1ubm502aRBt3T4Hth0xxEged4jmd4BjpT7XTO9zfrQNDXxPE5HZ+qdPic9Mc3bWmAQ1RbmtazdPr7+9nQJrJIX97IqxN5uxc2jUF0IgH2/QuJ8eP7aYCx9Bn7p0SnfNOeBjhEtadrvUuJxoZSmyhZnuPj48ynKHUyubq6YmhoaFJeTUN0MiF+wjVggBrgEDXAQvtQkYUhTk+fPgX5DaWZS7S2UmhoKLKysqYAlNLiEP1QjfPn57IGOETncum+Zd4IqlStV19XSf1RDlF1bfBzroGpGuAQnaoP/msaDcxniJKzalNTU5ibr8bq1WvUdkuYmJjgu+++Y4v7TaM2fmmeaIBDdJ4U9Idkk0OUQ/RD3p+5/iyH6Fwv4VnIH4coh+gsvEZzNgoO0TlbtLOXMQ5RDtHZe5vmXkwconOvTGc9RxyiHKKz/lLNoQg5ROdQYWoqKxyiHKKaerfmQrwconOhFDWcBw5RDlENv2IGHT2HqEEXn3aE5xDlENXOm2aYqXCIGma5aVVqDlEOUa2+cAaWGIeogRWYLsTlEOUQ1cV7ZyhpcogaSknpUE4OUQ5RHb5+ep80h6jeF5HuBeQQ5RDV/VuovxJwiOpv2eiNZByiHKJ68zLqoSAconpYKPomEocoh6i+vZP6JA+HqD6Vhp7KwiHKIaqnr6ZeiMUhqhfFoN9CcIhyiOr3G6pb6ThEdat/g0idQ5RD1CBeVB0JySGqI8UbUrIcohyihvS+altWDlFta9wA0+MQ5RA1wNdWayJziGpN1YabEIcoh6jhvr2al5xDVPM6NvgUOEQ5RA3+JdZgBjhENajcuRI1hyiH6Fx5lzWRDw5RTWh1jsU5nyFaUVHxxtU+R0dH51iJ8+y8iwY4RN9FW/M07MjIDWzdsg1GRiZqSwarlg82MTHDL79swfDQyJzQzj///IMnT57g2bNnLD8XL158I0Rv3LjBwj59+pQ9+/z58zmhC56Jt9MAh+jb6WlehSIIjI+PgyysBw8eoKWllYHS2Nh0Woj+9NMmNDQ0sbBjY2MGrauRkRF4eIiwY8cuODjsxbZtO2BhYflKvmkNerq+du16WFvbwsbGDtu370BSUhIIxHybPxrgEJ0/Zf1OOb18+TJsbW2xdetW/Lr1V6xbt2FamFiYW2LNmnXYunUbtv26g1ms75SQHgUWLMiG+kbs3m2NBV8swqpVxtMClCBqabkWFhZrsHTpcixfvhJeXt64ffu2HuWIi6INDXCIakPLBpgGAaWkpATffPMNli79EubmE9aYhaoaTxARQEIQXfblChgbmSI6KsYAc/uqyGOjt+DuJgI1V5iams8I0pVfGWHt2g3IysqGAOFXY+NX5rIGOETncunOQt6ampqwa9cefPXVKpibr54WJitXGuPf336P0tKzs5Ci/kTx+PEThASHwtzMAsbGU9uDSRcrVxph08+/oPxihf4IzSXRugY4RLWucsNLcGhoCIcPHcVXK1bBzMxiEqTUJkhw3bVzD+rrGwwvY28hMVmXubl5zCJftcoIa9ZQW6gFli9fDltbG7S2trxFLDzIXNYAh+hcLt1ZzNv9+w/hKfeGibEZqIOJqrgrVqzEwYN/YmBgaBZT0s+oLl26hE2bNmHZsmUwMjLC8ePHIfTK66fEXCptaYBDVFuangPp0BCe+LgE1sFEHS4ymSfu3bs3B3L2dlloaWmBvb09FAoFG4nwdk/xUHNdAxyic72ENZC/4uISJCen4K+/nmggdh4l14BhaYBD1LDKS+fS8h5onRcBF0DPNMAhqmcFwsXhGuAaMCwNcIgaVnlxabkGuAb0TAMconpWIFwcrgGuAcPSAIeoYZUXl5ZrgGtAzzTAIapnBcLF4RrgGjAsDXCIGlZ5cWm5BrgG9EwDHKJ6ViBcHK4BrgHD0gCHqGGVF5eWa4BrQM80wCGqZwXCxeEa4BowLA1wiBpWeXFpuQa4BvRMAxyielYgXByuAa4Bw9IAh6hhlReXlmuAa0DPNMAhqmcFwsXhGuAaMCwNcIgaVnlxabkGuAb0TAMconpWIFwcrgGuAcPSAIeoYZUXl5ZrgGtAzzTAIapnBTIfxeGOnudjqc+dPHOIzp2y5DnhGuAa0IEGOER1oHSe5AsN3LlzB4ODgy8u8DOuAQPTAIeogRWYtsUdHx/HhQsXkJKSgoKCAvT09MyqCCUlJZBIJK+Ns729HSEhIYiNjUVkZCSys7Px+PHj1z4z2zdJD9evX8ezZ89mO2oen4FrgEPUwAtQ0+KXlZXhyJEjuHbtGoOXWCxGR0fHrCVbVFQENzc3Ft/w8C4lxuUAACAASURBVDAuX778StwEb1qqmO4R0EmWv//++5Vws32htLQUY2NjLNquri5kZmZyiM62kudAfByic6AQNZkFgpy6pUggiYiImEzyxo0baGpqwj///DN5jaw1Am13dzdorXra6Pzhw4fs/Pbt2xgYGGDnxcXFLH56Pi4uDocOHUJdXd1kWApUWFgIqVTKwgt/njx5gr6+PgidUtQsQGkI28jICBoaGqbIRfcePXoEsmyFJgR6rr+/X3iMxUlxk3zW1tZITU1l55SP1tbWKXLdu3fvlWuUN4qTLOWXw08mwk/mlAY4ROdUcc5+Zgiicrl8MuKsrCwkJCSw31S9lclkCA4ORlJSEv766y+20/3w8HBW9SawEegIjvX19ey506dPw9PTk50TRCkOgg6B0sbGhsF0dHR0Mk2yRF+GKAHZy8sLlZWVLFxiYiKTgX7U1taye0FBQUhOTp6s+lNTxP9r7zz8qjzSvv8/ve/zvLvPRqUcmi1mTeIm2Wc3m00x0WgSjdGISjm9cHoBQelN+uHQBStEVIpK7x1BBVs0UZPf+7nmcJMjSwzlgKfMfD43d5t75pprhu+5ptMPAMlXUFDAAFtbWwu5XM7CIDljYmLQ09OD5uZmfPTRR5DJZGhsbGTvo6Oj2Q8G3bS2tsJqtbI4zWYzAzM9P3fuHOje4XAgKSmJyUFA5853NcAh6rt565aUUZX222+/BZ0JPARMggJZdATXzs5OFg+1VxJY6J6q52S5ERjpICvz8OHDzMIkzzU1NQycdE0QFSBGcRBQFzry/9VXX4HgS1CneMhdvHiR+SeLjyBLViDFp9frmRVIfgjmDQ0NTAZqV62vr2fXBGGCJsUvlUpZeHQfFRWFrq4udv/dd9/Nx0VpoGYNSh/9WBBsKSxypaWlDJZ0TRD97LPPGIipyYFASz8C3PmuBjhEfTdv3ZIyAtuBAwdAHUAEm8zMTBYuVeHJSiOgkYWZmJjI3k1MTCA2NpbBiYBGjqDzKktUgCi1vy4GUYLn/v37GUDtdvu89UnNBmlpaYiMjGSgpLgIciQnWZIkl8ViQUpKCqvqGwyG+eYFJtgCiBNEydp0hSg1LZAjiB47doxZnGRd63S6+fbRR48eMV0QxAmiApTpO4I0Wczc+a4GOER9N2/dkjKhuk2BPX78mAGCQElVXOrsIUCRtUdV5wsXLrA4CazHjx9nFim1mRLsyKqjNkpyVIV2rc4LECUALay2k39qE3Vtl2WBzP0hqL733nugTilyJAM1CVAvviAXdUhdvnyZWaiu39I1hS3ET/dkYZJlS45kpqYBcgJEqYPp6tWrL4GRrG6xWMzaTumHwFVW4ceHBcL/+KQGOER9MlvdlyiCgCvYUlNTmSVInTNGo/F3I6KqLLUJCu2nBCoBSGVlZfPtrK7VeYKoa/urEDiBjkYFLHTUgUOykaUnxNPe3g6yOBc6slApbIKhqyO4CtYvwZ6q7AJEDx06NA9+AaLUYTY8PMxAKYwQoPZboV2XfiBcZXVNn2u8/Np3NMAh6jt5uSYpoTZIqrYLjjpMqMeaoEJgpPZKah+l3myyVGdmZlhvNz2jqjZ17JCjnncCMI23JOhRuyU5AiRZceQIgAQgGlZEQBMctSlSNZvCpDioPZOsP+pMInhSNZrgJ/TGE1gFuQh4Qm85VbNpdMGDBw8wPT3N0kC99CdOnABZmC0tLdi7d+88RElOAj7BkuKjdl1qxqBrarKgdxS2YPGSvJQeYciWcC+kT0gPP/uWBjhEfSs/3Z4a6ryx2Wzz4VIbIcGRHFmj1NtNB/XOE/xouBBVpV2fkV+CGfVaE8QIinQmR9VvarckR0OLCEhkwRIsBUcdQ9QuS8+pc4jCp3ZLCk8YqkTwEuQia5GaGcgfwVvwQ8/pGYVBowyEIVfUJEAyUFWcOsj6+/tZ1ARV+gERLGiyNqnnnhxBl+Ij/zQRQRhPStY0dSYJzjV9wjN+9i0NcIj6Vn66PTXUKeQKNLIQySIUHFmkZNUJQKLn1NFCVVzqqHF1BEl6R89dO51cw6fnCy1RsgTpGY0KoIPaWUmGhXKQVSg4QS5XP/SO4ibZXOOk5/QtWZiUXvpWcGRZC35Jdtd3dE3vXR2lUfBPzxfqz9Uvv/YNDXCI+kY+8lRwDXANvCYNcIi+JsXzaLkGuAZ8QwMcor6RjzwVXANcA69JAxyir0nx3hztr/itrZPaGPnh1AEWtAF7cx5z2ZeuAQ7RpeuK+2QaIID+BlGuFFcNcL24asNfrjlE/SWnV5vOOT48o975F8/x6Dkdz/CYrvmBH188w5Pnz/CMrVr12xjX1aqdf+/5GuAQ9fw88gwJ5yBa3zeIPYnp+DIlF/tSctmZrv392JeShS9tp5Bbe94z8otLsW4a4BBdN1V7eURzEC251YE3TmiwQWrGJqmJH1ITAmRGbJTp8UZkLDRnCrw8o7n4y9UAh+hyNeav/ucg6mjvQrBUjxB1PEJfOqwIVfvnEaa2sbQHxSihLyzx1xLit+nmEPXbrF9mwhdANFQVj7CXDivCVH58qG0IilFDX2hfpmK5d2/XAIeot+fgesk/B9HSOUuUQ/TlHwzSR1C0BvoCDtH1KpKeEg+HqKfkhKfLwSH6SkubQ9TTC/Daycchuna69a2QOUQ5RH2rRLstNRyiblOljwfEIcoh6uNFfKXJ4xBdqeb87TsOUQ5RfyvzS0wvh+gSFeX33jhEOUT9/p9gcQVwiC6uF/50oQY4RDlEF5YJfs80wCHKC8LSNMAhyiG6tJLid744RP0uy1eY4JcgagAfJ/ryOFGawUXjRA35fMbSCkuY137GIeq1WbfOgnOIvtISJYgGR2tg5BBd54L5+qPjEH39eeAdEnCILgmi3BL1juLsTik5RN2pTV8Oy50QVb9cFfaFOfeCJcoh6sv/BIunjUN0cb3wpws14A6IzsPT9kqr7pVQpTDYYXGGMR+mAOZXhK12fedy/R9hCGEt/cwhurDA+M89h6j/5PXqUrpsiM5Bjq3sRMCyIVRjRbjKhghFwoohKlLNwU9tgXMJuniEaOJZuOEsrgTW6cWW6SO/DJA2hKpszuX7lM5rkocdLBzziuURgM8hurri5c1f+wxEabO0xZywidpi7/izZWhgmRANV1sQKjcgWByHYLEWwRIjQlQCWF2swCUvn+eEXrjSggiVE8ZhbD3TBIg0znCdcZpZfEESLYIkOgQr9RDJdAiRm0Hvw0gGtc15LQBUzSG6jJLAvS7QgM9AlNL19OlTDA8Po6GhAR0dHfjpp58WJJffrlgDy4RomMqE9w1WHErJxJH0HHyalIEIlWV+4WbBglvqWaS2YrvSiDPXW/Dv9AKIFGa2OHSokqBI1e54hCsM+EBrxrcUZ2omDqXn4sP4ZHySkIx3tDYcyymEqaERwXI9QhVGhMiMCFebEa7iEF1xueAfwqcgeu3aNUgkEuTl5SEpKQkJCQm4d+8ez2Z3aGA5EKUFiiUaKIodGPz5Oa7dmUHPj09xoqQaQVIzQlVWhNChtCBUsE6VVoSyw8LO9N4VsAEqK95SGNA+MYk9+WUIFGtxKDMPO83JEMnNIKs0KFYFRWEJhp+/QOPUXTTMPIK2th5VfYMQl9dBW2CHvX8Qm8QKfGg7ja+yixAi1yNMZWZwF6ksL8nEZFRZmbyusix2zavz7ihk3hmGT0G0qqoKMpmM5QRZpQTRnJyc+Zx58eIFHj16xO5dq//k19Vq/fnnn5mf58+fM+t2PgCXix9//NHlDqCwf/nFucvjwnfk8cmTJ/8Rlqs8LwXmiTfLgGgoQTRWA2tZJWp7h/C+woCq1lso6xlEiNiAULEeO6Q6vEUWodzIIBYmNWCHTIsdch22KIzYJteDqu5U/ab7MLkBf1Xo0TQ8jC9y7NghicP1oREczMiHSKxDiNqG4GgVDPYy1A0M4gOdFbusyfibzgpxdj4+MCQirqgUBV19CIyUwOyoRGV3P7aJVaC21HCpETvkWrypMCJUTkA3Y5tMiy2yOGxRGF4C+u9BNDCGBtsXe2LucZnWUAM+BdHq6mpotdp5dTkcDhgMBnZ/584dJCcnw2Qyseo+PSSQXrp0iVmtqampGBkZYc8KCgpw9epV0PdWq5VdC4FOTk4iPz8f6enpKCoqwuzsLHt1/fp1VFRUoL6+HidPnmR+BJjSs8TERBb/+Pj4vDwUp6s8QhweeV42RNWwllWhsLMX//1NJGwVlageGEbQMTkiMwtwcXQSP0xMQVZeh+BYDY7llKBudBx1t6egqrmMrB+u45+nc7ExWo1jecUwX7mGNyVqXB0axN6cYiRevIonL16gZeYBYs82IFBqQkiUCmZ7GUo6uhHwfQw2RMsRIYtDSkMj/m49BXWxHbk3OvCZLR09d2dx59lzlPYOYpfhJI5nFuH82CQuTUxDXH4Bm2V6ZNdfQc3gAIwNjQiSvBqk9MMREKOCIZ9vVOeR5XcNhfIpiNbW1uLEiRMYGBhgbaJGoxE3btxgViJdl5eXgyBGYBwaGkJfXx+io6NZO2p3dzempqaYqqOioqDT6ZifpqYmHDlyhIVJliZBmSA6PT3NLN1Tp06xby5cuIA9e/YwKBOM5XI56FuKRywWszh6enpw9+5dPHv2DHq9HmVlZRgbG4PNZkNXV9caZrMbgl4BRC2lVajsHcT+kylom7gN48UG/NuShJaRUdiqziK9qgYtU3fxr4R0XOsfRuH1m4gsrMDB9CK0jo7j89xS/L9jUpiqKlE2PIY3Y1W4PjSIPTklOJyZh5HZ+0i9dhMfp+ZDpLBAFKWCPr8YvY8eo7C1Damtt/Bh/ClcGRnD52k5UBQWI6+9BzsVJlS23sStO/dwNN+OfafScX1oFJbKWqRVn0XrnXv49HQGeiYn0TYzgwN5RRDJTa+0Rn+DaKEblM2D8CYN+BRECWRffPEF0tLScOjQIQY7yozBwUHExcWx9lGqqlObqd1uZ6CNjIzE6OjofJ6RdXr06NF5a5Ve5ObmMquUIEswFqr7BFIKl5oCzp07h5iYmPlwyCrOzs4GwZnALlig5KG/vx8ajQYzMzMsLIIyHR7tlgFRqloHxGrYzpczz57j9uMnGHn4BLv0NiiKSxn8LOWVSK6uxuCPP+LLtEJc7OxFY/8wvsksZlX9a4Mj+DSrBP8dKYWxvBKOviFsj1WheXgIu3PsiIhWoHl4GLtTz2BTTBzrcRdFqWEoKEHn7AMkNzTBfOUG/mFNRmP/ED5LyYaysBiF3f3YcCQGphIHKnoH8JdvT0CaX4yhmRnEV1QitbIaI09+xKEzxbgxNg5JWTU2xSgQ/gdjSTlEPbr0rqlwPgXRmpoaKJVK1jZJ8FIoFHj48CED4u7du5nFR1YfWYYEUgJmYWEhDh48iMzMTAjVb7JOqXdfcATnlJQUZtXGx8cLj0FtphQHVfHJD1mXgiOoUtMCxVFcXIwDBw4wuJMVStV7gj3JQuFRZxjJ4dFuGRAloATGamB0lOHC8DiOnM5G5+QUokvKoSksxvjTn1DaPYiy/nGUtA3hfUsGPtAnoOB6C3qe/oSkC/W40jeAj9IK8V/fRcNoL0N57xC2i50Q/Sy3FJtlOjSNjuLjrEJsoqo2bVscpYKltBz2zm4EREqwMUaLN+V6XB8enYdofncfNhwTw1xWBUf/MP78nRhqgujTp3D0DKKmewhFt7rxcWIGWkfHsC+nBJuk2ldaodRGyiHq0aV3TYXzOYiShSc4qpI3NzezajV1OFH7JVWnqceeOpMER9VsAmtpaSl7RNX5trY24TXIqqSqN1W5zWbz/HOCLlmmjx8/ZpYoxSc4alpwve/t7WWwrKurQ2trK4MvWaKLySOE4VHnZUGUesrjYC6vRD5ZfofFqGq+idzWNhxLy0b/3Vl8dyoD/46z4RNTKrZp4rFLG49/KXRwNF3F5YFhtPQPwnb+Cv6uNOLCrXaU9w5im0SJlpFhZolukejQMTqB4/YKhBNAVfEQRcXBUFoOR28/GxsaoLKxzqvro2PYnZILdYGdWaJvfC+FpawaDWOTeFuux4nMAnRN38ORpDR8ojLhQ50V72rMDPzf5DsQINVxiHpUYfQsYXwKogQ7lUo1r2Gh2v7gwQMGSapGk6O2TbIQqVpO1iQ56kyiYVHkqDpPnVDUe06AJEuRYEzgjY2Nxc2bN5k/snwFUNK1a6fW2bNn2TuyPIU4qCOKwiXrmMIhsJIjeYSeffbAE/8sC6I2UE+1rrwa+T392BApg9Zeibrx29ip0CH3SjNuPX2KxrszKBmexL+TsuDoG0HzzAO0PHwEWWkNEqrOYfTZCzRPz6Ln4VNk3uzEFokSlweH8Gl2MUJitLjU0Yuen37G8doGNnQqKDoOKkcVCnv6ECLVIlBlwXa5AReGRvDxqWxI80uR29WHgGNKRKYXYPjZc5QNTWBX3Enk/dCMnic/4fqdWZSMTeHD+BTUD49h7xk7AqWv7lTilqgnFtj1k8mnIUo970LvPFW3yYqkajMNe6LeeoJqRkYGa4+kdwLUqDpPFiZZnwS906dPzw+Bomo6vSspKWFhU8cVucrKStbOKWQdQZX8UScTNRUQpKn6Tp1Z5Mgipff0nNpcXdtMhTA86rwMiLIhQAoT/mFMxMdJGWwY03u6eHyVegZb1Fa8pbHiUEYOjmbkYk9yNt7VncS3yTk4lpmPfSm5CJMbsV1twuHUTBxOz8WniZn4Z3watir02JuUiu36JIQoLPjUnIjvM3PxwckMhChNbAD9B8aT+CgxHWEqA0LVFkQozfg8KQU7tFa8r6d3GQhTGLBTacKB1Bx8mVbApoTuVNtwOLMAJ7IL8HlaPrZpE7D7VBreNCaxcauLDWtyfcar8x5VWtdVGJ+BKFmWBEaCFF2To+o2gZIsSnLUdtnY2Mh62sk6JEuU2k5peJIwKJ++pQ4iqs5TzzpV9RdaiRTOrVu3QBYuOfqGOpkEQNIzkoVGCVDcFAdNBHCNg/zcvn17Xh6yWAW5WaCe9meZEI1Q2RAusyBEasRmmqcuN88PEwpROq/ZdFCpDuEKCxs/GiQ2IEhsZONDQxUWBEs1bOpmkMwAkdzIZhaJZFo2hpMG14fIdAiWqBEio8H2zoVJQuQmiGQGNq0zfG4gv4jaNJVmhMrNELFZShaEK01sfGmQ1MS+DVHGI1BKcunnZkKZESjXIVRpYuNIXYG52DWHqKcV2PWTx6cgKqhtIYwW3gv+FjsTMI8fP/5Sx9Ji/lyfLSd8+u73/P/ec9e4Xtv1MiFKC42Eq+LZdMwIJV07Ieecv06zgOgddcjQzCTb/HTQUI1z9tBvi4MI72jKKE3xNCFUbUaIhr6j2U82hCkT2YwlAhlN/3RCzoYIpZUdNGBfiH/+HT1Tm52LoiitCFPSwiXOxUtobn4Em05K4dGc+z+eFsoh+tpK5muP2Gcg6i5NkuVIw57a29vdFaRvhLNMiC5mrTmfCYuQvDyt0zn/3QlJ4ZrNa2fgFJa/ozP5EebLOwHsBC4BT7if8ze3ihNZpGx+PIMhwVOQga6dcjhXgFogEwtvbtGSBdNQF6aPQ9Q3ivlKUsEhukBrZA1SFV6YHrrgtf/eug2ii4FKWLKOBrRT1dyGCHZ2AtNprS723R88Y1X8udWbGDid1udvEP2D7/8AnK4g5RD1338NDlH/zfvlpXxNIUrtm2aEyA2IoOFKc3Pmf6vSrwx2rBqujodIQe2kRla1Z1bpvCW6snBd4Slcc4gurzj5km8OUV/KzbVMy1pBVG1FqNyEv+tO49vCcrylS0T4CSU2RykRHqtBsEy7pDZJAWbCmaxNqqKHym34hy0Zn6dmI1xucK4QpaRFT9wHUAqLQ3QtC59nh80h6tn54znSuR2izrbGELUV4WItzly9hcSWNkRINEg7X4+ajm6Ud/fheFkVQpVG55J5rHouVP3nIEgQZqvUz7WbCnCkRaHVVoTQeNWySjZ2lFaW2qq0YrtWaDN1H0g5RD2nqK63JL4D0bl/clLgg/sP/2NY0nor1uficzNEhU6jYIURH5oScHVkEv9MPoPNMi0G7t6Bvb0Pjhvt6Lr/CO+fzMYmmQHBEg0CxRoESWnokbMjiYY8iaK1CJFoESrTI1hCw5viEaoyIVCig+iEElZ7OYq7+7HxqBSR6Wdgu3QFm6JVCFE4FxVxRxsph6jPlfglJ8h3IAqwcZ+Jiafw0b8+fmlRkSVrg3v8fQ2sAUTD1M5xmdF5JXB09iBAZsIOtQldkxPYnVqALZEStA2PYE9uCf4nVoV9KRmQlzjwdWaRc58miQFfJ2dAUVSGI1l5+CLhND5PzmJjQjcrTdifmoXtSgOMxQ4UtnVjp1SP2uZb6Jy+gyM5xdimS2Ttrxyiv5/t/M0fa8BnINrR3onvvjuCDRs24dCh79h0zT9OPvexZA24HaLU826DKEaNuJJynOnowRsSHd5W6dE5MY5PU/Ox25SIjqkp/PN0GvYlp6Fx+h6ujN1G14MniMyvxL7EdLTevYv6qWkUdfYirb4eBT192CTRYofKiB+GR/BZSibUhUXIo3VEranouzuL6efPUNo/hnes6QieG3y/2jZSbokuuST5nEevhygtQ5efX4h33t6FN/6yETKZAsNDI2yZOVrcw1sOmqPv0c6NEGVjM1mbJa1GL4e22I6stm5slOrxtlKH3vFx1HX2onvqLgraurFFHocLHR3IvnAJn0XJUHu1GYU3u6ArqcDYo4fYb03A1mgZzKUO2PsGsFEah7eURlwfHMTu5CyoC4tR3NkH0VEZEipqUNM3gLdotXza80lpdRk3uvI2Ug5Rjy69ayqcV0N0YmIShw9/j40bAxAYGIzQ0HC8vfMd7Nz5DrZt247t273jCAkJYUvirWlOrzZwN0KUWX3U6UPbiMSooC4pQ1YbWaJ67FQa0D8+ieaREfRM30ZmSxu2iTXoGB5F6737uDA8gZ6HPyL3Zic+MZ9G/cA4Wh4+hrGqDgnlFSjq6sEbUg3eVOhwrb8fnydnQ11QjAJaTep7MfSOSjh6BxAgjgNNP+UQXW3B4N97NUQnJ6cQGXkcAZuCGES3b9uB/fu+xtdffYMvv/zSa45PPvkEZ86c8ezS6GaIkuUWoqEtNTRQllTB3jOADTIDdqrM6Ji4jc/TMvF9ahpbYPljaxpaBsaQVd+Mg8nZOJKRxxY2CYnVY0eMHjZ7NcZn76Oy9QYqqDofJccuiQrto6P47HQm1AVFoHVEN0bGwlZRjaqefgQcV7JFTNgWykKP/irO3BL17OK7ltJ5NURJMbQBXGFBMXbufBdBQSLYrAmsd57eCUvMecPZo+fNkzLdDFGa2klDkALFOnyfloemiWnsMKVgh9yA3nv38MWZEryj1KLz7gz2ZxTgVPUF3JichuXsBVguXcGejALsSclB/OVrSDv/A/ruzSL18hWMPfkJmY2tKG9ux+wvv+LfianQFJeidGAYGyIl0JVWYfDJEyiqLmKb7hRb/Wm17aF8nOhaIsrzw/Z6iAoq7uzsxoED3+Ivf9mAb745yNbsFN7xsxs0sEYQDVZa8LbKjB8GR3HUcQ6bJXqkNVzFP1NyEBYbh8SLDTiYV87gmtHYhNqBIVQMDuNwUQ2O5tpR1T/ENsBT1F7A22oLUi/Wo25gCHkt7Ui70oS/mRPxTVoO1HWXIYrV4TNbGhztXUi72YW/mlIhYm2jK28LFQDMLVE3lDEvDcL7ITr3z036f/z4RyQlncKXe/d5/vqc3lZg3A5R5yIiVKUPluoht1ci+UYvtmqSECLWseXpaAm9LRI9aBUo2p8+XKrFdokGW2Vx2Cw3Y6vMjO2xWmyTxCFYHgcRbW0sUWGLRI3NEi22SmgJPBM2y42IkOqxWW3FVrkV28Rx2EpbNbupU4lbot5WmN0rr/dDdBF9CHslLfKKP1qpBtwFUWHVJJf561Stj5Dp8ZYmHmHqBIhoaTqayURL5LFrG8I0NoSoLBBRZxDtE89mKsWzds0QhRkhKjNCaIk8lRnBtECz0jntkzqPGOSUZjYN1Lk8n4X5pTVLnZbk3CyouW1GaOiVYGEu9cwt0ZUWLO//zich6v3Z4oEpcBNEhaXnFsKJwCgA76V3c9B96ZlrB9Cr3v/uO+fapM41T6kqTxC1zK1xSiAX1iRdejWfQ9QDy+w6icQhuk6K9vpo3AFRZl0uHUy/C05XiK7wOlxJoKTFouesznmIUtMBt0S9vryuYwI4RNdR2V4d1SohSpZmMFXHVRZ2pjbONYPk71qgLwOcLcSssCAwNg4hCiNEEh2c24VwS9Sry+o6C88hus4K99roVgtRaptUmBCuNCNCQe2Uv60qL8DUOZPpZdAJ75Z6pjBoYRHnmqSvCstpcW5XmXA0rxi7LMk4kFWA3aln2F5MS41P8Mer815bslctOIfoqlXoJwGsEKJUNaYN6U5kncG10QlcGR7FtfHbUFVfQZCULL5EZ8cP6yhKQASrZs/tvUTVf7YuqHOPJuqAClUnOPdlUjv3PiJrUtjaI1Qdj3CFFW/rErBZm/Db/kjsO+fSeCwMDY0MMCNIZcPbGjNu3J7CnswixFWcQ0XvIDbPzWQSALmUM4eon/wfLJJMDtFFlMIfLaKBlUKUpnZGq3CyvBI9Dx7BUFEHU+1l7E8vQUCsge0XT1bpJpkRG2U0n90GkcKMDWItNol1EMlpt01qo7QhUGrCRrEOG2hPeYUOQTL9XCeQDYESPYIUFkSIjci6egMfJGVjQ4yKbWwXINNhgyQOAbQ0HvXgx1kQpNDiT7F6Njzq1sgI9mYV428qI66OjOOjtHwEMlleZcm+/I5DdJEy4yePOET9JKNXncxVQDQ4Wg1rWSUKuvrwf44q8H+PaxAUo0FUoQNfZeQjMEaNQ1l5OF5ex5ax+7vOAnPNeZjPXsRHiVkIlhsRKjPicGYx4msvQl15Fl9l5GB/ViHb+mOryooTGworSQAAB+dJREFU+Q68a0mGOM+BqQePkN90i81qCotV4WhOIRLqLiGqyI6IOCNoDdL9Sakw1V6C1VGNnslJ7M0uQWiUEnVtHTheeQ4BUsOy2mw5RFddwrw2AA5Rr826dRZ8lRC1lJajfuI2vkrPw1fZRXhXm4Ck6vPomH2Er5Oy0DY5hZTrN7FTZULlrQ40TUzh1u1pnB0aw1a1GUcyC9Ax8wBNo+M4296FvIYfUNLZi8BYFf6qNKJrYhpf55Ug5Vw9njz9GR3TM5CWn8OJjDzcnL6PKz2D6H5wH5GOcuyUqdE8NIzeu7PoHJ/Cg2fP8XlmEQKPKZFcdRYpLR3Msl1KNV7wwyG6zuXRg6LjEPWgzPBoUVYB0aBoNYzFdtx5/hytYxNombqDqNI6vCM3oLF/AKP3H6G6dwARUg2is8+gY+ou9pxMw5GkZHTevYP9qdm42NmLU9daIRLrEX5cAXOJA/bOHmySqLFTZUTn8Cj25NqxNVaNG4Mj2JtZjM2xKjQNDeN0w3X8r1IP+7Um5LbeQExaJm7dncH7xtP41JiIkfuz2JtrxxuRcugL7ci+1Y1gbol6dHH0JOE4RD0pNzxZllVAlKrz5rJK1AwOYZfGiF2GBGzTJ2LjcSUM+cUs1erac/ivI8dgLC7BzJOfmCXaNn2HbQ+y71QGGvsGsSerGH8WG7HphBrGknIUd3Thz2IV3pTr0Tk0gi9y7RDFqtEyNIKPMgsQHqvC0MQkeu7NonlyGgMPHyP18lXo8orh6OrD/8QasEWiRcvQIPblObDxuBynq+uQcbMHQRJenffk4uhJsnGIelJueLIsq4QotYnae3rxxjExNkarsVGixV8VOtS1tmHo/kOcHRqFSBIHRVE5uu/N4lBaDr44lYWPT+WwKv6NoVGoz17En04osfGomG35cX5gCJtiVHhPY8Tg1BS+zC3FZnEcWoeH8VHaGYRFK9EzMYXMK9ex+2Q69p7OxbtqC+IKHGieuocwhQW7FHr03p7E3txSiKLUqG65Be2lqwiQ6nmbqCeXRw+SjUPUgzLDo0VZBUSDopRIsJdh/OlPyLvShLzmNkSXVCDl7Hm0zT7AwdNZ6L0zC+O5H/CBMQFNk7dR3TOAzIYmWOuv4c24eNgq6tD38DGKmm4g/UoT1PYqjD1+ivKbHajt7MGDX3/BF5kliIjWoH14CBdHxrE3Ix+Wmlq0zd5HTkMTsq/dxNfZRdiTcBqjDx+jrr0XF9u78OjFC3yRU4JtsTpc6RvGl9nF2CThEPXo8uhBwnGIelBmeLQoK4QodbyIpDocTE5H+c02VLR1oaKjC6qKGlhrLuKEowaBUWqo7ZWIb2xCuMqAb06lw9HejcqOTqQ0tmC7IRlbpTokn2/AufYenLnVjQ8TMmCqOI+znT3IqG9EwsV6vBefgdCYOMQVOlDZ2Y2DRRUIl6iQfKEBZzt6Ye/oxrdF5QgTq6AocOBsWzfyGluQePEK3rWcQkx2MepHp/CWIQnBcudOoELH0R+deceSR5feNRWOQ3RN1etDga8CogykSj1EEg1EUj1CpFqEyHQQ0TbIc+Mxg+UGiOQGhKotCJGZECDRIEAaB5HUwBYGocVJRBI9RLG0dbKBzUoKkhoRzLZJ1iFQqgOt5hShoO9p/KmWzVqi6aYimRFBFKZUC5HSubcSfRso1oPOm2QmhEh1sNRdhqrmEgv/j6C58D2HqA+V9WUmhUN0mQrzW++rhChBh+bLE9ToYJvEuSwe4nz+23x6p1+nfwFYwrfO753hLHzGlshTWyGieNhMJdrLSTicqzfRc3ommn/uHDgfoaGl95xL5wlxLvXMIeq3/xngEPXfvF9eyt0A0aUCacX+aOER4XAB9FLDo/n2K10YhUN0ecXJl3xziPpSbq5lWjwdogI8hfMKILpU2C7mj0N0LQufZ4fNIerZ+eM50r1miAoLjSx2ZlAT4CmcOUQ9p+z4uCQcoj6ewW5L3muGKIFyMYAKKzgtZh2u5zNuibqtpHldQByiXpdlr0lgD4DoekJxuXFxiL6mcukB0XKIekAmeIUIHKKvnMHEIeoVpXhNhOQQXRO1+mCgHKIcoj5YrN2RJA5Rd2jRH8LgEOUQ9YdyvoI0coiuQGl++ck8RDsRLNWtaEfM5bYzepN/Xp33y/8KlmgOUf/N++Wl/FcnRUs7CKLauVlHL2+R4U3Qc7esHKLLK06+5JtD1Jdycy3TwiHKq/NrWb68OGwOUS/OvHUVnUOUQ3RdC5z3RMYh6j155RGS2js6nSskrfOMIHdXv90dHq/Oe0TxfC1CcIi+FrV7Y6TONtGSjk7QFsQhDKK06hI/mA7UNgTEaOa3O/HGHOYyr0wDHKIr05sffuWEqL29GwEyA0QaC0L5wXQQprYgTJ2AgNg4DlE//M/gEPXDTF9Zkp0QLbzZgT8fV+MNqQ4b+TGnAz02SMz401E54rLzVqZe/pXXaoBD1Guzbr0FJ4j+iqaRMcTmOxBbXA5xCT8EHcQWVyE6147KH64yPa137vD4Xp8GOERfn+69LGaC6It5QDiRSljlh6sOKFN/YXrysuzl4q5YAxyiK1Yd/5BrwFUDhFLu/FEDHKL+mOs8zVwDXANu0wCHqNtUyQPiGuAa8EcNcIj6Y67zNHMNcA24TQMcom5TJQ+Ia4BrwB81wCHqj7nO08w1wDXgNg1wiLpNlTwgrgGuAX/UwP8HGx5eqNa5UVYAAAAASUVORK5CYII=;" parent="1" vertex="1">
          <mxGeometry x="623" y="46" width="337" height="948" as="geometry" />
        </mxCell>
        <mxCell id="bgvGzZZ6QWPnJdermKFC-7" value="" style="html=1;shadow=0;dashed=0;align=center;verticalAlign=middle;shape=mxgraph.arrows2.stripedArrow;dy=0.59;dx=22;notch=25;rotation=-180;fillColor=#d5e8d4;strokeColor=#82b366;" parent="1" vertex="1">
          <mxGeometry x="860" y="234" width="100" height="30" as="geometry" />
        </mxCell>
        <mxCell id="bgvGzZZ6QWPnJdermKFC-8" value="" style="html=1;shadow=0;dashed=0;align=center;verticalAlign=middle;shape=mxgraph.arrows2.stripedArrow;dy=0.59;dx=22;notch=25;rotation=-180;fillColor=#d5e8d4;strokeColor=#82b366;" parent="1" vertex="1">
          <mxGeometry x="860" y="791.5" width="100" height="30" as="geometry" />
        </mxCell>
        <mxCell id="bgvGzZZ6QWPnJdermKFC-10" value="动态加载Controller" style="text;html=1;strokeColor=none;fillColor=none;align=center;verticalAlign=middle;whiteSpace=wrap;rounded=0;" parent="1" vertex="1">
          <mxGeometry x="960" y="239" width="110" height="20" as="geometry" />
        </mxCell>
        <mxCell id="bgvGzZZ6QWPnJdermKFC-11" value="扩展查询文件路径、View的逻辑" style="text;html=1;strokeColor=none;fillColor=none;align=center;verticalAlign=middle;whiteSpace=wrap;rounded=0;" parent="1" vertex="1">
          <mxGeometry x="960" y="796.5" width="180" height="20" as="geometry" />
        </mxCell>
        <mxCell id="bgvGzZZ6QWPnJdermKFC-18" value="" style="edgeStyle=orthogonalEdgeStyle;rounded=0;orthogonalLoop=1;jettySize=auto;html=1;" parent="1" source="bgvGzZZ6QWPnJdermKFC-13" target="bgvGzZZ6QWPnJdermKFC-14" edge="1">
          <mxGeometry relative="1" as="geometry" />
        </mxCell>
        <mxCell id="bgvGzZZ6QWPnJdermKFC-13" value="根据ControllerName&lt;br&gt;构造Controller相对路径" style="rounded=0;whiteSpace=wrap;html=1;" parent="1" vertex="1">
          <mxGeometry x="195" y="113" width="142" height="60" as="geometry" />
        </mxCell>
        <mxCell id="bgvGzZZ6QWPnJdermKFC-19" value="不存在" style="edgeStyle=orthogonalEdgeStyle;rounded=0;orthogonalLoop=1;jettySize=auto;html=1;" parent="1" source="bgvGzZZ6QWPnJdermKFC-14" target="bgvGzZZ6QWPnJdermKFC-17" edge="1">
          <mxGeometry relative="1" as="geometry" />
        </mxCell>
        <mxCell id="bgvGzZZ6QWPnJdermKFC-24" value="存在" style="edgeStyle=orthogonalEdgeStyle;rounded=0;orthogonalLoop=1;jettySize=auto;html=1;entryX=0.5;entryY=0;entryDx=0;entryDy=0;" parent="1" source="bgvGzZZ6QWPnJdermKFC-14" target="bgvGzZZ6QWPnJdermKFC-23" edge="1">
          <mxGeometry relative="1" as="geometry" />
        </mxCell>
        <mxCell id="bgvGzZZ6QWPnJdermKFC-14" value="检查当前租户&lt;br&gt;和默认租户DB&amp;amp;DFS&lt;br&gt;中是否存在该&lt;br&gt;py文件" style="rhombus;whiteSpace=wrap;html=1;" parent="1" vertex="1">
          <mxGeometry x="196.25" y="210" width="139.5" height="109" as="geometry" />
        </mxCell>
        <mxCell id="bgvGzZZ6QWPnJdermKFC-15" value="DB的ContentShare表预先全量加入缓存，定期刷新" style="shape=callout;whiteSpace=wrap;html=1;perimeter=calloutPerimeter;size=31;position=0.73;position2=1;base=28;fillColor=#fff2cc;strokeColor=#d6b656;" parent="1" vertex="1">
          <mxGeometry x="43" y="186" width="151" height="73" as="geometry" />
        </mxCell>
        <mxCell id="bgvGzZZ6QWPnJdermKFC-22" value="不存在" style="edgeStyle=orthogonalEdgeStyle;rounded=0;orthogonalLoop=1;jettySize=auto;html=1;exitX=1;exitY=0.5;exitDx=0;exitDy=0;" parent="1" source="bgvGzZZ6QWPnJdermKFC-17" target="bgvGzZZ6QWPnJdermKFC-21" edge="1">
          <mxGeometry relative="1" as="geometry" />
        </mxCell>
        <mxCell id="bgvGzZZ6QWPnJdermKFC-32" value="存在" style="edgeStyle=orthogonalEdgeStyle;rounded=0;orthogonalLoop=1;jettySize=auto;html=1;" parent="1" source="bgvGzZZ6QWPnJdermKFC-17" target="bgvGzZZ6QWPnJdermKFC-28" edge="1">
          <mxGeometry relative="1" as="geometry" />
        </mxCell>
        <mxCell id="bgvGzZZ6QWPnJdermKFC-17" value="网站目录下&lt;br&gt;是否存在该&lt;br&gt;py文件" style="rhombus;whiteSpace=wrap;html=1;" parent="1" vertex="1">
          <mxGeometry x="359" y="452" width="139.5" height="85" as="geometry" />
        </mxCell>
        <mxCell id="bgvGzZZ6QWPnJdermKFC-21" value="返回Base.CreateController()" style="rounded=0;whiteSpace=wrap;html=1;" parent="1" vertex="1">
          <mxGeometry x="459" y="688" width="172" height="49" as="geometry" />
        </mxCell>
        <mxCell id="bgvGzZZ6QWPnJdermKFC-26" style="edgeStyle=orthogonalEdgeStyle;rounded=0;orthogonalLoop=1;jettySize=auto;html=1;exitX=0.5;exitY=1;exitDx=0;exitDy=0;entryX=0.5;entryY=0;entryDx=0;entryDy=0;" parent="1" source="bgvGzZZ6QWPnJdermKFC-23" target="bgvGzZZ6QWPnJdermKFC-25" edge="1">
          <mxGeometry relative="1" as="geometry" />
        </mxCell>
        <mxCell id="bgvGzZZ6QWPnJdermKFC-23" value="从DFS中获取文件内容" style="rounded=0;whiteSpace=wrap;html=1;" parent="1" vertex="1">
          <mxGeometry x="190" y="414" width="152" height="44" as="geometry" />
        </mxCell>
        <mxCell id="bgvGzZZ6QWPnJdermKFC-25" value="返回PyController" style="rounded=0;whiteSpace=wrap;html=1;" parent="1" vertex="1">
          <mxGeometry x="190" y="693" width="152" height="44" as="geometry" />
        </mxCell>
        <mxCell id="bgvGzZZ6QWPnJdermKFC-31" style="edgeStyle=orthogonalEdgeStyle;rounded=0;orthogonalLoop=1;jettySize=auto;html=1;" parent="1" source="bgvGzZZ6QWPnJdermKFC-28" target="bgvGzZZ6QWPnJdermKFC-25" edge="1">
          <mxGeometry relative="1" as="geometry" />
        </mxCell>
        <mxCell id="bgvGzZZ6QWPnJdermKFC-28" value="从网站目录获取文件内容" style="rounded=0;whiteSpace=wrap;html=1;" parent="1" vertex="1">
          <mxGeometry x="352.75" y="597" width="152" height="44" as="geometry" />
        </mxCell>
        <mxCell id="bgvGzZZ6QWPnJdermKFC-41" value="不存在" style="edgeStyle=orthogonalEdgeStyle;rounded=0;orthogonalLoop=1;jettySize=auto;html=1;exitX=1;exitY=0.5;exitDx=0;exitDy=0;" parent="1" source="bgvGzZZ6QWPnJdermKFC-34" target="bgvGzZZ6QWPnJdermKFC-38" edge="1">
          <mxGeometry x="-0.8274" y="13" relative="1" as="geometry">
            <mxPoint x="1" y="1" as="offset" />
          </mxGeometry>
        </mxCell>
        <mxCell id="bgvGzZZ6QWPnJdermKFC-47" value="存在" style="edgeStyle=orthogonalEdgeStyle;rounded=0;orthogonalLoop=1;jettySize=auto;html=1;exitX=0.5;exitY=1;exitDx=0;exitDy=0;" parent="1" source="bgvGzZZ6QWPnJdermKFC-34" target="bgvGzZZ6QWPnJdermKFC-51" edge="1">
          <mxGeometry x="-0.823" relative="1" as="geometry">
            <mxPoint x="286.5" y="1403" as="targetPoint" />
            <mxPoint as="offset" />
          </mxGeometry>
        </mxCell>
        <mxCell id="bgvGzZZ6QWPnJdermKFC-34" value="ContentShare&lt;br&gt;中存在指定路径" style="rhombus;whiteSpace=wrap;html=1;" parent="1" vertex="1">
          <mxGeometry x="229.5" y="1113" width="113" height="75" as="geometry" />
        </mxCell>
        <mxCell id="bgvGzZZ6QWPnJdermKFC-49" value="存在" style="edgeStyle=orthogonalEdgeStyle;rounded=0;orthogonalLoop=1;jettySize=auto;html=1;exitX=0.5;exitY=1;exitDx=0;exitDy=0;" parent="1" source="bgvGzZZ6QWPnJdermKFC-38" target="bgvGzZZ6QWPnJdermKFC-50" edge="1">
          <mxGeometry x="-0.8026" relative="1" as="geometry">
            <mxPoint as="offset" />
          </mxGeometry>
        </mxCell>
        <mxCell id="bgvGzZZ6QWPnJdermKFC-54" value="不存在" style="edgeStyle=orthogonalEdgeStyle;rounded=0;orthogonalLoop=1;jettySize=auto;html=1;exitX=1;exitY=0.5;exitDx=0;exitDy=0;" parent="1" source="bgvGzZZ6QWPnJdermKFC-38" target="bgvGzZZ6QWPnJdermKFC-53" edge="1">
          <mxGeometry x="-0.8257" y="9" relative="1" as="geometry">
            <mxPoint x="1" y="1" as="offset" />
          </mxGeometry>
        </mxCell>
        <mxCell id="bgvGzZZ6QWPnJdermKFC-38" value="base.FileExist" style="rhombus;whiteSpace=wrap;html=1;" parent="1" vertex="1">
          <mxGeometry x="414.5" y="1190" width="113" height="75" as="geometry" />
        </mxCell>
        <mxCell id="bgvGzZZ6QWPnJdermKFC-50" value="返回 base.GetFIle" style="rounded=0;whiteSpace=wrap;html=1;" parent="1" vertex="1">
          <mxGeometry x="411" y="1363" width="120" height="60" as="geometry" />
        </mxCell>
        <mxCell id="bgvGzZZ6QWPnJdermKFC-51" value="返回DFS中的&lt;br&gt;文件内容" style="rounded=0;whiteSpace=wrap;html=1;" parent="1" vertex="1">
          <mxGeometry x="226" y="1363" width="120" height="60" as="geometry" />
        </mxCell>
        <mxCell id="bgvGzZZ6QWPnJdermKFC-53" value="错误" style="rounded=0;whiteSpace=wrap;html=1;" parent="1" vertex="1">
          <mxGeometry x="582" y="1363" width="120" height="60" as="geometry" />
        </mxCell>
        <mxCell id="bgvGzZZ6QWPnJdermKFC-56" value="" style="edgeStyle=orthogonalEdgeStyle;rounded=0;orthogonalLoop=1;jettySize=auto;html=1;" parent="1" source="bgvGzZZ6QWPnJdermKFC-55" target="bgvGzZZ6QWPnJdermKFC-34" edge="1">
          <mxGeometry relative="1" as="geometry" />
        </mxCell>
        <mxCell id="bgvGzZZ6QWPnJdermKFC-55" value="" style="ellipse;fillColor=#000000;strokeColor=none;" parent="1" vertex="1">
          <mxGeometry x="271" y="1041" width="30" height="30" as="geometry" />
        </mxCell>
        <mxCell id="oLPKg93l9CS0hn-_ZyWQ-2" value="外包" style="shape=umlLifeline;participant=umlActor;perimeter=lifelinePerimeter;whiteSpace=wrap;html=1;container=1;collapsible=0;recursiveResize=0;verticalAlign=top;spacingTop=36;outlineConnect=0;" parent="1" vertex="1">
          <mxGeometry x="511" y="1767" width="20" height="722" as="geometry" />
        </mxCell>
        <mxCell id="oLPKg93l9CS0hn-_ZyWQ-11" value="" style="html=1;points=[];perimeter=orthogonalPerimeter;" parent="oLPKg93l9CS0hn-_ZyWQ-2" vertex="1">
          <mxGeometry x="6" y="122" width="10" height="18" as="geometry" />
        </mxCell>
        <mxCell id="oLPKg93l9CS0hn-_ZyWQ-12" value="编写自定义页面、&lt;br&gt;PyController" style="edgeStyle=orthogonalEdgeStyle;html=1;align=left;spacingLeft=2;endArrow=block;rounded=0;entryX=1;entryY=0;" parent="oLPKg93l9CS0hn-_ZyWQ-2" target="oLPKg93l9CS0hn-_ZyWQ-11" edge="1">
          <mxGeometry relative="1" as="geometry">
            <mxPoint x="11" y="102" as="sourcePoint" />
            <Array as="points">
              <mxPoint x="36" y="102" />
            </Array>
          </mxGeometry>
        </mxCell>
        <mxCell id="oLPKg93l9CS0hn-_ZyWQ-3" value="用户" style="shape=umlLifeline;participant=umlActor;perimeter=lifelinePerimeter;whiteSpace=wrap;html=1;container=1;collapsible=0;recursiveResize=0;verticalAlign=top;spacingTop=36;outlineConnect=0;" parent="1" vertex="1">
          <mxGeometry x="616" y="1767" width="20" height="920" as="geometry" />
        </mxCell>
        <mxCell id="oLPKg93l9CS0hn-_ZyWQ-4" value="微官网" style="shape=umlLifeline;perimeter=lifelinePerimeter;whiteSpace=wrap;html=1;container=1;collapsible=0;recursiveResize=0;outlineConnect=0;" parent="1" vertex="1">
          <mxGeometry x="935" y="1767" width="100" height="895" as="geometry" />
        </mxCell>
        <mxCell id="oLPKg93l9CS0hn-_ZyWQ-16" value="" style="html=1;points=[];perimeter=orthogonalPerimeter;" parent="oLPKg93l9CS0hn-_ZyWQ-4" vertex="1">
          <mxGeometry x="45.5" y="269" width="10" height="80" as="geometry" />
        </mxCell>
        <mxCell id="oLPKg93l9CS0hn-_ZyWQ-28" value="" style="html=1;points=[];perimeter=orthogonalPerimeter;" parent="oLPKg93l9CS0hn-_ZyWQ-4" vertex="1">
          <mxGeometry x="45" y="437" width="10" height="65" as="geometry" />
        </mxCell>
        <mxCell id="oLPKg93l9CS0hn-_ZyWQ-33" value="" style="html=1;points=[];perimeter=orthogonalPerimeter;" parent="oLPKg93l9CS0hn-_ZyWQ-4" vertex="1">
          <mxGeometry x="45.5" y="529" width="10" height="67" as="geometry" />
        </mxCell>
        <mxCell id="oLPKg93l9CS0hn-_ZyWQ-41" value="" style="html=1;points=[];perimeter=orthogonalPerimeter;" parent="oLPKg93l9CS0hn-_ZyWQ-4" vertex="1">
          <mxGeometry x="56" y="567" width="10" height="17" as="geometry" />
        </mxCell>
        <mxCell id="oLPKg93l9CS0hn-_ZyWQ-42" value="本地Controller" style="edgeStyle=orthogonalEdgeStyle;html=1;align=left;spacingLeft=2;endArrow=block;rounded=0;entryX=1;entryY=0;" parent="oLPKg93l9CS0hn-_ZyWQ-4" target="oLPKg93l9CS0hn-_ZyWQ-41" edge="1">
          <mxGeometry relative="1" as="geometry">
            <mxPoint x="61" y="547" as="sourcePoint" />
            <Array as="points">
              <mxPoint x="86" y="547" />
            </Array>
          </mxGeometry>
        </mxCell>
        <mxCell id="oLPKg93l9CS0hn-_ZyWQ-58" value="" style="html=1;points=[];perimeter=orthogonalPerimeter;" parent="oLPKg93l9CS0hn-_ZyWQ-4" vertex="1">
          <mxGeometry x="46" y="835" width="10" height="28" as="geometry" />
        </mxCell>
        <mxCell id="oLPKg93l9CS0hn-_ZyWQ-5" value="浏览器" style="shape=umlLifeline;perimeter=lifelinePerimeter;whiteSpace=wrap;html=1;container=1;collapsible=0;recursiveResize=0;outlineConnect=0;" parent="1" vertex="1">
          <mxGeometry x="778" y="1767" width="100" height="892" as="geometry" />
        </mxCell>
        <mxCell id="oLPKg93l9CS0hn-_ZyWQ-13" value="" style="html=1;points=[];perimeter=orthogonalPerimeter;" parent="oLPKg93l9CS0hn-_ZyWQ-5" vertex="1">
          <mxGeometry x="44.5" y="253" width="10" height="129" as="geometry" />
        </mxCell>
        <mxCell id="oLPKg93l9CS0hn-_ZyWQ-25" value="" style="html=1;points=[];perimeter=orthogonalPerimeter;" parent="oLPKg93l9CS0hn-_ZyWQ-5" vertex="1">
          <mxGeometry x="44" y="411" width="10" height="213" as="geometry" />
        </mxCell>
        <mxCell id="oLPKg93l9CS0hn-_ZyWQ-45" value="" style="html=1;points=[];perimeter=orthogonalPerimeter;" parent="oLPKg93l9CS0hn-_ZyWQ-5" vertex="1">
          <mxGeometry x="44" y="648" width="10" height="144" as="geometry" />
        </mxCell>
        <mxCell id="oLPKg93l9CS0hn-_ZyWQ-48" value="" style="html=1;points=[];perimeter=orthogonalPerimeter;" parent="oLPKg93l9CS0hn-_ZyWQ-5" vertex="1">
          <mxGeometry x="51" y="682" width="10" height="15" as="geometry" />
        </mxCell>
        <mxCell id="oLPKg93l9CS0hn-_ZyWQ-49" value="set local storage" style="edgeStyle=orthogonalEdgeStyle;html=1;align=left;spacingLeft=2;endArrow=block;rounded=0;entryX=1;entryY=0;" parent="oLPKg93l9CS0hn-_ZyWQ-5" target="oLPKg93l9CS0hn-_ZyWQ-48" edge="1">
          <mxGeometry relative="1" as="geometry">
            <mxPoint x="56" y="662" as="sourcePoint" />
            <Array as="points">
              <mxPoint x="81" y="662" />
            </Array>
          </mxGeometry>
        </mxCell>
        <mxCell id="oLPKg93l9CS0hn-_ZyWQ-55" value="" style="html=1;points=[];perimeter=orthogonalPerimeter;" parent="oLPKg93l9CS0hn-_ZyWQ-5" vertex="1">
          <mxGeometry x="44" y="812" width="10" height="80" as="geometry" />
        </mxCell>
        <mxCell id="oLPKg93l9CS0hn-_ZyWQ-6" value="上传工具" style="shape=umlLifeline;perimeter=lifelinePerimeter;whiteSpace=wrap;html=1;container=1;collapsible=0;recursiveResize=0;outlineConnect=0;" parent="1" vertex="1">
          <mxGeometry x="1092" y="1767" width="100" height="252" as="geometry" />
        </mxCell>
        <mxCell id="oLPKg93l9CS0hn-_ZyWQ-8" value="" style="html=1;points=[];perimeter=orthogonalPerimeter;" parent="oLPKg93l9CS0hn-_ZyWQ-6" vertex="1">
          <mxGeometry x="45" y="164" width="10" height="64" as="geometry" />
        </mxCell>
        <mxCell id="oLPKg93l9CS0hn-_ZyWQ-7" value="基础服务（DB、DFS等）" style="shape=umlLifeline;perimeter=lifelinePerimeter;whiteSpace=wrap;html=1;container=1;collapsible=0;recursiveResize=0;outlineConnect=0;" parent="1" vertex="1">
          <mxGeometry x="1223" y="1767" width="100" height="722" as="geometry" />
        </mxCell>
        <mxCell id="oLPKg93l9CS0hn-_ZyWQ-19" value="" style="html=1;points=[];perimeter=orthogonalPerimeter;" parent="oLPKg93l9CS0hn-_ZyWQ-7" vertex="1">
          <mxGeometry x="47" y="180" width="10" height="32" as="geometry" />
        </mxCell>
        <mxCell id="oLPKg93l9CS0hn-_ZyWQ-22" value="" style="html=1;points=[];perimeter=orthogonalPerimeter;" parent="oLPKg93l9CS0hn-_ZyWQ-7" vertex="1">
          <mxGeometry x="45" y="286" width="10" height="36" as="geometry" />
        </mxCell>
        <mxCell id="oLPKg93l9CS0hn-_ZyWQ-38" value="" style="html=1;points=[];perimeter=orthogonalPerimeter;" parent="oLPKg93l9CS0hn-_ZyWQ-7" vertex="1">
          <mxGeometry x="45" y="450" width="10" height="28" as="geometry" />
        </mxCell>
        <mxCell id="oLPKg93l9CS0hn-_ZyWQ-9" value="静态文件、PyController" style="html=1;verticalAlign=bottom;endArrow=block;entryX=0;entryY=0;" parent="1" source="oLPKg93l9CS0hn-_ZyWQ-2" target="oLPKg93l9CS0hn-_ZyWQ-8" edge="1">
          <mxGeometry relative="1" as="geometry">
            <mxPoint x="473" y="1996" as="sourcePoint" />
          </mxGeometry>
        </mxCell>
        <mxCell id="oLPKg93l9CS0hn-_ZyWQ-10" value="上传结果" style="html=1;verticalAlign=bottom;endArrow=open;dashed=1;endSize=8;exitX=0;exitY=0.95;" parent="1" source="oLPKg93l9CS0hn-_ZyWQ-8" target="oLPKg93l9CS0hn-_ZyWQ-2" edge="1">
          <mxGeometry relative="1" as="geometry">
            <mxPoint x="338" y="2126" as="targetPoint" />
          </mxGeometry>
        </mxCell>
        <mxCell id="oLPKg93l9CS0hn-_ZyWQ-14" value="访问首页" style="html=1;verticalAlign=bottom;endArrow=block;entryX=0;entryY=0;" parent="1" target="oLPKg93l9CS0hn-_ZyWQ-13" edge="1">
          <mxGeometry relative="1" as="geometry">
            <mxPoint x="626" y="2020" as="sourcePoint" />
          </mxGeometry>
        </mxCell>
        <mxCell id="oLPKg93l9CS0hn-_ZyWQ-17" value="testDefault.html" style="html=1;verticalAlign=bottom;endArrow=block;entryX=0;entryY=0;" parent="1" target="oLPKg93l9CS0hn-_ZyWQ-16" edge="1">
          <mxGeometry relative="1" as="geometry">
            <mxPoint x="828" y="2036" as="sourcePoint" />
          </mxGeometry>
        </mxCell>
        <mxCell id="oLPKg93l9CS0hn-_ZyWQ-18" value="HTML内容" style="html=1;verticalAlign=bottom;endArrow=open;dashed=1;endSize=8;exitX=0;exitY=0.95;" parent="1" source="oLPKg93l9CS0hn-_ZyWQ-16" edge="1">
          <mxGeometry relative="1" as="geometry">
            <mxPoint x="828" y="2112" as="targetPoint" />
          </mxGeometry>
        </mxCell>
        <mxCell id="oLPKg93l9CS0hn-_ZyWQ-20" value="文件内容" style="html=1;verticalAlign=bottom;endArrow=block;entryX=0;entryY=0;" parent="1" source="oLPKg93l9CS0hn-_ZyWQ-6" target="oLPKg93l9CS0hn-_ZyWQ-19" edge="1">
          <mxGeometry relative="1" as="geometry">
            <mxPoint x="1200" y="1917" as="sourcePoint" />
          </mxGeometry>
        </mxCell>
        <mxCell id="oLPKg93l9CS0hn-_ZyWQ-21" value="" style="html=1;verticalAlign=bottom;endArrow=open;dashed=1;endSize=8;exitX=0;exitY=0.95;" parent="1" source="oLPKg93l9CS0hn-_ZyWQ-19" target="oLPKg93l9CS0hn-_ZyWQ-6" edge="1">
          <mxGeometry relative="1" as="geometry">
            <mxPoint x="1235" y="1982" as="targetPoint" />
          </mxGeometry>
        </mxCell>
        <mxCell id="oLPKg93l9CS0hn-_ZyWQ-24" value="文件内容" style="html=1;verticalAlign=bottom;endArrow=open;dashed=1;endSize=8;exitX=0;exitY=0.95;" parent="1" source="oLPKg93l9CS0hn-_ZyWQ-22" target="oLPKg93l9CS0hn-_ZyWQ-4" edge="1">
          <mxGeometry relative="1" as="geometry">
            <mxPoint x="1198" y="2103" as="targetPoint" />
          </mxGeometry>
        </mxCell>
        <mxCell id="oLPKg93l9CS0hn-_ZyWQ-23" value="获取 testDefault 内容" style="html=1;verticalAlign=bottom;endArrow=block;entryX=0;entryY=0;" parent="1" source="oLPKg93l9CS0hn-_ZyWQ-4" target="oLPKg93l9CS0hn-_ZyWQ-22" edge="1">
          <mxGeometry relative="1" as="geometry">
            <mxPoint x="1198" y="2027" as="sourcePoint" />
          </mxGeometry>
        </mxCell>
        <mxCell id="oLPKg93l9CS0hn-_ZyWQ-26" value="社会招聘" style="html=1;verticalAlign=bottom;endArrow=block;entryX=0;entryY=0;" parent="1" source="oLPKg93l9CS0hn-_ZyWQ-3" target="oLPKg93l9CS0hn-_ZyWQ-25" edge="1">
          <mxGeometry relative="1" as="geometry">
            <mxPoint x="752" y="2178" as="sourcePoint" />
          </mxGeometry>
        </mxCell>
        <mxCell id="oLPKg93l9CS0hn-_ZyWQ-29" value="Haih/zwlb.html?jc=1" style="html=1;verticalAlign=bottom;endArrow=block;entryX=0;entryY=0;" parent="1" source="oLPKg93l9CS0hn-_ZyWQ-25" target="oLPKg93l9CS0hn-_ZyWQ-28" edge="1">
          <mxGeometry relative="1" as="geometry">
            <mxPoint x="910" y="2188" as="sourcePoint" />
          </mxGeometry>
        </mxCell>
        <mxCell id="oLPKg93l9CS0hn-_ZyWQ-30" value="View" style="html=1;verticalAlign=bottom;endArrow=open;dashed=1;endSize=8;exitX=0;exitY=0.95;" parent="1" source="oLPKg93l9CS0hn-_ZyWQ-28" target="oLPKg93l9CS0hn-_ZyWQ-5" edge="1">
          <mxGeometry relative="1" as="geometry">
            <mxPoint x="910" y="2264" as="targetPoint" />
          </mxGeometry>
        </mxCell>
        <mxCell id="oLPKg93l9CS0hn-_ZyWQ-35" value="职位列表内容" style="html=1;verticalAlign=bottom;endArrow=open;dashed=1;endSize=8;exitX=0;exitY=0.95;" parent="1" source="oLPKg93l9CS0hn-_ZyWQ-33" target="oLPKg93l9CS0hn-_ZyWQ-5" edge="1">
          <mxGeometry relative="1" as="geometry">
            <mxPoint x="911" y="2359" as="targetPoint" />
          </mxGeometry>
        </mxCell>
        <mxCell id="oLPKg93l9CS0hn-_ZyWQ-34" value="JobAd/_SearchJobAd" style="html=1;verticalAlign=bottom;endArrow=block;entryX=0;entryY=0;" parent="1" source="oLPKg93l9CS0hn-_ZyWQ-5" target="oLPKg93l9CS0hn-_ZyWQ-33" edge="1">
          <mxGeometry relative="1" as="geometry">
            <mxPoint x="911" y="2283" as="sourcePoint" />
          </mxGeometry>
        </mxCell>
        <mxCell id="oLPKg93l9CS0hn-_ZyWQ-40" value="文件内容" style="html=1;verticalAlign=bottom;endArrow=open;dashed=1;endSize=8;exitX=0;exitY=0.95;entryX=0;entryY=0.585;entryDx=0;entryDy=0;entryPerimeter=0;" parent="1" source="oLPKg93l9CS0hn-_ZyWQ-38" target="oLPKg93l9CS0hn-_ZyWQ-28" edge="1">
          <mxGeometry relative="1" as="geometry">
            <mxPoint x="1198" y="2262" as="targetPoint" />
          </mxGeometry>
        </mxCell>
        <mxCell id="oLPKg93l9CS0hn-_ZyWQ-39" value="获取 zwlb 内容" style="html=1;verticalAlign=bottom;endArrow=block;" parent="1" source="oLPKg93l9CS0hn-_ZyWQ-4" target="oLPKg93l9CS0hn-_ZyWQ-38" edge="1">
          <mxGeometry relative="1" as="geometry">
            <mxPoint x="1198" y="2186" as="sourcePoint" />
          </mxGeometry>
        </mxCell>
        <mxCell id="oLPKg93l9CS0hn-_ZyWQ-46" value="投递" style="html=1;verticalAlign=bottom;endArrow=block;entryX=0;entryY=0;" parent="1" source="oLPKg93l9CS0hn-_ZyWQ-3" target="oLPKg93l9CS0hn-_ZyWQ-45" edge="1">
          <mxGeometry relative="1" as="geometry">
            <mxPoint x="752" y="2415" as="sourcePoint" />
          </mxGeometry>
        </mxCell>
        <mxCell id="oLPKg93l9CS0hn-_ZyWQ-50" value="" style="html=1;points=[];perimeter=orthogonalPerimeter;" parent="1" vertex="1">
          <mxGeometry x="980" y="2487" width="10" height="40" as="geometry" />
        </mxCell>
        <mxCell id="oLPKg93l9CS0hn-_ZyWQ-51" value="/ShowResume/Test#login" style="html=1;verticalAlign=bottom;endArrow=block;entryX=0;entryY=0;" parent="1" source="oLPKg93l9CS0hn-_ZyWQ-5" target="oLPKg93l9CS0hn-_ZyWQ-50" edge="1">
          <mxGeometry relative="1" as="geometry">
            <mxPoint x="869" y="2506" as="sourcePoint" />
          </mxGeometry>
        </mxCell>
        <mxCell id="oLPKg93l9CS0hn-_ZyWQ-52" value="login" style="html=1;verticalAlign=bottom;endArrow=open;dashed=1;endSize=8;exitX=0;exitY=0.95;" parent="1" source="oLPKg93l9CS0hn-_ZyWQ-50" target="oLPKg93l9CS0hn-_ZyWQ-5" edge="1">
          <mxGeometry relative="1" as="geometry">
            <mxPoint x="869" y="2582" as="targetPoint" />
          </mxGeometry>
        </mxCell>
        <mxCell id="oLPKg93l9CS0hn-_ZyWQ-56" value="用户名、密码" style="html=1;verticalAlign=bottom;endArrow=block;entryX=0;entryY=0;" parent="1" source="oLPKg93l9CS0hn-_ZyWQ-3" target="oLPKg93l9CS0hn-_ZyWQ-55" edge="1">
          <mxGeometry relative="1" as="geometry">
            <mxPoint x="752" y="2579" as="sourcePoint" />
          </mxGeometry>
        </mxCell>
        <mxCell id="oLPKg93l9CS0hn-_ZyWQ-59" value="LightboltAPI/User/Login" style="html=1;verticalAlign=bottom;endArrow=block;entryX=0;entryY=0;" parent="1" source="oLPKg93l9CS0hn-_ZyWQ-5" target="oLPKg93l9CS0hn-_ZyWQ-58" edge="1">
          <mxGeometry relative="1" as="geometry">
            <mxPoint x="911" y="2582" as="sourcePoint" />
          </mxGeometry>
        </mxCell>
        <mxCell id="oLPKg93l9CS0hn-_ZyWQ-60" value="成功，跳回详情页" style="html=1;verticalAlign=bottom;endArrow=open;dashed=1;endSize=8;exitX=0;exitY=0.95;" parent="1" source="oLPKg93l9CS0hn-_ZyWQ-58" target="oLPKg93l9CS0hn-_ZyWQ-5" edge="1">
          <mxGeometry relative="1" as="geometry">
            <mxPoint x="911" y="2658" as="targetPoint" />
          </mxGeometry>
        </mxCell>
        <mxCell id="jS4SmAK4BnVbSEzkVTML-12" value="VirtualScope" style="swimlane;fontStyle=1;align=center;verticalAlign=top;childLayout=stackLayout;horizontal=1;startSize=26;horizontalStack=0;resizeParent=1;resizeParentMax=0;resizeLast=0;collapsible=1;marginBottom=0;" vertex="1" parent="1">
          <mxGeometry x="1231" y="1559" width="258" height="83" as="geometry" />
        </mxCell>
        <mxCell id="jS4SmAK4BnVbSEzkVTML-13" value="" style="line;strokeWidth=1;fillColor=none;align=left;verticalAlign=middle;spacingTop=-1;spacingLeft=3;spacingRight=3;rotatable=0;labelPosition=right;points=[];portConstraint=eastwest;" vertex="1" parent="jS4SmAK4BnVbSEzkVTML-12">
          <mxGeometry y="26" width="258" height="8" as="geometry" />
        </mxCell>
        <mxCell id="jS4SmAK4BnVbSEzkVTML-14" value=" + PyActionDescriptor  FindAction&#xa; + PyController GetController" style="text;strokeColor=none;fillColor=none;align=left;verticalAlign=top;spacingLeft=4;spacingRight=4;overflow=hidden;rotatable=0;points=[[0,0.5],[1,0.5]];portConstraint=eastwest;" vertex="1" parent="jS4SmAK4BnVbSEzkVTML-12">
          <mxGeometry y="34" width="258" height="49" as="geometry" />
        </mxCell>
        <mxCell id="jS4SmAK4BnVbSEzkVTML-15" value="ActionDescriptor" style="swimlane;fontStyle=1;align=center;verticalAlign=top;childLayout=stackLayout;horizontal=1;startSize=26;horizontalStack=0;resizeParent=1;resizeParentMax=0;resizeLast=0;collapsible=1;marginBottom=0;" vertex="1" parent="1">
          <mxGeometry x="942" y="1353" width="160" height="60" as="geometry" />
        </mxCell>
        <mxCell id="jS4SmAK4BnVbSEzkVTML-16" value="" style="line;strokeWidth=1;fillColor=none;align=left;verticalAlign=middle;spacingTop=-1;spacingLeft=3;spacingRight=3;rotatable=0;labelPosition=right;points=[];portConstraint=eastwest;" vertex="1" parent="jS4SmAK4BnVbSEzkVTML-15">
          <mxGeometry y="26" width="160" height="8" as="geometry" />
        </mxCell>
        <mxCell id="jS4SmAK4BnVbSEzkVTML-17" value="+FindAction" style="text;strokeColor=none;fillColor=none;align=left;verticalAlign=top;spacingLeft=4;spacingRight=4;overflow=hidden;rotatable=0;points=[[0,0.5],[1,0.5]];portConstraint=eastwest;" vertex="1" parent="jS4SmAK4BnVbSEzkVTML-15">
          <mxGeometry y="34" width="160" height="26" as="geometry" />
        </mxCell>
        <mxCell id="jS4SmAK4BnVbSEzkVTML-18" value="PyActionDescriptor" style="swimlane;fontStyle=1;align=center;verticalAlign=top;childLayout=stackLayout;horizontal=1;startSize=26;horizontalStack=0;resizeParent=1;resizeParentMax=0;resizeLast=0;collapsible=1;marginBottom=0;" vertex="1" parent="1">
          <mxGeometry x="942" y="1479" width="160" height="85" as="geometry" />
        </mxCell>
        <mxCell id="jS4SmAK4BnVbSEzkVTML-19" value="" style="line;strokeWidth=1;fillColor=none;align=left;verticalAlign=middle;spacingTop=-1;spacingLeft=3;spacingRight=3;rotatable=0;labelPosition=right;points=[];portConstraint=eastwest;" vertex="1" parent="jS4SmAK4BnVbSEzkVTML-18">
          <mxGeometry y="26" width="160" height="8" as="geometry" />
        </mxCell>
        <mxCell id="jS4SmAK4BnVbSEzkVTML-20" value="+FindAction&#xa;+Execute" style="text;strokeColor=none;fillColor=none;align=left;verticalAlign=top;spacingLeft=4;spacingRight=4;overflow=hidden;rotatable=0;points=[[0,0.5],[1,0.5]];portConstraint=eastwest;" vertex="1" parent="jS4SmAK4BnVbSEzkVTML-18">
          <mxGeometry y="34" width="160" height="51" as="geometry" />
        </mxCell>
        <mxCell id="jS4SmAK4BnVbSEzkVTML-21" value="PythonCalls" style="swimlane;fontStyle=1;align=center;verticalAlign=top;childLayout=stackLayout;horizontal=1;startSize=26;horizontalStack=0;resizeParent=1;resizeParentMax=0;resizeLast=0;collapsible=1;marginBottom=0;" vertex="1" parent="1">
          <mxGeometry x="716" y="1504" width="160" height="60" as="geometry" />
        </mxCell>
        <mxCell id="jS4SmAK4BnVbSEzkVTML-22" value="" style="line;strokeWidth=1;fillColor=none;align=left;verticalAlign=middle;spacingTop=-1;spacingLeft=3;spacingRight=3;rotatable=0;labelPosition=right;points=[];portConstraint=eastwest;" vertex="1" parent="jS4SmAK4BnVbSEzkVTML-21">
          <mxGeometry y="26" width="160" height="8" as="geometry" />
        </mxCell>
        <mxCell id="jS4SmAK4BnVbSEzkVTML-23" value="CallWithKeywordArgs" style="text;strokeColor=none;fillColor=none;align=left;verticalAlign=top;spacingLeft=4;spacingRight=4;overflow=hidden;rotatable=0;points=[[0,0.5],[1,0.5]];portConstraint=eastwest;" vertex="1" parent="jS4SmAK4BnVbSEzkVTML-21">
          <mxGeometry y="34" width="160" height="26" as="geometry" />
        </mxCell>
        <mxCell id="jS4SmAK4BnVbSEzkVTML-24" value="" style="endArrow=classic;html=1;entryX=1.019;entryY=0.038;entryDx=0;entryDy=0;entryPerimeter=0;" edge="1" parent="1" source="jS4SmAK4BnVbSEzkVTML-20" target="jS4SmAK4BnVbSEzkVTML-23">
          <mxGeometry width="50" height="50" relative="1" as="geometry">
            <mxPoint x="757" y="1666" as="sourcePoint" />
            <mxPoint x="807" y="1616" as="targetPoint" />
          </mxGeometry>
        </mxCell>
        <mxCell id="jS4SmAK4BnVbSEzkVTML-25" value="" style="endArrow=classic;html=1;" edge="1" parent="1" source="jS4SmAK4BnVbSEzkVTML-14" target="jS4SmAK4BnVbSEzkVTML-18">
          <mxGeometry width="50" height="50" relative="1" as="geometry">
            <mxPoint x="1183" y="1637" as="sourcePoint" />
            <mxPoint x="1233" y="1587" as="targetPoint" />
          </mxGeometry>
        </mxCell>
        <mxCell id="jS4SmAK4BnVbSEzkVTML-26" value="Extends" style="endArrow=block;endSize=16;endFill=0;html=1;exitX=0.5;exitY=0;exitDx=0;exitDy=0;" edge="1" parent="1" source="jS4SmAK4BnVbSEzkVTML-18" target="jS4SmAK4BnVbSEzkVTML-15">
          <mxGeometry width="160" relative="1" as="geometry">
            <mxPoint x="819" y="1591" as="sourcePoint" />
            <mxPoint x="979" y="1591" as="targetPoint" />
          </mxGeometry>
        </mxCell>
        <mxCell id="jS4SmAK4BnVbSEzkVTML-27" value="PyController" style="swimlane;fontStyle=1;align=center;verticalAlign=top;childLayout=stackLayout;horizontal=1;startSize=26;horizontalStack=0;resizeParent=1;resizeParentMax=0;resizeLast=0;collapsible=1;marginBottom=0;" vertex="1" parent="1">
          <mxGeometry x="1237" y="1417" width="317" height="60" as="geometry" />
        </mxCell>
        <mxCell id="jS4SmAK4BnVbSEzkVTML-28" value="" style="line;strokeWidth=1;fillColor=none;align=left;verticalAlign=middle;spacingTop=-1;spacingLeft=3;spacingRight=3;rotatable=0;labelPosition=right;points=[];portConstraint=eastwest;" vertex="1" parent="jS4SmAK4BnVbSEzkVTML-27">
          <mxGeometry y="26" width="317" height="8" as="geometry" />
        </mxCell>
        <mxCell id="jS4SmAK4BnVbSEzkVTML-29" value="+ PyAsyncConrollerActionInvoker CreateActionInvoker" style="text;strokeColor=none;fillColor=none;align=left;verticalAlign=top;spacingLeft=4;spacingRight=4;overflow=hidden;rotatable=0;points=[[0,0.5],[1,0.5]];portConstraint=eastwest;" vertex="1" parent="jS4SmAK4BnVbSEzkVTML-27">
          <mxGeometry y="34" width="317" height="26" as="geometry" />
        </mxCell>
        <mxCell id="jS4SmAK4BnVbSEzkVTML-30" value="LightboltBaseController" style="swimlane;fontStyle=1;align=center;verticalAlign=top;childLayout=stackLayout;horizontal=1;startSize=26;horizontalStack=0;resizeParent=1;resizeParentMax=0;resizeLast=0;collapsible=1;marginBottom=0;" vertex="1" parent="1">
          <mxGeometry x="1318" y="1298" width="160" height="34" as="geometry" />
        </mxCell>
        <mxCell id="jS4SmAK4BnVbSEzkVTML-31" value="" style="line;strokeWidth=1;fillColor=none;align=left;verticalAlign=middle;spacingTop=-1;spacingLeft=3;spacingRight=3;rotatable=0;labelPosition=right;points=[];portConstraint=eastwest;" vertex="1" parent="jS4SmAK4BnVbSEzkVTML-30">
          <mxGeometry y="26" width="160" height="8" as="geometry" />
        </mxCell>
        <mxCell id="jS4SmAK4BnVbSEzkVTML-33" value="Controller" style="swimlane;fontStyle=1;align=center;verticalAlign=top;childLayout=stackLayout;horizontal=1;startSize=26;horizontalStack=0;resizeParent=1;resizeParentMax=0;resizeLast=0;collapsible=1;marginBottom=0;" vertex="1" parent="1">
          <mxGeometry x="1310" y="1162" width="160" height="34" as="geometry" />
        </mxCell>
        <mxCell id="jS4SmAK4BnVbSEzkVTML-34" value="" style="line;strokeWidth=1;fillColor=none;align=left;verticalAlign=middle;spacingTop=-1;spacingLeft=3;spacingRight=3;rotatable=0;labelPosition=right;points=[];portConstraint=eastwest;" vertex="1" parent="jS4SmAK4BnVbSEzkVTML-33">
          <mxGeometry y="26" width="160" height="8" as="geometry" />
        </mxCell>
        <mxCell id="jS4SmAK4BnVbSEzkVTML-36" value="Extends" style="endArrow=block;endSize=16;endFill=0;html=1;exitX=0.5;exitY=0;exitDx=0;exitDy=0;" edge="1" parent="1" source="jS4SmAK4BnVbSEzkVTML-27" target="jS4SmAK4BnVbSEzkVTML-30">
          <mxGeometry width="160" relative="1" as="geometry">
            <mxPoint x="1647" y="1328" as="sourcePoint" />
            <mxPoint x="1807" y="1328" as="targetPoint" />
          </mxGeometry>
        </mxCell>
        <mxCell id="jS4SmAK4BnVbSEzkVTML-37" value="Extends" style="endArrow=block;endSize=16;endFill=0;html=1;exitX=0.5;exitY=0;exitDx=0;exitDy=0;" edge="1" parent="1" source="jS4SmAK4BnVbSEzkVTML-30" target="jS4SmAK4BnVbSEzkVTML-33">
          <mxGeometry width="160" relative="1" as="geometry">
            <mxPoint x="1586" y="1214" as="sourcePoint" />
            <mxPoint x="1746" y="1214" as="targetPoint" />
          </mxGeometry>
        </mxCell>
        <mxCell id="jS4SmAK4BnVbSEzkVTML-38" value="AsyncControllerActionInvoker" style="swimlane;fontStyle=1;align=center;verticalAlign=top;childLayout=stackLayout;horizontal=1;startSize=26;horizontalStack=0;resizeParent=1;resizeParentMax=0;resizeLast=0;collapsible=1;marginBottom=0;" vertex="1" parent="1">
          <mxGeometry x="1636" y="1238" width="204" height="60" as="geometry" />
        </mxCell>
        <mxCell id="jS4SmAK4BnVbSEzkVTML-39" value="" style="line;strokeWidth=1;fillColor=none;align=left;verticalAlign=middle;spacingTop=-1;spacingLeft=3;spacingRight=3;rotatable=0;labelPosition=right;points=[];portConstraint=eastwest;" vertex="1" parent="jS4SmAK4BnVbSEzkVTML-38">
          <mxGeometry y="26" width="204" height="8" as="geometry" />
        </mxCell>
        <mxCell id="jS4SmAK4BnVbSEzkVTML-40" value="+GetControllerDescriptor" style="text;strokeColor=none;fillColor=none;align=left;verticalAlign=top;spacingLeft=4;spacingRight=4;overflow=hidden;rotatable=0;points=[[0,0.5],[1,0.5]];portConstraint=eastwest;" vertex="1" parent="jS4SmAK4BnVbSEzkVTML-38">
          <mxGeometry y="34" width="204" height="26" as="geometry" />
        </mxCell>
        <mxCell id="jS4SmAK4BnVbSEzkVTML-41" value="PyAsyncConrollerActionInvoker" style="swimlane;fontStyle=1;align=center;verticalAlign=top;childLayout=stackLayout;horizontal=1;startSize=26;horizontalStack=0;resizeParent=1;resizeParentMax=0;resizeLast=0;collapsible=1;marginBottom=0;" vertex="1" parent="1">
          <mxGeometry x="1641" y="1415" width="204" height="60" as="geometry" />
        </mxCell>
        <mxCell id="jS4SmAK4BnVbSEzkVTML-42" value="" style="line;strokeWidth=1;fillColor=none;align=left;verticalAlign=middle;spacingTop=-1;spacingLeft=3;spacingRight=3;rotatable=0;labelPosition=right;points=[];portConstraint=eastwest;" vertex="1" parent="jS4SmAK4BnVbSEzkVTML-41">
          <mxGeometry y="26" width="204" height="8" as="geometry" />
        </mxCell>
        <mxCell id="jS4SmAK4BnVbSEzkVTML-43" value="+GetControllerDescriptor" style="text;strokeColor=none;fillColor=none;align=left;verticalAlign=top;spacingLeft=4;spacingRight=4;overflow=hidden;rotatable=0;points=[[0,0.5],[1,0.5]];portConstraint=eastwest;" vertex="1" parent="jS4SmAK4BnVbSEzkVTML-41">
          <mxGeometry y="34" width="204" height="26" as="geometry" />
        </mxCell>
        <mxCell id="jS4SmAK4BnVbSEzkVTML-44" value="Extends" style="endArrow=block;endSize=16;endFill=0;html=1;exitX=0.5;exitY=0;exitDx=0;exitDy=0;" edge="1" parent="1" source="jS4SmAK4BnVbSEzkVTML-41" target="jS4SmAK4BnVbSEzkVTML-38">
          <mxGeometry width="160" relative="1" as="geometry">
            <mxPoint x="1641" y="1498" as="sourcePoint" />
            <mxPoint x="1801" y="1498" as="targetPoint" />
          </mxGeometry>
        </mxCell>
        <mxCell id="jS4SmAK4BnVbSEzkVTML-45" value="" style="endArrow=classic;html=1;" edge="1" parent="1" source="jS4SmAK4BnVbSEzkVTML-29" target="jS4SmAK4BnVbSEzkVTML-41">
          <mxGeometry width="50" height="50" relative="1" as="geometry">
            <mxPoint x="1639" y="1599" as="sourcePoint" />
            <mxPoint x="1689" y="1549" as="targetPoint" />
          </mxGeometry>
        </mxCell>
        <mxCell id="jS4SmAK4BnVbSEzkVTML-46" value="" style="endArrow=classic;html=1;" edge="1" parent="1" source="jS4SmAK4BnVbSEzkVTML-14" target="jS4SmAK4BnVbSEzkVTML-27">
          <mxGeometry width="50" height="50" relative="1" as="geometry">
            <mxPoint x="1614" y="1603" as="sourcePoint" />
            <mxPoint x="1664" y="1553" as="targetPoint" />
          </mxGeometry>
        </mxCell>
      </root>
    </mxGraphModel>
  </diagram>
</mxfile>
